Radio-Canada-LightItalic.ufo
<glyph name="exclam" format="1">
  <advance width="295.72746645431056"/>
  <unicode hex="0021"/>
  <outline>
    <contour>
      <point x="52" y="29" type="curve" smooth="yes"/>
      <point x="52" y="8"/>
      <point x="65" y="-8"/>
      <point x="88" y="-8" type="curve" smooth="yes"/>
      <point x="116" y="-8"/>
      <point x="139" y="17"/>
      <point x="139" y="44" type="curve" smooth="yes"/>
      <point x="139" y="65"/>
      <point x="126" y="81"/>
      <point x="103" y="81" type="curve" smooth="yes"/>
      <point x="75" y="81"/>
      <point x="52" y="56"/>
    </contour>
    <contour>
      <point x="103" y="180" type="line"/>
      <point x="147" y="180" type="line"/>
      <point x="226" y="510" type="line"/>
      <point x="265" y="690" type="line"/>
      <point x="203" y="690" type="line"/>
      <point x="164" y="510" type="line"/>
    </contour>
  </outline>
</glyph>
<glyph name="quotedbl" format="1">
  <advance width="332.9592755975841"/>
  <unicode hex="0022"/>
  <outline>
    <contour>
      <point x="123" y="500" type="line"/>
      <point x="168" y="500" type="line"/>
      <point x="225" y="720" type="line"/>
      <point x="159" y="720" type="line"/>
    </contour>
    <contour>
      <point x="258" y="500" type="line"/>
      <point x="303" y="500" type="line"/>
      <point x="360" y="720" type="line"/>
      <point x="294" y="720" type="line"/>
    </contour>
  </outline>
</glyph>
<glyph name="dollar" format="1">
  <advance width="600"/>
  <unicode hex="0024"/>
  <outline>
    <contour>
      <point x="26.0" y="96" type="line"/>
      <point x="89.0" y="32"/>
      <point x="172.0" y="-8"/>
      <point x="271.0" y="-8" type="curve"/>
      <point x="421.0" y="-8"/>
      <point x="511.0" y="78"/>
      <point x="511.0" y="177" type="curve"/>
      <point x="511.0" y="254"/>
      <point x="469.0" y="318"/>
      <point x="324.0" y="392" type="curve" smooth="yes"/>
      <point x="223.0" y="443"/>
      <point x="196.0" y="481"/>
      <point x="196.0" y="531" type="curve"/>
      <point x="196.0" y="584"/>
      <point x="254.0" y="644"/>
      <point x="363.0" y="644" type="curve"/>
      <point x="433.0" y="644"/>
      <point x="488.0" y="618"/>
      <point x="529.0" y="578" type="curve"/>
      <point x="571.0" y="622" type="line"/>
      <point x="518.0" y="668"/>
      <point x="455.0" y="698"/>
      <point x="368.0" y="698" type="curve"/>
      <point x="219.0" y="698"/>
      <point x="135.0" y="615"/>
      <point x="135.0" y="524" type="curve"/>
      <point x="135.0" y="456"/>
      <point x="179.0" y="398"/>
      <point x="295.0" y="338" type="curve" smooth="yes"/>
      <point x="425.0" y="271"/>
      <point x="448.0" y="229"/>
      <point x="448.0" y="169" type="curve"/>
      <point x="448.0" y="108"/>
      <point x="386.0" y="46"/>
      <point x="278.0" y="46" type="curve"/>
      <point x="189.0" y="46"/>
      <point x="119.0" y="84"/>
      <point x="68.0" y="139" type="curve"/>
    </contour>
    <contour>
      <point x="199.0" y="-100" type="line"/>
      <point x="255.0" y="-100" type="line"/>
      <point x="349.0" y="344" type="line"/>
      <point x="297.0" y="362" type="line"/>
    </contour>
    <contour>
      <point x="297.0" y="362" type="line"/>
      <point x="349.0" y="344" type="line"/>
      <point x="444.0" y="790" type="line"/>
      <point x="388.0" y="790" type="line"/>
    </contour>
  </outline>
</glyph>
<glyph name="percent" format="2">
	<advance width="873"/>
	<unicode hex="0025"/>
	<outline>
		<contour>
			<point x="127" y="503" type="curve"/>
			<point x="127" y="416"/>
			<point x="183" y="371"/>
			<point x="250" y="371" type="curve"/>
			<point x="355" y="371"/>
			<point x="430" y="465"/>
			<point x="430" y="568" type="curve"/>
			<point x="430" y="654"/>
			<point x="378" y="699"/>
			<point x="306" y="699" type="curve"/>
			<point x="201" y="699"/>
			<point x="127" y="605"/>
		</contour>
		<contour>
			<point x="182" y="504" type="curve"/>
			<point x="182" y="575"/>
			<point x="231" y="648"/>
			<point x="301" y="648" type="curve"/>
			<point x="345" y="648"/>
			<point x="376" y="618"/>
			<point x="376" y="567" type="curve"/>
			<point x="376" y="493"/>
			<point x="326" y="422"/>
			<point x="257" y="422" type="curve"/>
			<point x="214" y="422"/>
			<point x="182" y="452"/>
		</contour>
		<contour>
			<point x="130" y="0" type="line"/>
			<point x="195" y="0" type="line"/>
			<point x="762" y="690" type="line"/>
			<point x="697" y="690" type="line"/>
		</contour>
		<contour>
			<point x="470" y="123" type="curve"/>
			<point x="470" y="36"/>
			<point x="528" y="-9"/>
			<point x="595" y="-9" type="curve"/>
			<point x="700" y="-9"/>
			<point x="773" y="85"/>
			<point x="773" y="188" type="curve"/>
			<point x="773" y="274"/>
			<point x="721" y="319"/>
			<point x="649" y="319" type="curve"/>
			<point x="544" y="319"/>
			<point x="470" y="225"/>
		</contour>
		<contour>
			<point x="525" y="124" type="curve"/>
			<point x="525" y="195"/>
			<point x="574" y="268"/>
			<point x="644" y="268" type="curve"/>
			<point x="688" y="268"/>
			<point x="719" y="238"/>
			<point x="719" y="187" type="curve"/>
			<point x="719" y="113"/>
			<point x="669" y="42"/>
			<point x="600" y="42" type="curve"/>
			<point x="557" y="42"/>
			<point x="525" y="72"/>
		</contour>
	</outline>
</glyph>
<glyph name="quotesingle" format="2">
  <advance width="198"/>
  <unicode hex="0027"/>
  <outline>
    <contour>
      <point x="123" y="500" type="line"/>
      <point x="168" y="500" type="line"/>
      <point x="225" y="720" type="line"/>
      <point x="159" y="720" type="line"/>
    </contour>
  </outline>
</glyph>
<glyph name="asterisk" format="1">
  <advance width="590.2822395065382"/>
  <unicode hex="002A"/>
  <outline>
    <contour>
      <point x="124" y="537" type="line"/>
      <point x="300" y="488" type="line"/>
      <point x="134" y="323" type="line"/>
      <point x="182" y="282" type="line"/>
      <point x="332" y="457" type="line"/>
      <point x="402" y="284" type="line"/>
      <point x="463" y="322" type="line"/>
      <point x="370" y="483" type="line"/>
      <point x="574" y="535" type="line"/>
      <point x="566" y="598" type="line"/>
      <point x="366" y="528" type="line"/>
      <point x="417" y="720" type="line"/>
      <point x="350" y="720" type="line"/>
      <point x="320" y="530" type="line"/>
      <point x="150" y="598" type="line"/>
    </contour>
  </outline>
</glyph>
<glyph name="hyphen" format="2">
	<advance width="374"/>
	<unicode hex="002D"/>
	<outline>
		<contour>
			<point x="64" y="250" type="line"/>
			<point x="296" y="250" type="line"/>
			<point x="307" y="300" type="line"/>
			<point x="75" y="300" type="line"/>
		</contour>
	</outline>
</glyph>
<glyph name="period" format="1">
  <advance width="207.72746645431056"/>
  <unicode hex="002E"/>
  <outline>
    <contour>
      <point x="8" y="29" type="curve" smooth="yes"/>
      <point x="8" y="8"/>
      <point x="21" y="-8"/>
      <point x="44" y="-8" type="curve" smooth="yes"/>
      <point x="72" y="-8"/>
      <point x="95" y="17"/>
      <point x="95" y="44" type="curve" smooth="yes"/>
      <point x="95" y="65"/>
      <point x="82" y="81"/>
      <point x="59" y="81" type="curve" smooth="yes"/>
      <point x="31" y="81"/>
      <point x="8" y="56"/>
    </contour>
  </outline>
</glyph>
<glyph name="slash" format="1">
  <advance width="311.9592755975841"/>
  <unicode hex="002F"/>
  <outline>
    <contour>
      <point x="-66" y="-30" type="line"/>
      <point x="-4" y="-30" type="line"/>
      <point x="405" y="720" type="line"/>
      <point x="343" y="720" type="line"/>
    </contour>
  </outline>
</glyph>
<glyph name="zero" format="2">
  <advance width="600"/>
  <unicode hex="0030"/>
  <outline>
    <contour>
      <point x="60.0" y="235" type="curve"/>
      <point x="60.0" y="64"/>
      <point x="142.0" y="-8"/>
      <point x="251.0" y="-8" type="curve"/>
      <point x="470.0" y="-8"/>
      <point x="566.0" y="241"/>
      <point x="566.0" y="452" type="curve"/>
      <point x="566.0" y="599"/>
      <point x="507.0" y="698"/>
      <point x="375.0" y="698" type="curve"/>
      <point x="158.0" y="698"/>
      <point x="60.0" y="446"/>
    </contour>
    <contour>
      <point x="124.0" y="238" type="curve"/>
      <point x="124.0" y="408"/>
      <point x="205.0" y="641"/>
      <point x="373.0" y="641" type="curve"/>
      <point x="455.0" y="641"/>
      <point x="502.0" y="563"/>
      <point x="502.0" y="449" type="curve"/>
      <point x="502.0" y="279"/>
      <point x="422.0" y="49"/>
      <point x="253.0" y="49" type="curve"/>
      <point x="177.0" y="49"/>
      <point x="124.0" y="118"/>
    </contour>
  </outline>
</glyph>
<glyph name="one" format="2">
  <advance width="600"/>
  <unicode hex="0031"/>
  <outline>
    <contour>
      <point x="57.0" y="0" type="line"/>
      <point x="473.0" y="0" type="line"/>
      <point x="484.0" y="54" type="line"/>
      <point x="68.0" y="54" type="line"/>
    </contour>
    <contour>
      <point x="192.0" y="601" type="line"/>
      <point x="208.0" y="553" type="line"/>
      <point x="415.0" y="640" type="line"/>
      <point x="402.0" y="690" type="line"/>
    </contour>
    <contour>
      <point x="234.0" y="0" type="line"/>
      <point x="296.0" y="0" type="line"/>
      <point x="443.0" y="690" type="line"/>
      <point x="402.0" y="690" type="line"/>
      <point x="369.0" y="637" type="line"/>
    </contour>
  </outline>
</glyph>
<glyph name="two" format="2">
  <advance width="600"/>
  <unicode hex="0032"/>
  <outline>
    <contour>
      <point x="18.0" y="0" type="line"/>
      <point x="473.0" y="0" type="line"/>
      <point x="484.0" y="54" type="line"/>
      <point x="75.0" y="54" type="line"/>
      <point x="29.0" y="44" type="line"/>
    </contour>
    <contour>
      <point x="29.0" y="44" type="line"/>
      <point x="59.0" y="0" type="line"/>
      <point x="375.0" y="284" type="line" smooth="yes"/>
      <point x="466.0" y="365"/>
      <point x="546.0" y="434"/>
      <point x="546.0" y="528" type="curve"/>
      <point x="546.0" y="627"/>
      <point x="476.0" y="698"/>
      <point x="349.0" y="698" type="curve"/>
      <point x="222.0" y="698"/>
      <point x="137.0" y="607"/>
      <point x="123.0" y="588" type="curve"/>
      <point x="166.0" y="550" type="line"/>
      <point x="176.0" y="564"/>
      <point x="243.0" y="642"/>
      <point x="348.0" y="639" type="curve"/>
      <point x="434.0" y="639"/>
      <point x="482.0" y="591"/>
      <point x="482.0" y="528" type="curve"/>
      <point x="482.0" y="453"/>
      <point x="416.0" y="397"/>
      <point x="341.0" y="329" type="curve" smooth="yes"/>
    </contour>
  </outline>
</glyph>
<glyph name="three" format="2">
  <advance width="600"/>
  <unicode hex="0033"/>
  <outline>
    <contour>
      <point x="13.0" y="86" type="line"/>
      <point x="28.0" y="62"/>
      <point x="112.0" y="-8"/>
      <point x="239.0" y="-8" type="curve"/>
      <point x="384.0" y="-8"/>
      <point x="502.0" y="94"/>
      <point x="502.0" y="236" type="curve"/>
      <point x="502.0" y="346"/>
      <point x="413.0" y="396"/>
      <point x="294.0" y="396" type="curve" smooth="yes"/>
      <point x="259.0" y="396" type="line"/>
      <point x="202.0" y="384" type="line"/>
      <point x="193.0" y="345" type="line"/>
      <point x="263.0" y="345" type="line" smooth="yes"/>
      <point x="372.0" y="345"/>
      <point x="440.0" y="308"/>
      <point x="440.0" y="228" type="curve"/>
      <point x="440.0" y="123"/>
      <point x="351.0" y="48"/>
      <point x="248.0" y="48" type="curve"/>
      <point x="132.0" y="48"/>
      <point x="76.0" y="108"/>
      <point x="58.0" y="130" type="curve"/>
    </contour>
    <contour>
      <point x="146.0" y="634" type="line"/>
      <point x="505.0" y="634" type="line"/>
      <point x="556.0" y="647" type="line"/>
      <point x="565.0" y="690" type="line"/>
      <point x="158.0" y="690" type="line"/>
    </contour>
    <contour>
      <point x="202.0" y="384" type="line"/>
      <point x="277.0" y="384" type="line"/>
      <point x="556.0" y="647" type="line"/>
      <point x="520.0" y="690" type="line"/>
    </contour>
  </outline>
</glyph>
<glyph name="four" format="2">
  <advance width="600"/>
  <unicode hex="0034"/>
  <outline>
    <contour>
      <point x="22.0" y="149" type="line"/>
      <point x="516.0" y="149" type="line"/>
      <point x="527.0" y="203" type="line"/>
      <point x="89.0" y="203" type="line"/>
      <point x="31.0" y="191" type="line"/>
    </contour>
    <contour>
      <point x="31.0" y="191" type="line"/>
      <point x="70.0" y="149" type="line"/>
      <point x="511.0" y="690" type="line"/>
      <point x="442.0" y="690" type="line"/>
    </contour>
    <contour>
      <point x="329.0" y="0" type="line"/>
      <point x="391.0" y="0" type="line"/>
      <point x="538.0" y="690" type="line"/>
      <point x="479.0" y="690" type="line"/>
    </contour>
  </outline>
</glyph>
<glyph name="five" format="1">
  <advance width="600"/>
  <unicode hex="0035"/>
  <outline>
    <contour>
      <point x="25.0" y="86" type="line"/>
      <point x="65.0" y="33"/>
      <point x="148.0" y="-8"/>
      <point x="247.0" y="-8" type="curve"/>
      <point x="402.0" y="-8"/>
      <point x="518.0" y="95"/>
      <point x="518.0" y="245" type="curve" smooth="yes"/>
      <point x="518.0" y="353"/>
      <point x="438.0" y="420"/>
      <point x="327.0" y="420" type="curve"/>
      <point x="271.0" y="420"/>
      <point x="222.0" y="403"/>
      <point x="165.0" y="373" type="curve"/>
      <point x="145.0" y="317" type="line"/>
      <point x="197.0" y="349"/>
      <point x="251.0" y="364"/>
      <point x="307.0" y="364" type="curve"/>
      <point x="396.0" y="364"/>
      <point x="453.0" y="321"/>
      <point x="453.0" y="237" type="curve"/>
      <point x="453.0" y="122"/>
      <point x="361.0" y="48"/>
      <point x="251.0" y="48" type="curve"/>
      <point x="169.0" y="48"/>
      <point x="105.0" y="80"/>
      <point x="71.0" y="129" type="curve"/>
    </contour>
    <contour>
      <point x="118.0" y="338" type="line"/>
      <point x="145.0" y="317" type="line"/>
      <point x="179.0" y="339" type="line"/>
      <point x="279.0" y="690" type="line"/>
      <point x="218.0" y="690" type="line"/>
    </contour>
    <contour>
      <point x="226.0" y="690" type="line"/>
      <point x="244.0" y="634" type="line"/>
      <point x="561.0" y="634" type="line"/>
      <point x="573.0" y="690" type="line"/>
    </contour>
  </outline>
</glyph>
<glyph name="six" format="2">
  <advance width="600"/>
  <unicode hex="0036"/>
  <outline>
    <contour>
      <point x="82.0" y="225" type="curve"/>
      <point x="82.0" y="88"/>
      <point x="160.0" y="-8"/>
      <point x="281.0" y="-8" type="curve"/>
      <point x="438.0" y="-8"/>
      <point x="539.0" y="133"/>
      <point x="539.0" y="260" type="curve"/>
      <point x="539.0" y="362"/>
      <point x="469.0" y="434"/>
      <point x="369.0" y="434" type="curve"/>
      <point x="274.0" y="434"/>
      <point x="194.0" y="379"/>
      <point x="146.0" y="317" type="curve"/>
      <point x="137.0" y="252" type="line"/>
      <point x="206.0" y="332"/>
      <point x="273.0" y="379"/>
      <point x="354.0" y="379" type="curve"/>
      <point x="425.0" y="379"/>
      <point x="477.0" y="334"/>
      <point x="477.0" y="256" type="curve"/>
      <point x="477.0" y="150"/>
      <point x="397.0" y="48"/>
      <point x="288.0" y="48" type="curve"/>
      <point x="196.0" y="48"/>
      <point x="141.0" y="118"/>
      <point x="141.0" y="221" type="curve"/>
      <point x="141.0" y="466"/>
      <point x="300.0" y="642"/>
      <point x="452.0" y="642" type="curve"/>
      <point x="501.0" y="642"/>
      <point x="527.0" y="633"/>
      <point x="561.0" y="607" type="curve"/>
      <point x="598.0" y="653" type="line"/>
      <point x="553.0" y="684"/>
      <point x="521.0" y="698"/>
      <point x="458.0" y="698" type="curve"/>
      <point x="255.0" y="698"/>
      <point x="82.0" y="485"/>
    </contour>
  </outline>
</glyph>
<glyph name="eight" format="2">
  <advance width="600"/>
  <unicode hex="0038"/>
  <outline>
    <contour>
      <point x="44.0" y="156" type="curve"/>
      <point x="44.0" y="56"/>
      <point x="135.0" y="-8"/>
      <point x="271.0" y="-8" type="curve"/>
      <point x="423.0" y="-8"/>
      <point x="519.0" y="88"/>
      <point x="519.0" y="188" type="curve"/>
      <point x="519.0" y="275"/>
      <point x="466.0" y="328"/>
      <point x="337.0" y="380" type="curve" smooth="yes"/>
      <point x="236.0" y="421"/>
      <point x="202.0" y="462"/>
      <point x="202.0" y="519" type="curve"/>
      <point x="202.0" y="579"/>
      <point x="273.0" y="644"/>
      <point x="372.0" y="644" type="curve"/>
      <point x="458.0" y="644"/>
      <point x="508.0" y="601"/>
      <point x="508.0" y="537" type="curve"/>
      <point x="508.0" y="486"/>
      <point x="457.0" y="417"/>
      <point x="325.0" y="383" type="curve"/>
      <point x="364.0" y="355" type="line"/>
      <point x="504.0" y="396"/>
      <point x="567.0" y="470"/>
      <point x="567.0" y="545" type="curve"/>
      <point x="567.0" y="632"/>
      <point x="497.0" y="698"/>
      <point x="385.0" y="698" type="curve"/>
      <point x="231.0" y="698"/>
      <point x="139.0" y="609"/>
      <point x="139.0" y="512" type="curve"/>
      <point x="139.0" y="433"/>
      <point x="194.0" y="379"/>
      <point x="306.0" y="331" type="curve" smooth="yes"/>
      <point x="420.0" y="282"/>
      <point x="458.0" y="248"/>
      <point x="458.0" y="184" type="curve"/>
      <point x="458.0" y="114"/>
      <point x="382.0" y="46"/>
      <point x="268.0" y="46" type="curve"/>
      <point x="174.0" y="46"/>
      <point x="107.0" y="93"/>
      <point x="107.0" y="160" type="curve"/>
      <point x="105.0" y="223"/>
      <point x="171.0" y="296"/>
      <point x="303.0" y="337" type="curve"/>
      <point x="268.0" y="367" type="line"/>
      <point x="122.0" y="328"/>
      <point x="44.0" y="244"/>
    </contour>
  </outline>
</glyph>
<glyph name="nine" format="2">
  <advance width="600"/>
  <unicode hex="0039"/>
  <outline>
    <contour>
      <point x="39.0" y="37" type="line"/>
      <point x="83.0" y="6"/>
      <point x="131.0" y="-8"/>
      <point x="198.0" y="-8" type="curve"/>
      <point x="388.0" y="-8"/>
      <point x="557.0" y="199"/>
      <point x="557.0" y="478" type="curve"/>
      <point x="557.0" y="593"/>
      <point x="491.0" y="700"/>
      <point x="345.0" y="700" type="curve"/>
      <point x="200.0" y="700"/>
      <point x="95.0" y="582"/>
      <point x="95.0" y="452" type="curve"/>
      <point x="95.0" y="318"/>
      <point x="187.0" y="256"/>
      <point x="292.0" y="256" type="curve"/>
      <point x="382.0" y="256"/>
      <point x="465.0" y="311"/>
      <point x="492.0" y="373" type="curve"/>
      <point x="500.0" y="438" type="line"/>
      <point x="451.0" y="358"/>
      <point x="374.0" y="311"/>
      <point x="303.0" y="311" type="curve"/>
      <point x="221.0" y="311"/>
      <point x="156.0" y="359"/>
      <point x="156.0" y="450" type="curve"/>
      <point x="156.0" y="553"/>
      <point x="240.0" y="644"/>
      <point x="338.0" y="644" type="curve"/>
      <point x="446.0" y="644"/>
      <point x="497.0" y="564"/>
      <point x="497.0" y="479" type="curve"/>
      <point x="497.0" y="213"/>
      <point x="349.0" y="47"/>
      <point x="189.0" y="47" type="curve"/>
      <point x="153.0" y="47"/>
      <point x="107.0" y="60"/>
      <point x="72.0" y="86" type="curve"/>
    </contour>
  </outline>
</glyph>
<glyph name="colon" format="2">
	<advance width="208"/>
	<unicode hex="003A"/>
	<outline>
		<contour>
			<point x="8" y="29" type="curve" smooth="yes"/>
			<point x="8" y="8"/>
			<point x="21" y="-8"/>
			<point x="44" y="-8" type="curve" smooth="yes"/>
			<point x="72" y="-8"/>
			<point x="95" y="17"/>
			<point x="95" y="44" type="curve" smooth="yes"/>
			<point x="95" y="65"/>
			<point x="82" y="81"/>
			<point x="59" y="81" type="curve" smooth="yes"/>
			<point x="31" y="81"/>
			<point x="8" y="56"/>
		</contour>
		<contour>
			<point x="101" y="466" type="curve" smooth="yes"/>
			<point x="101" y="445"/>
			<point x="114" y="429"/>
			<point x="137" y="429" type="curve" smooth="yes"/>
			<point x="165" y="429"/>
			<point x="188" y="454"/>
			<point x="188" y="481" type="curve" smooth="yes"/>
			<point x="188" y="502"/>
			<point x="175" y="518"/>
			<point x="152" y="518" type="curve" smooth="yes"/>
			<point x="124" y="518"/>
			<point x="101" y="493"/>
		</contour>
	</outline>
</glyph>
<glyph name="semicolon" format="2">
	<advance width="208"/>
	<unicode hex="003B"/>
	<outline>
		<contour>
			<point x="-28" y="-134" type="line"/>
			<point x="12" y="-134" type="line"/>
			<point x="75" y="-18" type="line" smooth="yes"/>
			<point x="87" y="4"/>
			<point x="95" y="24"/>
			<point x="95" y="38" type="curve"/>
			<point x="95" y="64"/>
			<point x="79" y="81"/>
			<point x="57" y="81" type="curve"/>
			<point x="28" y="81"/>
			<point x="8" y="57"/>
			<point x="8" y="28" type="curve" smooth="yes"/>
			<point x="8" y="13"/>
			<point x="16" y="1"/>
			<point x="28" y="-5" type="curve"/>
		</contour>
		<contour>
			<point x="101" y="466" type="curve" smooth="yes"/>
			<point x="101" y="445"/>
			<point x="114" y="429"/>
			<point x="137" y="429" type="curve" smooth="yes"/>
			<point x="165" y="429"/>
			<point x="188" y="454"/>
			<point x="188" y="481" type="curve" smooth="yes"/>
			<point x="188" y="502"/>
			<point x="175" y="518"/>
			<point x="152" y="518" type="curve" smooth="yes"/>
			<point x="124" y="518"/>
			<point x="101" y="493"/>
		</contour>
	</outline>
</glyph>
<glyph name="less" format="2">
  <advance width="600"/>
  <unicode hex="003C"/>
  <outline>
    <contour>
      <point x="80.0" y="264" type="line"/>
      <point x="437.0" y="62" type="line"/>
      <point x="449.0" y="117" type="line"/>
      <point x="125.0" y="298" type="line"/>
      <point x="89.0" y="306" type="line"/>
    </contour>
    <contour>
      <point x="83.0" y="277" type="line"/>
      <point x="119.0" y="269" type="line"/>
      <point x="521.0" y="453" type="line"/>
      <point x="534.0" y="518" type="line"/>
      <point x="91.0" y="316" type="line"/>
    </contour>
  </outline>
</glyph>
<glyph name="equal" format="2">
  <advance width="600"/>
  <unicode hex="003D"/>
  <outline>
    <contour>
      <point x="52.0" y="153" type="line"/>
      <point x="494.0" y="153" type="line"/>
      <point x="505.0" y="207" type="line"/>
      <point x="63.0" y="207" type="line"/>
    </contour>
    <contour>
      <point x="98.0" y="373" type="line"/>
      <point x="540.0" y="373" type="line"/>
      <point x="552.0" y="427" type="line"/>
      <point x="110.0" y="427" type="line"/>
    </contour>
  </outline>
</glyph>
<glyph name="greater" format="2">
  <advance width="600"/>
  <unicode hex="003E"/>
  <outline>
    <contour>
      <point x="69.0" y="62" type="line"/>
      <point x="512.0" y="264" type="line"/>
      <point x="520.0" y="302" type="line"/>
      <point x="483.0" y="311" type="line"/>
      <point x="81.0" y="126" type="line"/>
    </contour>
    <contour>
      <point x="154.0" y="460" type="line"/>
      <point x="479.0" y="279" type="line"/>
      <point x="513.0" y="270" type="line"/>
      <point x="523.0" y="316" type="line"/>
      <point x="166.0" y="518" type="line"/>
    </contour>
  </outline>
</glyph>
<glyph name="at" format="1">
  <advance width="960.336725915748"/>
  <unicode hex="0040"/>
  <outline>
    <contour>
      <point x="57" y="138" type="curve" smooth="yes"/>
      <point x="57" y="-59"/>
      <point x="186" y="-193"/>
      <point x="393" y="-193" type="curve" smooth="yes"/>
      <point x="486" y="-193"/>
      <point x="582" y="-165"/>
      <point x="648" y="-136" type="curve"/>
      <point x="635" y="-84" type="line"/>
      <point x="572" y="-116"/>
      <point x="483" y="-141"/>
      <point x="401" y="-141" type="curve" smooth="yes"/>
      <point x="218" y="-141"/>
      <point x="114" y="-23"/>
      <point x="114" y="146" type="curve" smooth="yes"/>
      <point x="114" y="422"/>
      <point x="300" y="646"/>
      <point x="545" y="646" type="curve"/>
      <point x="709" y="646"/>
      <point x="836" y="561"/>
      <point x="836" y="360" type="curve"/>
      <point x="836" y="188"/>
      <point x="760" y="44"/>
      <point x="678" y="44" type="curve"/>
      <point x="628" y="44"/>
      <point x="608" y="101"/>
      <point x="624" y="164" type="curve" smooth="yes"/>
      <point x="707" y="492" type="line"/>
      <point x="657" y="492" type="line"/>
      <point x="619" y="389" type="line"/>
      <point x="583" y="221" type="line" smooth="yes"/>
      <point x="562" y="121"/>
      <point x="480" y="67"/>
      <point x="417" y="67" type="curve"/>
      <point x="355" y="67"/>
      <point x="316" y="99"/>
      <point x="316" y="185" type="curve"/>
      <point x="316" y="302"/>
      <point x="387" y="449"/>
      <point x="508" y="449" type="curve" smooth="yes"/>
      <point x="565" y="449"/>
      <point x="600" y="421"/>
      <point x="626" y="372" type="curve"/>
      <point x="641" y="424" type="line"/>
      <point x="610" y="471"/>
      <point x="569" y="500"/>
      <point x="508" y="500" type="curve"/>
      <point x="354" y="500"/>
      <point x="254" y="338"/>
      <point x="254" y="178" type="curve"/>
      <point x="254" y="84"/>
      <point x="302" y="13"/>
      <point x="398" y="13" type="curve"/>
      <point x="471" y="13"/>
      <point x="547" y="63"/>
      <point x="583" y="131" type="curve"/>
      <point x="567" y="138" type="line"/>
      <point x="557" y="59"/>
      <point x="599" y="-8"/>
      <point x="677" y="-8" type="curve"/>
      <point x="786" y="-8"/>
      <point x="892" y="150"/>
      <point x="892" y="365" type="curve"/>
      <point x="892" y="592"/>
      <point x="737" y="698"/>
      <point x="553" y="698" type="curve"/>
      <point x="270" y="698"/>
      <point x="57" y="468"/>
    </contour>
  </outline>
</glyph>
<glyph name="B" format="2">
  <advance width="604"/>
  <unicode hex="0042"/>
  <outline>
    <contour>
      <point x="44" y="0" type="line"/>
      <point x="106" y="0" type="line"/>
      <point x="253" y="690" type="line"/>
      <point x="191" y="690" type="line"/>
    </contour>
    <contour>
      <point x="74" y="0" type="line"/>
      <point x="252" y="0" type="line" smooth="yes"/>
      <point x="413" y="0"/>
      <point x="523" y="93"/>
      <point x="523" y="216" type="curve"/>
      <point x="523" y="311"/>
      <point x="446" y="370"/>
      <point x="331" y="370" type="curve" smooth="yes"/>
      <point x="153" y="370" type="line"/>
      <point x="144" y="330" type="line"/>
      <point x="317" y="330" type="line" smooth="yes"/>
      <point x="406" y="330"/>
      <point x="459" y="285"/>
      <point x="459" y="211" type="curve"/>
      <point x="459" y="124"/>
      <point x="387" y="54"/>
      <point x="258" y="54" type="curve" smooth="yes"/>
      <point x="85" y="54" type="line"/>
    </contour>
    <contour>
      <point x="146" y="340" type="line"/>
      <point x="304" y="340" type="line" smooth="yes"/>
      <point x="459" y="340"/>
      <point x="567" y="430"/>
      <point x="567" y="539" type="curve"/>
      <point x="567" y="632"/>
      <point x="482" y="690"/>
      <point x="379" y="690" type="curve" smooth="yes"/>
      <point x="221" y="690" type="line"/>
      <point x="209" y="636" type="line"/>
      <point x="362" y="636" type="line" smooth="yes"/>
      <point x="449" y="636"/>
      <point x="501" y="601"/>
      <point x="501" y="531" type="curve"/>
      <point x="501" y="457"/>
      <point x="424" y="380"/>
      <point x="308" y="380" type="curve" smooth="yes"/>
      <point x="155" y="380" type="line"/>
    </contour>
  </outline>
</glyph>
<glyph name="C" format="1">
  <advance width="622.2950225730381"/>
  <unicode hex="0043"/>
  <outline>
    <contour>
      <point x="67" y="229" type="curve"/>
      <point x="67" y="76"/>
      <point x="159" y="-8"/>
      <point x="295" y="-8" type="curve"/>
      <point x="371" y="-8"/>
      <point x="452" y="23"/>
      <point x="521" y="88" type="curve"/>
      <point x="483" y="134" type="line"/>
      <point x="429" y="81"/>
      <point x="365" y="49"/>
      <point x="302" y="49" type="curve"/>
      <point x="195" y="49"/>
      <point x="132" y="115"/>
      <point x="132" y="236" type="curve"/>
      <point x="132" y="452"/>
      <point x="276" y="641"/>
      <point x="432" y="641" type="curve" smooth="yes"/>
      <point x="496" y="641"/>
      <point x="542" y="616"/>
      <point x="571" y="568" type="curve"/>
      <point x="625" y="602" type="line"/>
      <point x="579" y="667"/>
      <point x="521" y="698"/>
      <point x="439" y="698" type="curve" smooth="yes"/>
      <point x="244" y="698"/>
      <point x="67" y="482"/>
    </contour>
    <contour>
      <point x="434" y="690" type="move" name="top"/>
    </contour>
    <contour>
      <point x="287" y="0" type="move" name="bottom"/>
    </contour>
  </outline>
</glyph>
<glyph name="D" format="2">
	<advance width="674"/>
	<unicode hex="0044"/>
	<anchor x="365" y="690" name="top"/>
	<outline>
		<contour>
			<point x="44" y="0" type="line"/>
			<point x="106" y="0" type="line"/>
			<point x="253" y="690" type="line"/>
			<point x="191" y="690" type="line"/>
		</contour>
		<contour>
			<point x="74" y="0" type="line"/>
			<point x="218" y="0" type="line" smooth="yes"/>
			<point x="463" y="0"/>
			<point x="630" y="193"/>
			<point x="630" y="444" type="curve" smooth="yes"/>
			<point x="630" y="591"/>
			<point x="525" y="690"/>
			<point x="359" y="690" type="curve" smooth="yes"/>
			<point x="221" y="690" type="line"/>
			<point x="209" y="636" type="line"/>
			<point x="352" y="636" type="line" smooth="yes"/>
			<point x="488" y="636"/>
			<point x="565" y="562"/>
			<point x="565" y="434" type="curve" smooth="yes"/>
			<point x="565" y="227"/>
			<point x="421" y="54"/>
			<point x="225" y="54" type="curve" smooth="yes"/>
			<point x="85" y="54" type="line"/>
		</contour>
	</outline>
</glyph>
<glyph name="E" format="2">
  <advance width="586"/>
  <unicode hex="0045"/>
  <anchor x="397" y="690" name="top"/>
  <anchor x="245" y="0" name="bottom"/>
  <anchor x="404" y="0" name="ogonek"/>
  <outline>
    <contour>
      <point x="44" y="0" type="line"/>
      <point x="106" y="0" type="line"/>
      <point x="253" y="690" type="line"/>
      <point x="191" y="690" type="line"/>
    </contour>
    <contour>
      <point x="74" y="0" type="line"/>
      <point x="460" y="0" type="line"/>
      <point x="471" y="54" type="line"/>
      <point x="85" y="54" type="line"/>
    </contour>
    <contour>
      <point x="142" y="322" type="line"/>
      <point x="477" y="322" type="line"/>
      <point x="488" y="374" type="line"/>
      <point x="153" y="374" type="line"/>
    </contour>
    <contour>
      <point x="209" y="636" type="line"/>
      <point x="590" y="636" type="line"/>
      <point x="602" y="690" type="line"/>
      <point x="221" y="690" type="line"/>
    </contour>
  </outline>
</glyph>
<glyph name="F" format="2">
  <advance width="549"/>
  <unicode hex="0046"/>
  <outline>
    <contour>
      <point x="44" y="0" type="line"/>
      <point x="106" y="0" type="line"/>
      <point x="253" y="690" type="line"/>
      <point x="191" y="690" type="line"/>
    </contour>
    <contour>
      <point x="138" y="301" type="line"/>
      <point x="468" y="301" type="line"/>
      <point x="479" y="355" type="line"/>
      <point x="149" y="355" type="line"/>
    </contour>
    <contour>
      <point x="209" y="636" type="line"/>
      <point x="577" y="636" type="line"/>
      <point x="589" y="690" type="line"/>
      <point x="221" y="690" type="line"/>
    </contour>
  </outline>
</glyph>
<glyph name="H" format="1">
  <advance width="704.3359724476848"/>
  <unicode hex="0048"/>
  <outline>
    <contour>
      <point x="44" y="0" type="line"/>
      <point x="106" y="0" type="line"/>
      <point x="253" y="690" type="line"/>
      <point x="191" y="690" type="line"/>
    </contour>
    <contour>
      <point x="142" y="321" type="line"/>
      <point x="578" y="321" type="line"/>
      <point x="590" y="375" type="line"/>
      <point x="154" y="375" type="line"/>
    </contour>
    <contour>
      <point x="478" y="0" type="line"/>
      <point x="540" y="0" type="line"/>
      <point x="687" y="690" type="line"/>
      <point x="625" y="690" type="line"/>
    </contour>
    <contour>
      <point x="439" y="690" type="move" name="top"/>
    </contour>
  </outline>
</glyph>
<glyph name="J" format="2">
  <advance width="522"/>
  <unicode hex="004A"/>
  <anchor x="399" y="690" name="top"/>
  <outline>
    <contour>
      <point x="8" y="76" type="line"/>
      <point x="47" y="24"/>
      <point x="105" y="-8"/>
      <point x="176" y="-8" type="curve"/>
      <point x="287" y="-8"/>
      <point x="379" y="52"/>
      <point x="414" y="215" type="curve" smooth="yes"/>
      <point x="515" y="690" type="line"/>
      <point x="453" y="690" type="line"/>
      <point x="353" y="220" type="line" smooth="yes"/>
      <point x="327" y="97"/>
      <point x="261" y="49"/>
      <point x="181" y="49" type="curve"/>
      <point x="120" y="49"/>
      <point x="79" y="77"/>
      <point x="50" y="117" type="curve"/>
    </contour>
    <contour>
      <point x="262" y="640" type="line"/>
      <point x="478" y="640" type="line"/>
      <point x="489" y="690" type="line"/>
      <point x="273" y="690" type="line"/>
    </contour>
  </outline>
</glyph>
<glyph name="K" format="2">
  <advance width="598"/>
  <unicode hex="004B"/>
  <anchor x="281" y="0" name="bottom"/>
  <outline>
    <contour>
      <point x="44" y="0" type="line"/>
      <point x="106" y="0" type="line"/>
      <point x="253" y="690" type="line"/>
      <point x="191" y="690" type="line"/>
    </contour>
    <contour>
      <point x="146" y="216" type="line"/>
      <point x="645" y="690" type="line"/>
      <point x="562" y="690" type="line"/>
      <point x="163" y="302" type="line"/>
    </contour>
    <contour>
      <point x="277" y="350" type="line"/>
      <point x="447" y="0" type="line"/>
      <point x="515" y="0" type="line"/>
      <point x="319" y="392" type="line"/>
    </contour>
  </outline>
</glyph>
<glyph name="N" format="1">
  <advance width="709.3359724476848"/>
  <unicode hex="004E"/>
  <outline>
    <contour>
      <point x="44" y="0" type="line"/>
      <point x="106" y="0" type="line"/>
      <point x="253" y="690" type="line"/>
      <point x="191" y="690" type="line"/>
    </contour>
    <contour>
      <point x="209" y="690" type="line"/>
      <point x="465" y="0" type="line"/>
      <point x="527" y="0" type="line"/>
      <point x="271" y="690" type="line"/>
    </contour>
    <contour>
      <point x="483" y="0" type="line"/>
      <point x="545" y="0" type="line"/>
      <point x="692" y="690" type="line"/>
      <point x="630" y="690" type="line"/>
    </contour>
    <contour>
      <point x="443" y="690" type="move" name="top"/>
    </contour>
    <contour>
      <point x="289" y="0" type="move" name="bottom"/>
    </contour>
  </outline>
</glyph>
<glyph name="O" format="2">
	<advance width="697"/>
	<unicode hex="004F"/>
	<anchor x="442" y="690" name="top"/>
	<anchor x="286" y="0" name="bottom"/>
	<anchor x="340" y="0" name="ogonek"/>
	<outline>
		<contour>
			<point x="67" y="229" type="curve"/>
			<point x="67" y="76"/>
			<point x="159" y="-8"/>
			<point x="285" y="-8" type="curve"/>
			<point x="480" y="-8"/>
			<point x="657" y="208"/>
			<point x="657" y="461" type="curve"/>
			<point x="657" y="614"/>
			<point x="565" y="698"/>
			<point x="439" y="698" type="curve"/>
			<point x="244" y="698"/>
			<point x="67" y="482"/>
		</contour>
		<contour>
			<point x="132" y="236" type="curve"/>
			<point x="132" y="452"/>
			<point x="276" y="641"/>
			<point x="432" y="641" type="curve"/>
			<point x="529" y="641"/>
			<point x="592" y="575"/>
			<point x="592" y="454" type="curve"/>
			<point x="592" y="238"/>
			<point x="448" y="49"/>
			<point x="292" y="49" type="curve"/>
			<point x="195" y="49"/>
			<point x="132" y="115"/>
		</contour>
	</outline>
</glyph>
<glyph name="Q" format="1">
  <advance width="697"/>
  <unicode hex="0051"/>
  <outline>
    <contour>
      <point x="342" y="7" type="line"/>
      <point x="373" y="-97"/>
      <point x="456" y="-146"/>
      <point x="569" y="-150" type="curve"/>
      <point x="583" y="-87" type="line"/>
      <point x="494" y="-87"/>
      <point x="423" y="-58"/>
      <point x="397" y="29" type="curve"/>
    </contour>
    <contour>
      <point x="67" y="229" type="curve"/>
      <point x="67" y="76"/>
      <point x="159" y="-8"/>
      <point x="285" y="-8" type="curve"/>
      <point x="480" y="-8"/>
      <point x="657" y="208"/>
      <point x="657" y="461" type="curve"/>
      <point x="657" y="614"/>
      <point x="565" y="698"/>
      <point x="439" y="698" type="curve"/>
      <point x="244" y="698"/>
      <point x="67" y="482"/>
    </contour>
    <contour>
      <point x="132" y="236" type="curve"/>
      <point x="132" y="452"/>
      <point x="276" y="641"/>
      <point x="432" y="641" type="curve"/>
      <point x="529" y="641"/>
      <point x="592" y="575"/>
      <point x="592" y="454" type="curve"/>
      <point x="592" y="238"/>
      <point x="448" y="49"/>
      <point x="292" y="49" type="curve"/>
      <point x="195" y="49"/>
      <point x="132" y="115"/>
    </contour>
  </outline>
</glyph>
<glyph name="R" format="2">
	<advance width="617"/>
	<unicode hex="0052"/>
	<anchor x="370" y="690" name="top"/>
	<anchor x="265" y="0" name="bottom"/>
	<outline>
		<contour>
			<point x="44" y="0" type="line"/>
			<point x="106" y="0" type="line"/>
			<point x="253" y="690" type="line"/>
			<point x="191" y="690" type="line"/>
		</contour>
		<contour>
			<point x="132" y="275" type="line"/>
			<point x="291" y="275" type="line" smooth="yes"/>
			<point x="464" y="275"/>
			<point x="581" y="376"/>
			<point x="581" y="514" type="curve" smooth="yes"/>
			<point x="581" y="618"/>
			<point x="493" y="690"/>
			<point x="380" y="690" type="curve" smooth="yes"/>
			<point x="221" y="690" type="line"/>
			<point x="209" y="636" type="line"/>
			<point x="368" y="636" type="line" smooth="yes"/>
			<point x="460" y="636"/>
			<point x="516" y="589"/>
			<point x="516" y="508" type="curve" smooth="yes"/>
			<point x="516" y="404"/>
			<point x="434" y="329"/>
			<point x="298" y="329" type="curve" smooth="yes"/>
			<point x="144" y="329" type="line"/>
		</contour>
		<contour>
			<point x="314" y="290" type="line"/>
			<point x="439" y="0" type="line"/>
			<point x="505" y="0" type="line"/>
			<point x="376" y="290" type="line"/>
		</contour>
	</outline>
</glyph>
<glyph name="S" format="1">
  <advance width="582.979087803102"/>
  <unicode hex="0053"/>
  <outline>
    <contour>
      <point x="16" y="96" type="line"/>
      <point x="84" y="32"/>
      <point x="162" y="-8"/>
      <point x="261" y="-8" type="curve"/>
      <point x="411" y="-8"/>
      <point x="501" y="78"/>
      <point x="501" y="177" type="curve"/>
      <point x="501" y="254"/>
      <point x="459" y="318"/>
      <point x="314" y="392" type="curve" smooth="yes"/>
      <point x="213" y="443"/>
      <point x="186" y="481"/>
      <point x="186" y="531" type="curve"/>
      <point x="186" y="584"/>
      <point x="244" y="644"/>
      <point x="353" y="644" type="curve"/>
      <point x="423" y="644"/>
      <point x="478" y="618"/>
      <point x="519" y="578" type="curve"/>
      <point x="561" y="622" type="line"/>
      <point x="508" y="668"/>
      <point x="445" y="698"/>
      <point x="358" y="698" type="curve"/>
      <point x="209" y="698"/>
      <point x="125" y="615"/>
      <point x="125" y="524" type="curve"/>
      <point x="125" y="456"/>
      <point x="169" y="398"/>
      <point x="285" y="338" type="curve" smooth="yes"/>
      <point x="415" y="271"/>
      <point x="438" y="229"/>
      <point x="438" y="169" type="curve"/>
      <point x="438" y="108"/>
      <point x="376" y="46"/>
      <point x="268" y="46" type="curve"/>
      <point x="179" y="46"/>
      <point x="109" y="84"/>
      <point x="58" y="139" type="curve"/>
    </contour>
    <contour>
      <point x="359" y="690" type="move" name="top"/>
    </contour>
    <contour>
      <point x="254" y="0" type="move" name="bottom"/>
    </contour>
  </outline>
</glyph>
<glyph name="T" format="2">
  <advance width="560"/>
  <unicode hex="0054"/>
  <anchor x="367" y="690" name="top"/>
  <anchor x="220" y="0" name="bottom"/>
  <outline>
    <contour>
      <point x="108" y="636" type="line"/>
      <point x="602" y="636" type="line"/>
      <point x="614" y="690" type="line"/>
      <point x="120" y="690" type="line"/>
    </contour>
    <contour>
      <point x="189" y="0" type="line"/>
      <point x="251" y="0" type="line"/>
      <point x="398" y="690" type="line"/>
      <point x="336" y="690" type="line"/>
    </contour>
  </outline>
</glyph>
<glyph name="U" format="1">
  <advance width="680.3359724476848"/>
  <unicode hex="0055"/>
  <outline>
    <contour>
      <point x="80" y="187" type="curve" smooth="yes"/>
      <point x="80" y="68"/>
      <point x="162" y="-8"/>
      <point x="286" y="-8" type="curve"/>
      <point x="428" y="-8"/>
      <point x="542" y="73"/>
      <point x="577" y="240" type="curve" smooth="yes"/>
      <point x="673" y="690" type="line"/>
      <point x="611" y="690" type="line"/>
      <point x="517" y="250" type="line" smooth="yes"/>
      <point x="489" y="116"/>
      <point x="402" y="49"/>
      <point x="298" y="49" type="curve"/>
      <point x="202" y="49"/>
      <point x="142" y="96"/>
      <point x="142" y="191" type="curve" smooth="yes"/>
      <point x="142" y="209"/>
      <point x="145" y="232"/>
      <point x="150" y="254" type="curve" smooth="yes"/>
      <point x="243" y="690" type="line"/>
      <point x="181" y="690" type="line"/>
      <point x="88" y="254" type="line" smooth="yes"/>
      <point x="83" y="232"/>
      <point x="80" y="206"/>
    </contour>
    <contour>
      <point x="422" y="690" type="move" name="top"/>
    </contour>
    <contour>
      <point x="288" y="0" type="move" name="bottom"/>
    </contour>
    <contour>
      <point x="347" y="0" type="move" name="ogonek"/>
    </contour>
  </outline>
</glyph>
<glyph name="V" format="2">
	<advance width="575"/>
	<unicode hex="0056"/>
	<outline>
		<contour>
			<point x="105" y="690" type="line"/>
			<point x="203" y="0" type="line"/>
			<point x="244" y="0" type="line"/>
			<point x="252" y="45" type="line"/>
			<point x="167" y="690" type="line"/>
		</contour>
		<contour>
			<point x="212" y="0" type="line"/>
			<point x="252" y="0" type="line"/>
			<point x="644" y="690" type="line"/>
			<point x="578" y="690" type="line"/>
			<point x="217" y="45" type="line"/>
		</contour>
	</outline>
</glyph>
<glyph name="W" format="1">
  <advance width="870"/>
  <unicode hex="0057"/>
  <outline>
    <contour>
      <point x="105" y="690" type="line"/>
      <point x="158" y="0" type="line"/>
      <point x="199" y="0" type="line"/>
      <point x="208" y="51" type="line"/>
      <point x="166" y="690" type="line"/>
    </contour>
    <contour>
      <point x="167" y="0" type="line"/>
      <point x="207" y="0" type="line"/>
      <point x="520" y="614" type="line"/>
      <point x="532" y="690" type="line"/>
      <point x="497" y="690" type="line"/>
      <point x="172" y="51" type="line"/>
    </contour>
    <contour>
      <point x="496" y="614" type="line"/>
      <point x="543" y="0" type="line"/>
      <point x="584" y="0" type="line"/>
      <point x="593" y="51" type="line"/>
      <point x="547" y="690" type="line"/>
      <point x="509" y="690" type="line"/>
    </contour>
    <contour>
      <point x="552" y="0" type="line"/>
      <point x="592" y="0" type="line"/>
      <point x="939" y="690" type="line"/>
      <point x="875" y="690" type="line"/>
      <point x="558" y="51" type="line"/>
    </contour>
    <contour>
      <point x="510" y="690" type="move" name="top"/>
    </contour>
  </outline>
</glyph>
<glyph name="X" format="2">
	<advance width="593"/>
	<unicode hex="0058"/>
	<outline>
		<contour>
			<point x="-18" y="0" type="line"/>
			<point x="56" y="0" type="line"/>
			<point x="313" y="314" type="line"/>
			<point x="334" y="338" type="line"/>
			<point x="628" y="690" type="line"/>
			<point x="554" y="690" type="line"/>
			<point x="309" y="390" type="line"/>
			<point x="289" y="367" type="line"/>
		</contour>
		<contour>
			<point x="139" y="690" type="line"/>
			<point x="291" y="328" type="line"/>
			<point x="426" y="0" type="line"/>
			<point x="491" y="0" type="line"/>
			<point x="333" y="376" type="line"/>
			<point x="204" y="690" type="line"/>
		</contour>
	</outline>
</glyph>
<glyph name="Y" format="1">
  <advance width="562.3359724476848"/>
  <unicode hex="0059"/>
  <outline>
    <contour>
      <point x="97" y="690" type="line"/>
      <point x="255" y="280" type="line"/>
      <point x="293" y="280" type="line"/>
      <point x="299" y="321" type="line"/>
      <point x="163" y="690" type="line"/>
    </contour>
    <contour>
      <point x="190" y="0" type="line"/>
      <point x="252" y="0" type="line"/>
      <point x="318" y="310" type="line"/>
      <point x="256" y="310" type="line"/>
    </contour>
    <contour>
      <point x="270" y="280" type="line"/>
      <point x="307" y="280" type="line"/>
      <point x="639" y="690" type="line"/>
      <point x="569" y="690" type="line"/>
      <point x="276" y="321" type="line"/>
    </contour>
    <contour>
      <point x="363" y="690" type="move" name="top"/>
    </contour>
  </outline>
</glyph>
<glyph name="bracketleft" format="2">
  <advance width="291"/>
  <unicode hex="005B"/>
  <outline>
    <contour>
      <point x="-4" y="-225" type="line"/>
      <point x="52" y="-225" type="line"/>
      <point x="262" y="760" type="line"/>
      <point x="206" y="760" type="line"/>
    </contour>
    <contour>
      <point x="22" y="-225" type="line"/>
      <point x="197" y="-225" type="line"/>
      <point x="208" y="-175" type="line"/>
      <point x="33" y="-175" type="line"/>
    </contour>
    <contour>
      <point x="221" y="710" type="line"/>
      <point x="396" y="710" type="line"/>
      <point x="407" y="760" type="line"/>
      <point x="232" y="760" type="line"/>
    </contour>
  </outline>
</glyph>
<glyph name="backslash" format="2">
	<advance width="303"/>
	<unicode hex="005C"/>
	<outline>
		<contour>
			<point x="93" y="720" type="line"/>
			<point x="184" y="-30" type="line"/>
			<point x="237" y="-30" type="line"/>
			<point x="146" y="720" type="line"/>
		</contour>
	</outline>
</glyph>
<glyph name="asciicircum" format="2">
  <advance width="600"/>
  <unicode hex="005E"/>
  <outline>
    <contour>
      <point x="73.0" y="290" type="line"/>
      <point x="140.0" y="290" type="line"/>
      <point x="397.0" y="652" type="line"/>
      <point x="400.0" y="690" type="line"/>
      <point x="362.0" y="690" type="line"/>
    </contour>
    <contour>
      <point x="368.0" y="690" type="line"/>
      <point x="370.0" y="654" type="line"/>
      <point x="472.0" y="290" type="line"/>
      <point x="530.0" y="290" type="line"/>
      <point x="414.0" y="690" type="line"/>
    </contour>
  </outline>
</glyph>
<glyph name="underscore" format="2">
  <advance width="402"/>
  <unicode hex="005F"/>
  <outline>
    <contour>
      <point x="-71" y="-50" type="line"/>
      <point x="331" y="-50" type="line"/>
      <point x="342" y="0" type="line"/>
      <point x="-60" y="0" type="line"/>
    </contour>
  </outline>
</glyph>
<glyph name="grave" format="2">
  <advance width="600"/>
  <unicode hex="0060"/>
  <note>
grave
</note>
  <anchor x="348" y="510" name="_top"/>
  <outline>
    <contour>
      <point x="258" y="735" type="line"/>
      <point x="340" y="585" type="line"/>
      <point x="388" y="585" type="line"/>
      <point x="326" y="735" type="line"/>
    </contour>
  </outline>
</glyph>
<glyph name="b" format="2">
	<advance width="553"/>
	<unicode hex="0062"/>
	<anchor x="250" y="0" name="top"/>
	<anchor x="358" y="510" name="bottom"/>
	<outline>
		<contour>
			<point x="31" y="0" type="line"/>
			<point x="83" y="0" type="line"/>
			<point x="106" y="71" type="line"/>
			<point x="150" y="278" type="line" smooth="yes"/>
			<point x="175" y="398"/>
			<point x="265" y="465"/>
			<point x="337" y="465" type="curve"/>
			<point x="396" y="465"/>
			<point x="439" y="422"/>
			<point x="439" y="334" type="curve"/>
			<point x="439" y="173"/>
			<point x="337" y="44"/>
			<point x="238" y="44" type="curve"/>
			<point x="189" y="44"/>
			<point x="146" y="62"/>
			<point x="105" y="107" type="curve"/>
			<point x="95" y="55" type="line"/>
			<point x="135" y="11"/>
			<point x="185" y="-8"/>
			<point x="233" y="-8" type="curve"/>
			<point x="367" y="-8"/>
			<point x="500" y="142"/>
			<point x="500" y="340" type="curve"/>
			<point x="500" y="458"/>
			<point x="432" y="518"/>
			<point x="353" y="518" type="curve"/>
			<point x="281" y="518"/>
			<point x="209" y="473"/>
			<point x="167" y="402" type="curve"/>
			<point x="175" y="397" type="line"/>
			<point x="247" y="731" type="line"/>
			<point x="184" y="717" type="line"/>
		</contour>
	</outline>
</glyph>
<glyph name="g" format="1">
  <advance width="541.7488687665996"/>
  <unicode hex="0067"/>
  <outline>
    <contour>
      <point x="-10" y="-148" type="line"/>
      <point x="34" y="-174"/>
      <point x="92" y="-193"/>
      <point x="154" y="-193" type="curve"/>
      <point x="278" y="-193"/>
      <point x="375" y="-129"/>
      <point x="407" y="20" type="curve" smooth="yes"/>
      <point x="511" y="510" type="line"/>
      <point x="459" y="510" type="line"/>
      <point x="436" y="439" type="line"/>
      <point x="392" y="232" type="line" smooth="yes"/>
      <point x="367" y="112"/>
      <point x="277" y="45"/>
      <point x="205" y="45" type="curve"/>
      <point x="146" y="45"/>
      <point x="103" y="88"/>
      <point x="103" y="176" type="curve"/>
      <point x="103" y="337"/>
      <point x="205" y="466"/>
      <point x="304" y="466" type="curve"/>
      <point x="353" y="466"/>
      <point x="396" y="448"/>
      <point x="437" y="403" type="curve"/>
      <point x="447" y="455" type="line"/>
      <point x="407" y="499"/>
      <point x="357" y="518"/>
      <point x="309" y="518" type="curve"/>
      <point x="175" y="518"/>
      <point x="42" y="368"/>
      <point x="42" y="170" type="curve"/>
      <point x="42" y="52"/>
      <point x="110" y="-8"/>
      <point x="189" y="-8" type="curve"/>
      <point x="261" y="-8"/>
      <point x="333" y="37"/>
      <point x="375" y="108" type="curve"/>
      <point x="367" y="113" type="line"/>
      <point x="348" y="25" type="line" smooth="yes"/>
      <point x="323" y="-93"/>
      <point x="244" y="-139"/>
      <point x="160" y="-139" type="curve"/>
      <point x="105" y="-139"/>
      <point x="54" y="-122"/>
      <point x="18" y="-99" type="curve"/>
    </contour>
    <contour>
      <point x="323" y="510" type="move" name="top"/>
    </contour>
  </outline>
</glyph>
<glyph name="h" format="2">
	<advance width="562"/>
	<unicode hex="0068"/>
	<anchor x="212" y="720" name="top"/>
	<outline>
		<contour>
			<point x="31" y="0" type="line"/>
			<point x="91" y="0" type="line"/>
			<point x="150" y="278" type="line" smooth="yes"/>
			<point x="175" y="398"/>
			<point x="265" y="465"/>
			<point x="337" y="465" type="curve"/>
			<point x="396" y="465"/>
			<point x="433" y="432"/>
			<point x="433" y="364" type="curve" smooth="yes"/>
			<point x="433" y="348"/>
			<point x="431" y="331"/>
			<point x="427" y="312" type="curve" smooth="yes"/>
			<point x="361" y="0" type="line"/>
			<point x="421" y="0" type="line"/>
			<point x="488" y="314" type="line" smooth="yes"/>
			<point x="492" y="333"/>
			<point x="494" y="353"/>
			<point x="494" y="370" type="curve" smooth="yes"/>
			<point x="494" y="463"/>
			<point x="430" y="518"/>
			<point x="355" y="518" type="curve"/>
			<point x="284" y="518"/>
			<point x="210" y="473"/>
			<point x="168" y="402" type="curve"/>
			<point x="175" y="397" type="line"/>
			<point x="246" y="731" type="line"/>
			<point x="183" y="717" type="line"/>
		</contour>
	</outline>
</glyph>
<glyph name="i" format="2">
  <advance width="248"/>
  <unicode hex="0069"/>
  <anchor x="64" y="0" name="bottom"/>
  <anchor x="34" y="0" name="ogonek"/>
  <outline>
    <contour>
      <point x="34" y="0" type="line"/>
      <point x="94" y="0" type="line"/>
      <point x="202" y="510" type="line"/>
      <point x="142" y="510" type="line"/>
    </contour>
    <contour>
      <point x="166" y="676" type="curve"/>
      <point x="166" y="655"/>
      <point x="179" y="639"/>
      <point x="202" y="639" type="curve"/>
      <point x="230" y="639"/>
      <point x="253" y="664"/>
      <point x="253" y="691" type="curve"/>
      <point x="253" y="712"/>
      <point x="240" y="728"/>
      <point x="217" y="728" type="curve"/>
      <point x="189" y="728"/>
      <point x="166" y="703"/>
    </contour>
  </outline>
</glyph>
<glyph name="j" format="2">
	<advance width="248"/>
	<unicode hex="006A"/>
	<outline>
		<contour>
			<point x="-148" y="-173" type="line"/>
			<point x="-128" y="-184"/>
			<point x="-100" y="-193"/>
			<point x="-71" y="-193" type="curve"/>
			<point x="6" y="-193"/>
			<point x="63" y="-147"/>
			<point x="84" y="-48" type="curve" smooth="yes"/>
			<point x="202" y="510" type="line"/>
			<point x="142" y="510" type="line"/>
			<point x="24" y="-47" type="line" smooth="yes"/>
			<point x="9" y="-116"/>
			<point x="-25" y="-140"/>
			<point x="-71" y="-140" type="curve"/>
			<point x="-90" y="-140"/>
			<point x="-111" y="-134"/>
			<point x="-126" y="-127" type="curve"/>
		</contour>
		<contour>
			<point x="166" y="676" type="curve"/>
			<point x="166" y="655"/>
			<point x="179" y="639"/>
			<point x="202" y="639" type="curve"/>
			<point x="230" y="639"/>
			<point x="253" y="664"/>
			<point x="253" y="691" type="curve"/>
			<point x="253" y="712"/>
			<point x="240" y="728"/>
			<point x="217" y="728" type="curve"/>
			<point x="189" y="728"/>
			<point x="166" y="703"/>
		</contour>
	</outline>
</glyph>
<glyph name="l" format="1">
  <advance width="244"/>
  <unicode hex="006C"/>
  <outline>
    <contour>
      <point x="32" y="0" type="line"/>
      <point x="92" y="0" type="line"/>
      <point x="247" y="731" type="line"/>
      <point x="184" y="717" type="line"/>
    </contour>
    <contour>
      <point x="215.0" y="720.0" type="move" name="top"/>
    </contour>
    <contour>
      <point x="62.0" y="0.0" type="move" name="bottom"/>
    </contour>
    <contour>
      <point x="337.0" y="720.0" type="move" name="caron.alt"/>
    </contour>
  </outline>
</glyph>
<glyph name="m" format="1">
  <advance width="845.257239635613"/>
  <unicode hex="006D"/>
  <outline>
    <contour>
      <point x="34" y="0" type="line"/>
      <point x="94" y="0" type="line"/>
      <point x="153" y="278" type="line" smooth="yes"/>
      <point x="178" y="394"/>
      <point x="259" y="465"/>
      <point x="329" y="465" type="curve"/>
      <point x="384" y="465"/>
      <point x="411" y="432"/>
      <point x="411" y="364" type="curve" smooth="yes"/>
      <point x="411" y="348"/>
      <point x="409" y="331"/>
      <point x="405" y="312" type="curve" smooth="yes"/>
      <point x="339" y="0" type="line"/>
      <point x="399" y="0" type="line"/>
      <point x="458" y="278" type="line" smooth="yes"/>
      <point x="483" y="394"/>
      <point x="564" y="465"/>
      <point x="633" y="465" type="curve"/>
      <point x="689" y="465"/>
      <point x="716" y="432"/>
      <point x="716" y="364" type="curve" smooth="yes"/>
      <point x="716" y="348"/>
      <point x="714" y="331"/>
      <point x="710" y="312" type="curve" smooth="yes"/>
      <point x="644" y="0" type="line"/>
      <point x="704" y="0" type="line"/>
      <point x="771" y="314" type="line" smooth="yes"/>
      <point x="775" y="333"/>
      <point x="777" y="353"/>
      <point x="777" y="370" type="curve" smooth="yes"/>
      <point x="777" y="463"/>
      <point x="724" y="518"/>
      <point x="648" y="518" type="curve"/>
      <point x="573" y="518"/>
      <point x="492" y="462"/>
      <point x="458" y="376" type="curve"/>
      <point x="472" y="370" type="line"/>
      <point x="472" y="463"/>
      <point x="419" y="518"/>
      <point x="347" y="518" type="curve"/>
      <point x="278" y="518"/>
      <point x="209" y="473"/>
      <point x="170" y="402" type="curve"/>
      <point x="179" y="397" type="line"/>
      <point x="183" y="510" type="line"/>
      <point x="127" y="510" type="line"/>
      <point x="127" y="485" type="line" smooth="yes"/>
      <point x="127" y="452"/>
      <point x="123" y="421"/>
      <point x="116" y="388" type="curve" smooth="yes"/>
    </contour>
  </outline>
</glyph>
<glyph name="n" format="1">
  <advance width="565"/>
  <unicode hex="006E"/>
  <outline>
    <contour>
      <point x="34" y="0" type="line"/>
      <point x="94" y="0" type="line"/>
      <point x="153" y="278" type="line" smooth="yes"/>
      <point x="178" y="398"/>
      <point x="268" y="465"/>
      <point x="340" y="465" type="curve"/>
      <point x="399" y="465"/>
      <point x="436" y="432"/>
      <point x="436" y="364" type="curve" smooth="yes"/>
      <point x="436" y="348"/>
      <point x="434" y="331"/>
      <point x="430" y="312" type="curve" smooth="yes"/>
      <point x="364" y="0" type="line"/>
      <point x="424" y="0" type="line"/>
      <point x="491" y="314" type="line" smooth="yes"/>
      <point x="495" y="333"/>
      <point x="497" y="353"/>
      <point x="497" y="370" type="curve" smooth="yes"/>
      <point x="497" y="463"/>
      <point x="433" y="518"/>
      <point x="358" y="518" type="curve"/>
      <point x="287" y="518"/>
      <point x="212" y="473"/>
      <point x="170" y="402" type="curve"/>
      <point x="179" y="397" type="line"/>
      <point x="183" y="510" type="line"/>
      <point x="127" y="510" type="line"/>
      <point x="127" y="485" type="line" smooth="yes"/>
      <point x="127" y="452"/>
      <point x="123" y="421"/>
      <point x="116" y="388" type="curve" smooth="yes"/>
    </contour>
    <contour>
      <point x="342" y="510" type="move" name="top"/>
    </contour>
    <contour>
      <point x="237" y="0" type="move" name="bottom"/>
    </contour>
  </outline>
</glyph>
<glyph name="o" format="2">
	<advance width="533"/>
	<unicode hex="006F"/>
	<anchor x="205" y="0" name="bottom"/>
	<anchor x="317" y="510" name="top"/>
	<anchor x="256" y="0" name="ogonek"/>
	<outline>
		<contour>
			<point x="41" y="166" type="curve"/>
			<point x="41" y="55"/>
			<point x="105" y="-8"/>
			<point x="202" y="-8" type="curve"/>
			<point x="361" y="-8"/>
			<point x="481" y="159"/>
			<point x="481" y="344" type="curve"/>
			<point x="481" y="455"/>
			<point x="417" y="518"/>
			<point x="320" y="518" type="curve"/>
			<point x="161" y="518"/>
			<point x="41" y="351"/>
		</contour>
		<contour>
			<point x="101" y="176" type="curve"/>
			<point x="101" y="319"/>
			<point x="193" y="463"/>
			<point x="315" y="463" type="curve"/>
			<point x="381" y="463"/>
			<point x="421" y="421"/>
			<point x="421" y="334" type="curve"/>
			<point x="421" y="191"/>
			<point x="329" y="47"/>
			<point x="207" y="47" type="curve"/>
			<point x="141" y="47"/>
			<point x="101" y="89"/>
		</contour>
	</outline>
</glyph>
<glyph name="p" format="1">
  <advance width="556"/>
  <unicode hex="0070"/>
  <outline>
    <contour>
      <point x="-8" y="-196" type="line"/>
      <point x="55" y="-182" type="line"/>
      <point x="153" y="278" type="line" smooth="yes"/>
      <point x="179" y="398"/>
      <point x="268" y="465"/>
      <point x="340" y="465" type="curve"/>
      <point x="399" y="465"/>
      <point x="442" y="422"/>
      <point x="442" y="334" type="curve"/>
      <point x="442" y="173"/>
      <point x="340" y="44"/>
      <point x="241" y="44" type="curve"/>
      <point x="192" y="44"/>
      <point x="149" y="62"/>
      <point x="108" y="107" type="curve"/>
      <point x="98" y="55" type="line"/>
      <point x="138" y="11"/>
      <point x="188" y="-8"/>
      <point x="236" y="-8" type="curve"/>
      <point x="370" y="-8"/>
      <point x="503" y="142"/>
      <point x="503" y="340" type="curve"/>
      <point x="503" y="458"/>
      <point x="435" y="518"/>
      <point x="356" y="518" type="curve"/>
      <point x="284" y="518"/>
      <point x="212" y="473"/>
      <point x="170" y="402" type="curve"/>
      <point x="179" y="397" type="line"/>
      <point x="183" y="510" type="line"/>
      <point x="127" y="510" type="line"/>
      <point x="127" y="485" type="line" smooth="yes"/>
      <point x="127" y="452"/>
      <point x="123" y="421"/>
      <point x="116" y="388" type="curve" smooth="yes"/>
    </contour>
  </outline>
</glyph>
<glyph name="q" format="2">
	<advance width="542"/>
	<unicode hex="0071"/>
	<outline>
		<contour>
			<point x="42" y="170" type="curve"/>
			<point x="42" y="52"/>
			<point x="110" y="-8"/>
			<point x="189" y="-8" type="curve"/>
			<point x="261" y="-8"/>
			<point x="333" y="37"/>
			<point x="375" y="108" type="curve"/>
			<point x="367" y="113" type="line"/>
			<point x="301" y="-196" type="line"/>
			<point x="364" y="-182" type="line"/>
			<point x="511" y="510" type="line"/>
			<point x="459" y="510" type="line"/>
			<point x="436" y="439" type="line"/>
			<point x="392" y="232" type="line" smooth="yes"/>
			<point x="367" y="112"/>
			<point x="277" y="45"/>
			<point x="205" y="45" type="curve"/>
			<point x="146" y="45"/>
			<point x="103" y="88"/>
			<point x="103" y="176" type="curve"/>
			<point x="103" y="337"/>
			<point x="205" y="466"/>
			<point x="304" y="466" type="curve"/>
			<point x="353" y="466"/>
			<point x="396" y="448"/>
			<point x="437" y="403" type="curve"/>
			<point x="447" y="455" type="line"/>
			<point x="407" y="499"/>
			<point x="357" y="518"/>
			<point x="309" y="518" type="curve"/>
			<point x="175" y="518"/>
			<point x="42" y="368"/>
		</contour>
	</outline>
</glyph>
<glyph name="r" format="2">
	<advance width="361"/>
	<unicode hex="0072"/>
	<anchor x="232" y="510" name="top"/>
	<anchor x="64" y="0" name="bottom"/>
	<outline>
		<contour>
			<point x="34" y="0" type="line"/>
			<point x="94" y="0" type="line"/>
			<point x="146" y="244" type="line" smooth="yes"/>
			<point x="183" y="418"/>
			<point x="258" y="456"/>
			<point x="363" y="456" type="curve"/>
			<point x="376" y="518" type="line"/>
			<point x="308" y="524"/>
			<point x="220" y="488"/>
			<point x="165" y="395" type="curve"/>
			<point x="178" y="380" type="line"/>
			<point x="183" y="510" type="line"/>
			<point x="127" y="510" type="line"/>
			<point x="127" y="485" type="line" smooth="yes"/>
			<point x="127" y="452"/>
			<point x="123" y="421"/>
			<point x="116" y="388" type="curve" smooth="yes"/>
		</contour>
	</outline>
</glyph>
<glyph name="t" format="1">
  <advance width="368"/>
  <unicode hex="0074"/>
  <outline>
    <contour>
      <point x="62" y="460" type="line"/>
      <point x="354" y="460" type="line"/>
      <point x="364" y="510" type="line"/>
      <point x="72" y="510" type="line"/>
    </contour>
    <contour>
      <point x="83" y="97" type="curve"/>
      <point x="83" y="32"/>
      <point x="126" y="-8"/>
      <point x="191" y="-8" type="curve"/>
      <point x="222" y="-8"/>
      <point x="257" y="2"/>
      <point x="281" y="16" type="curve"/>
      <point x="267" y="69" type="line"/>
      <point x="243" y="57"/>
      <point x="218" y="50"/>
      <point x="196" y="50" type="curve"/>
      <point x="164" y="50"/>
      <point x="143" y="65"/>
      <point x="143" y="103" type="curve"/>
      <point x="143" y="118"/>
      <point x="145" y="133"/>
      <point x="148" y="148" type="curve" smooth="yes"/>
      <point x="256" y="654" type="line"/>
      <point x="193" y="640" type="line"/>
      <point x="88" y="145" type="line" smooth="yes"/>
      <point x="85" y="130"/>
      <point x="83" y="113"/>
    </contour>
    <contour>
      <point x="165" y="1" type="move" name="bottom"/>
    </contour>
    <contour>
      <point x="461" y="720" type="move" name="caron.alt"/>
    </contour>
  </outline>
</glyph>
<glyph name="u" format="1">
  <advance width="566.0"/>
  <unicode hex="0075"/>
  <outline>
    <contour>
      <point x="57" y="140" type="curve" smooth="yes"/>
      <point x="57" y="47"/>
      <point x="121" y="-8"/>
      <point x="196" y="-8" type="curve"/>
      <point x="267" y="-8"/>
      <point x="342" y="37"/>
      <point x="384" y="108" type="curve"/>
      <point x="375" y="113" type="line"/>
      <point x="371" y="0" type="line"/>
      <point x="427" y="0" type="line"/>
      <point x="427" y="25" type="line" smooth="yes"/>
      <point x="427" y="58"/>
      <point x="431" y="89"/>
      <point x="438" y="122" type="curve" smooth="yes"/>
      <point x="520" y="510" type="line"/>
      <point x="460" y="510" type="line"/>
      <point x="401" y="232" type="line" smooth="yes"/>
      <point x="376" y="112"/>
      <point x="286" y="45"/>
      <point x="214" y="45" type="curve"/>
      <point x="155" y="45"/>
      <point x="118" y="78"/>
      <point x="118" y="146" type="curve" smooth="yes"/>
      <point x="118" y="162"/>
      <point x="120" y="179"/>
      <point x="124" y="198" type="curve" smooth="yes"/>
      <point x="190" y="510" type="line"/>
      <point x="130" y="510" type="line"/>
      <point x="63" y="196" type="line" smooth="yes"/>
      <point x="59" y="177"/>
      <point x="57" y="157"/>
    </contour>
    <contour>
      <point x="318" y="510" type="move" name="top"/>
    </contour>
    <contour>
      <point x="216" y="0" type="move" name="bottom"/>
    </contour>
    <contour>
      <point x="371" y="0" type="move" name="ogonek"/>
    </contour>
  </outline>
</glyph>
<glyph name="v" format="1">
  <advance width="455"/>
  <unicode hex="0076"/>
  <outline>
    <contour>
      <point x="55" y="510" type="line"/>
      <point x="137" y="0" type="line"/>
      <point x="180" y="0" type="line"/>
      <point x="186" y="38" type="line"/>
      <point x="116" y="510" type="line"/>
    </contour>
    <contour>
      <point x="148" y="0" type="line"/>
      <point x="186" y="0" type="line"/>
      <point x="483" y="510" type="line"/>
      <point x="417" y="510" type="line"/>
      <point x="150" y="38" type="line"/>
    </contour>
  </outline>
</glyph>
<glyph name="w" format="1">
  <advance width="700.5961535482887"/>
  <unicode hex="0077"/>
  <outline>
    <contour>
      <point x="60" y="510" type="line"/>
      <point x="109" y="0" type="line"/>
      <point x="153" y="0" type="line"/>
      <point x="159" y="31" type="line"/>
      <point x="121" y="510" type="line"/>
    </contour>
    <contour>
      <point x="121" y="0" type="line"/>
      <point x="159" y="0" type="line"/>
      <point x="387" y="427" type="line"/>
      <point x="402" y="510" type="line"/>
      <point x="370" y="510" type="line"/>
      <point x="122" y="31" type="line"/>
    </contour>
    <contour>
      <point x="371" y="427" type="line"/>
      <point x="415" y="0" type="line"/>
      <point x="459" y="0" type="line"/>
      <point x="464" y="31" type="line"/>
      <point x="419" y="510" type="line"/>
      <point x="386" y="510" type="line"/>
    </contour>
    <contour>
      <point x="427" y="0" type="line"/>
      <point x="464" y="0" type="line"/>
      <point x="730" y="510" type="line"/>
      <point x="666" y="510" type="line"/>
      <point x="427" y="31" type="line"/>
    </contour>
    <contour>
      <point x="390" y="510" type="move" name="top"/>
    </contour>
  </outline>
</glyph>
<glyph name="x" format="1">
  <advance width="492"/>
  <unicode hex="0078"/>
  <outline>
    <contour>
      <point x="-31" y="0" type="line"/>
      <point x="43" y="0" type="line"/>
      <point x="238" y="225" type="line"/>
      <point x="261" y="247" type="line"/>
      <point x="497" y="510" type="line"/>
      <point x="423" y="510" type="line"/>
      <point x="241" y="300" type="line"/>
      <point x="219" y="278" type="line"/>
    </contour>
    <contour>
      <point x="87" y="510" type="line"/>
      <point x="218" y="239" type="line"/>
      <point x="333" y="0" type="line"/>
      <point x="399" y="0" type="line"/>
      <point x="262" y="285" type="line"/>
      <point x="153" y="510" type="line"/>
    </contour>
  </outline>
</glyph>
<glyph name="y" format="2">
	<advance width="455"/>
	<unicode hex="0079"/>
	<anchor x="264" y="510" name="top"/>
	<outline>
		<contour>
			<point x="-91" y="-173" type="line"/>
			<point x="-70" y="-185"/>
			<point x="-41" y="-193"/>
			<point x="-17" y="-193" type="curve"/>
			<point x="43" y="-193"/>
			<point x="96" y="-160"/>
			<point x="156" y="-58" type="curve" smooth="yes"/>
			<point x="487" y="510" type="line"/>
			<point x="421" y="510" type="line"/>
			<point x="155" y="40" type="line"/>
			<point x="107" y="-40" type="line" smooth="yes"/>
			<point x="65" y="-111"/>
			<point x="30" y="-140"/>
			<point x="-12" y="-140" type="curve"/>
			<point x="-32" y="-140"/>
			<point x="-51" y="-134"/>
			<point x="-69" y="-125" type="curve"/>
		</contour>
		<contour>
			<point x="59" y="510" type="line"/>
			<point x="141" y="0" type="line"/>
			<point x="184" y="0" type="line"/>
			<point x="190" y="38" type="line"/>
			<point x="120" y="510" type="line"/>
		</contour>
	</outline>
</glyph>
<glyph name="z" format="1">
  <advance width="458"/>
  <unicode hex="007A"/>
  <outline>
    <contour>
      <point x="-13" y="0" type="line"/>
      <point x="350" y="0" type="line"/>
      <point x="361" y="50" type="line"/>
      <point x="13" y="50" type="line"/>
      <point x="-4" y="40" type="line"/>
    </contour>
    <contour>
      <point x="-4" y="40" type="line"/>
      <point x="36" y="0" type="line"/>
      <point x="442" y="470" type="line"/>
      <point x="401" y="510" type="line"/>
    </contour>
    <contour>
      <point x="93" y="460" type="line"/>
      <point x="423" y="460" type="line"/>
      <point x="442" y="470" type="line"/>
      <point x="450" y="510" type="line"/>
      <point x="103" y="510" type="line"/>
    </contour>
    <contour>
      <point x="276" y="510" type="move" name="top"/>
    </contour>
  </outline>
</glyph>
<glyph name="braceleft" format="2">
  <advance width="353"/>
  <unicode hex="007B"/>
  <outline>
    <contour>
      <point x="50" y="-114" type="curve" smooth="yes"/>
      <point x="50" y="-176"/>
      <point x="96" y="-218"/>
      <point x="184" y="-241" type="curve"/>
      <point x="206" y="-196" type="line"/>
      <point x="127" y="-172"/>
      <point x="105" y="-148"/>
      <point x="105" y="-109" type="curve" smooth="yes"/>
      <point x="105" y="-16"/>
      <point x="235" y="44"/>
      <point x="235" y="159" type="curve"/>
      <point x="235" y="213"/>
      <point x="201" y="246"/>
      <point x="144" y="266" type="curve"/>
      <point x="232" y="292"/>
      <point x="292" y="339"/>
      <point x="292" y="425" type="curve"/>
      <point x="292" y="486"/>
      <point x="252" y="536"/>
      <point x="252" y="593" type="curve" smooth="yes"/>
      <point x="252" y="667"/>
      <point x="314" y="706"/>
      <point x="403" y="730" type="curve"/>
      <point x="400" y="776" type="line"/>
      <point x="283" y="750"/>
      <point x="196" y="692"/>
      <point x="196" y="588" type="curve" smooth="yes"/>
      <point x="196" y="530"/>
      <point x="239" y="477"/>
      <point x="239" y="423" type="curve" smooth="yes"/>
      <point x="239" y="349"/>
      <point x="164" y="306"/>
      <point x="76" y="285" type="curve"/>
      <point x="68" y="251" type="line"/>
      <point x="131" y="234"/>
      <point x="183" y="207"/>
      <point x="183" y="153" type="curve" smooth="yes"/>
      <point x="183" y="69"/>
      <point x="50" y="-8"/>
    </contour>
  </outline>
</glyph>
<glyph name="bar" format="2">
  <advance width="264"/>
  <unicode hex="007C"/>
  <outline>
    <contour>
      <point x="-2" y="-215" type="line"/>
      <point x="54" y="-215" type="line"/>
      <point x="253" y="720" type="line"/>
      <point x="197" y="720" type="line"/>
    </contour>
  </outline>
</glyph>
<glyph name="braceright" format="2">
	<advance width="351"/>
	<unicode hex="007D"/>
	<outline>
		<contour>
			<point x="-54" y="-192" type="curve"/>
			<point x="-52" y="-238" type="line"/>
			<point x="67" y="-211"/>
			<point x="153" y="-154"/>
			<point x="152" y="-49" type="curve" smooth="yes"/>
			<point x="152" y="9"/>
			<point x="110" y="61"/>
			<point x="109" y="116" type="curve" smooth="yes"/>
			<point x="110" y="189"/>
			<point x="185" y="233"/>
			<point x="274" y="254" type="curve"/>
			<point x="281" y="288" type="line"/>
			<point x="219" y="305"/>
			<point x="166" y="332"/>
			<point x="166" y="385" type="curve" smooth="yes"/>
			<point x="166" y="469"/>
			<point x="298" y="546"/>
			<point x="298" y="653" type="curve" smooth="yes"/>
			<point x="298" y="715"/>
			<point x="252" y="757"/>
			<point x="165" y="780" type="curve"/>
			<point x="144" y="735" type="line"/>
			<point x="223" y="711"/>
			<point x="243" y="687"/>
			<point x="245" y="648" type="curve" smooth="yes"/>
			<point x="243" y="554"/>
			<point x="115" y="495"/>
			<point x="114" y="380" type="curve"/>
			<point x="114" y="326"/>
			<point x="149" y="293"/>
			<point x="204" y="272" type="curve"/>
			<point x="117" y="247"/>
			<point x="57" y="199"/>
			<point x="56" y="114" type="curve"/>
			<point x="56" y="53"/>
			<point x="98" y="3"/>
			<point x="98" y="-54" type="curve" smooth="yes"/>
			<point x="96" y="-129"/>
			<point x="34" y="-167"/>
		</contour>
	</outline>
</glyph>
<glyph name="asciitilde" format="2">
  <advance width="600"/>
  <unicode hex="007E"/>
  <outline>
    <contour>
      <point x="114.0" y="306" type="curve"/>
      <point x="161.0" y="306" type="line"/>
      <point x="187.0" y="382"/>
      <point x="216.0" y="409"/>
      <point x="243.0" y="409" type="curve" smooth="yes"/>
      <point x="297.0" y="409"/>
      <point x="313.0" y="301"/>
      <point x="392.0" y="301" type="curve" smooth="yes"/>
      <point x="456.0" y="301"/>
      <point x="500.0" y="355"/>
      <point x="528.0" y="451" type="curve"/>
      <point x="481.0" y="451" type="line"/>
      <point x="455.0" y="375"/>
      <point x="426.0" y="348"/>
      <point x="400.0" y="348" type="curve" smooth="yes"/>
      <point x="343.0" y="348"/>
      <point x="329.0" y="456"/>
      <point x="250.0" y="456" type="curve" smooth="yes"/>
      <point x="187.0" y="456"/>
      <point x="142.0" y="401"/>
    </contour>
  </outline>
</glyph>
<glyph name="exclamdown" format="1">
  <advance width="295.84024900451084"/>
  <unicode hex="00A1"/>
  <outline>
    <contour>
      <point x="18" y="-185" type="line"/>
      <point x="80" y="-185" type="line"/>
      <point x="120" y="0" type="line"/>
      <point x="181" y="330" type="line"/>
      <point x="137" y="330" type="line"/>
      <point x="58" y="0" type="line"/>
    </contour>
    <contour>
      <point x="145" y="466" type="curve" smooth="yes"/>
      <point x="145" y="445"/>
      <point x="158" y="429"/>
      <point x="181" y="429" type="curve" smooth="yes"/>
      <point x="209" y="429"/>
      <point x="232" y="454"/>
      <point x="232" y="481" type="curve" smooth="yes"/>
      <point x="232" y="502"/>
      <point x="219" y="518"/>
      <point x="196" y="518" type="curve" smooth="yes"/>
      <point x="168" y="518"/>
      <point x="145" y="493"/>
    </contour>
  </outline>
</glyph>
<glyph name="cent" format="2">
	<advance width="600"/>
	<unicode hex="00A2"/>
	<outline>
		<contour>
			<point x="107" y="206" type="curve" smooth="yes"/>
			<point x="107" y="95"/>
			<point x="171" y="32"/>
			<point x="266" y="32" type="curve"/>
			<point x="348" y="32"/>
			<point x="413" y="73"/>
			<point x="460" y="131" type="curve"/>
			<point x="422" y="166" type="line"/>
			<point x="383" y="118"/>
			<point x="329" y="87"/>
			<point x="271" y="87" type="curve" smooth="yes"/>
			<point x="207" y="87"/>
			<point x="167" y="129"/>
			<point x="167" y="216" type="curve" smooth="yes"/>
			<point x="167" y="359"/>
			<point x="260" y="503"/>
			<point x="379" y="503" type="curve" smooth="yes"/>
			<point x="425" y="503"/>
			<point x="454" y="484"/>
			<point x="475" y="443" type="curve"/>
			<point x="524" y="474" type="line"/>
			<point x="498" y="528"/>
			<point x="444" y="558"/>
			<point x="384" y="558" type="curve" smooth="yes"/>
			<point x="228" y="558"/>
			<point x="107" y="391"/>
		</contour>
		<contour>
			<point x="209" y="-100" type="line"/>
			<point x="265" y="-100" type="line"/>
			<point x="346" y="280" type="line"/>
			<point x="290" y="280" type="line"/>
		</contour>
		<contour>
			<point x="290" y="280" type="line"/>
			<point x="346" y="280" type="line"/>
			<point x="434" y="695" type="line"/>
			<point x="378" y="695" type="line"/>
		</contour>
	</outline>
</glyph>
<glyph name="sterling" format="2">
  <advance width="600"/>
  <unicode hex="00A3"/>
  <outline>
    <contour>
      <point x="10.0" y="0" type="line"/>
      <point x="470.0" y="0" type="line"/>
      <point x="482.0" y="56" type="line"/>
      <point x="22.0" y="56" type="line"/>
    </contour>
    <contour>
      <point x="12.0" y="10" type="line"/>
      <point x="166.0" y="64"/>
      <point x="246.0" y="186"/>
      <point x="246.0" y="291" type="curve"/>
      <point x="246.0" y="356"/>
      <point x="242.0" y="387"/>
      <point x="242.0" y="438" type="curve"/>
      <point x="242.0" y="559"/>
      <point x="313.0" y="641"/>
      <point x="413.0" y="641" type="curve"/>
      <point x="470.0" y="641"/>
      <point x="516.0" y="617"/>
      <point x="540.0" y="571" type="curve"/>
      <point x="594.0" y="603" type="line"/>
      <point x="564.0" y="665"/>
      <point x="497.0" y="698"/>
      <point x="418.0" y="698" type="curve"/>
      <point x="283.0" y="698"/>
      <point x="181.0" y="603"/>
      <point x="181.0" y="441" type="curve"/>
      <point x="181.0" y="387"/>
      <point x="186.0" y="354"/>
      <point x="186.0" y="319" type="curve" smooth="yes"/>
      <point x="186.0" y="249"/>
      <point x="160.0" y="129"/>
      <point x="23.0" y="60" type="curve"/>
    </contour>
    <contour>
      <point x="75.0" y="306" type="line"/>
      <point x="435.0" y="306" type="line"/>
      <point x="447.0" y="360" type="line"/>
      <point x="87.0" y="360" type="line"/>
    </contour>
  </outline>
</glyph>
<glyph name="currency" format="2">
  <advance width="600"/>
  <unicode hex="00A4"/>
  <outline>
    <contour>
      <point x="9.0" y="129" type="line"/>
      <point x="45.0" y="84" type="line"/>
      <point x="148.0" y="169" type="line"/>
      <point x="112.0" y="214" type="line"/>
    </contour>
    <contour>
      <point x="87.0" y="284" type="curve" smooth="yes"/>
      <point x="87.0" y="171"/>
      <point x="156.0" y="110"/>
      <point x="272.0" y="110" type="curve" smooth="yes"/>
      <point x="420.0" y="110"/>
      <point x="540.0" y="237"/>
      <point x="541.0" y="406" type="curve" smooth="yes"/>
      <point x="542.0" y="519"/>
      <point x="472.0" y="580"/>
      <point x="355.0" y="580" type="curve" smooth="yes"/>
      <point x="208.0" y="580"/>
      <point x="87.0" y="453"/>
    </contour>
    <contour>
      <point x="104.0" y="563" type="line"/>
      <point x="171.0" y="478" type="line"/>
      <point x="220.0" y="519" type="line"/>
      <point x="153.0" y="604" type="line"/>
    </contour>
    <contour>
      <point x="148.0" y="290" type="curve" smooth="yes"/>
      <point x="148.0" y="413"/>
      <point x="235.0" y="525"/>
      <point x="353.0" y="525" type="curve" smooth="yes"/>
      <point x="435.0" y="525"/>
      <point x="481.0" y="481"/>
      <point x="481.0" y="402" type="curve" smooth="yes"/>
      <point x="481.0" y="276"/>
      <point x="396.0" y="165"/>
      <point x="276.0" y="165" type="curve" smooth="yes"/>
      <point x="193.0" y="165"/>
      <point x="148.0" y="210"/>
    </contour>
    <contour>
      <point x="408.0" y="171" type="line"/>
      <point x="475.0" y="86" type="line"/>
      <point x="524.0" y="127" type="line"/>
      <point x="457.0" y="212" type="line"/>
    </contour>
    <contour>
      <point x="480.0" y="521" type="line"/>
      <point x="516.0" y="476" type="line"/>
      <point x="619.0" y="561" type="line"/>
      <point x="583.0" y="606" type="line"/>
    </contour>
  </outline>
</glyph>
<glyph name="yen" format="2">
  <advance width="600"/>
  <unicode hex="00A5"/>
  <outline>
    <contour>
      <point x="58.0" y="144" type="line"/>
      <point x="484.0" y="144" type="line"/>
      <point x="495.0" y="198" type="line"/>
      <point x="69.0" y="198" type="line"/>
    </contour>
    <contour>
      <point x="88.0" y="288" type="line"/>
      <point x="514.0" y="288" type="line"/>
      <point x="526.0" y="342" type="line"/>
      <point x="100.0" y="342" type="line"/>
    </contour>
    <contour>
      <point x="118.0" y="690" type="line"/>
      <point x="276.0" y="280" type="line"/>
      <point x="320.0" y="280" type="line"/>
      <point x="326.0" y="321" type="line"/>
      <point x="186.0" y="690" type="line"/>
    </contour>
    <contour>
      <point x="209.0" y="0" type="line"/>
      <point x="271.0" y="0" type="line"/>
      <point x="337.0" y="310" type="line"/>
      <point x="275.0" y="310" type="line"/>
    </contour>
    <contour>
      <point x="286.0" y="280" type="line"/>
      <point x="341.0" y="290" type="line"/>
      <point x="650.0" y="690" type="line"/>
      <point x="575.0" y="690" type="line"/>
      <point x="289.0" y="316" type="line"/>
    </contour>
  </outline>
</glyph>
<glyph name="brokenbar" format="2">
	<advance width="264"/>
	<unicode hex="00A6"/>
	<outline>
		<contour>
			<point x="-2" y="-215" type="line"/>
			<point x="54" y="-215" type="line"/>
			<point x="132" y="150" type="line"/>
			<point x="76" y="150" type="line"/>
		</contour>
		<contour>
			<point x="119" y="355" type="line"/>
			<point x="175" y="355" type="line"/>
			<point x="253" y="720" type="line"/>
			<point x="197" y="720" type="line"/>
		</contour>
	</outline>
</glyph>
<glyph name="section" format="2">
  <advance width="620"/>
  <unicode hex="00A7"/>
  <outline>
    <contour>
      <point x="-14.0" y="-117" type="line"/>
      <point x="27.0" y="-160"/>
      <point x="106.0" y="-193"/>
      <point x="199.0" y="-193" type="curve" smooth="yes"/>
      <point x="352.0" y="-193"/>
      <point x="438.0" y="-102"/>
      <point x="438.0" y="-16" type="curve" smooth="yes"/>
      <point x="438.0" y="63"/>
      <point x="399.0" y="102"/>
      <point x="274.0" y="148" type="curve" smooth="yes"/>
      <point x="154.0" y="192"/>
      <point x="118.0" y="226"/>
      <point x="118.0" y="284" type="curve" smooth="yes"/>
      <point x="118.0" y="338"/>
      <point x="168.0" y="398"/>
      <point x="266.0" y="414" type="curve"/>
      <point x="210.0" y="445" type="line"/>
      <point x="117.0" y="419"/>
      <point x="55.0" y="354"/>
      <point x="55.0" y="277" type="curve" smooth="yes"/>
      <point x="55.0" y="192"/>
      <point x="113.0" y="146"/>
      <point x="242.0" y="98" type="curve" smooth="yes"/>
      <point x="341.0" y="61"/>
      <point x="376.0" y="33"/>
      <point x="376.0" y="-17" type="curve" smooth="yes"/>
      <point x="376.0" y="-89"/>
      <point x="297.0" y="-139"/>
      <point x="201.0" y="-139" type="curve" smooth="yes"/>
      <point x="128.0" y="-139"/>
      <point x="61.0" y="-110"/>
      <point x="30.0" y="-75" type="curve"/>
    </contour>
    <contour>
      <point x="169.0" y="520" type="curve"/>
      <point x="169.0" y="442"/>
      <point x="213.0" y="398"/>
      <point x="330.0" y="353" type="curve" smooth="yes"/>
      <point x="450.0" y="307"/>
      <point x="491.0" y="274"/>
      <point x="491.0" y="224" type="curve" smooth="yes"/>
      <point x="491.0" y="162"/>
      <point x="439.0" y="108"/>
      <point x="341.0" y="92" type="curve"/>
      <point x="395.0" y="59" type="line"/>
      <point x="473.0" y="84"/>
      <point x="552.0" y="145"/>
      <point x="552.0" y="229" type="curve" smooth="yes"/>
      <point x="552.0" y="311"/>
      <point x="497.0" y="353"/>
      <point x="366.0" y="402" type="curve" smooth="yes"/>
      <point x="265.0" y="440"/>
      <point x="231.0" y="469"/>
      <point x="231.0" y="520" type="curve"/>
      <point x="231.0" y="592"/>
      <point x="310.0" y="644"/>
      <point x="414.0" y="644" type="curve" smooth="yes"/>
      <point x="469.0" y="644"/>
      <point x="540.0" y="623"/>
      <point x="572.0" y="585" type="curve"/>
      <point x="613.0" y="622" type="line"/>
      <point x="572.0" y="670"/>
      <point x="502.0" y="698"/>
      <point x="414.0" y="698" type="curve" smooth="yes"/>
      <point x="274.0" y="698"/>
      <point x="169.0" y="619"/>
    </contour>
  </outline>
</glyph>
<glyph name="dieresis" format="2">
	<advance width="600"/>
	<unicode hex="00A8"/>
	<note>
		dieresis
	</note>
	<outline>
		<contour>
			<point x="249" y="678" type="curve" smooth="yes"/>
			<point x="249" y="658"/>
			<point x="261" y="643"/>
			<point x="283" y="643" type="curve" smooth="yes"/>
			<point x="310" y="643"/>
			<point x="332" y="667"/>
			<point x="332" y="693" type="curve" smooth="yes"/>
			<point x="332" y="713"/>
			<point x="320" y="728"/>
			<point x="298" y="728" type="curve" smooth="yes"/>
			<point x="271" y="728"/>
			<point x="249" y="704"/>
		</contour>
		<contour>
			<point x="439" y="678" type="curve" smooth="yes"/>
			<point x="439" y="658"/>
			<point x="451" y="643"/>
			<point x="473" y="643" type="curve" smooth="yes"/>
			<point x="500" y="643"/>
			<point x="522" y="667"/>
			<point x="522" y="693" type="curve" smooth="yes"/>
			<point x="522" y="713"/>
			<point x="510" y="728"/>
			<point x="488" y="728" type="curve" smooth="yes"/>
			<point x="461" y="728"/>
			<point x="439" y="704"/>
		</contour>
	</outline>
</glyph>
<glyph name="logicalnot" format="2">
  <advance width="600"/>
  <unicode hex="00AC"/>
  <outline>
    <contour>
      <point x="75.0" y="263" type="line"/>
      <point x="517.0" y="263" type="line"/>
      <point x="528.0" y="317" type="line"/>
      <point x="86.0" y="317" type="line"/>
    </contour>
    <contour>
      <point x="420.0" y="70" type="line"/>
      <point x="476.0" y="70" type="line"/>
      <point x="528.0" y="317" type="line"/>
      <point x="472.0" y="317" type="line"/>
    </contour>
  </outline>
</glyph>
<glyph name="registered" format="1">
  <advance width="810"/>
  <unicode hex="00AE"/>
  <outline>
    <contour>
      <point x="418" y="-8" type="curve" smooth="yes"/>
      <point x="618" y="-8"/>
      <point x="773" y="145"/>
      <point x="773" y="345" type="curve" smooth="yes"/>
      <point x="773" y="545"/>
      <point x="618" y="698"/>
      <point x="418" y="698" type="curve" smooth="yes"/>
      <point x="218" y="698"/>
      <point x="63" y="545"/>
      <point x="63" y="345" type="curve" smooth="yes"/>
      <point x="63" y="145"/>
      <point x="218" y="-8"/>
    </contour>
    <contour>
      <point x="418" y="44" type="curve" smooth="yes"/>
      <point x="249" y="44"/>
      <point x="119" y="176"/>
      <point x="119" y="345" type="curve" smooth="yes"/>
      <point x="119" y="514"/>
      <point x="249" y="646"/>
      <point x="418" y="646" type="curve" smooth="yes"/>
      <point x="587" y="646"/>
      <point x="717" y="514"/>
      <point x="717" y="345" type="curve" smooth="yes"/>
      <point x="717" y="176"/>
      <point x="587" y="44"/>
    </contour>
    <contour>
      <point x="291" y="138" type="line"/>
      <point x="343" y="138" type="line"/>
      <point x="343" y="552" type="line"/>
      <point x="291" y="552" type="line"/>
    </contour>
    <contour>
      <point x="313" y="300" type="line"/>
      <point x="422" y="300" type="line" smooth="yes"/>
      <point x="497" y="300"/>
      <point x="559" y="344"/>
      <point x="559" y="426" type="curve" smooth="yes"/>
      <point x="559" y="507"/>
      <point x="497" y="552"/>
      <point x="422" y="552" type="curve" smooth="yes"/>
      <point x="313" y="552" type="line"/>
      <point x="313" y="502" type="line"/>
      <point x="418" y="502" type="line" smooth="yes"/>
      <point x="471" y="502"/>
      <point x="507" y="476"/>
      <point x="507" y="426" type="curve" smooth="yes"/>
      <point x="507" y="377"/>
      <point x="470" y="348"/>
      <point x="418" y="348" type="curve" smooth="yes"/>
      <point x="313" y="348" type="line"/>
    </contour>
    <contour>
      <point x="409" y="312" type="line"/>
      <point x="509" y="138" type="line"/>
      <point x="571" y="138" type="line"/>
      <point x="465" y="312" type="line"/>
    </contour>
  </outline>
</glyph>
<glyph name="macron" format="1">
  <advance width="600"/>
  <unicode hex="00AF"/>
  <note>
    macron
  </note>
  <outline>
    <contour>
      <point x="241" y="640" type="line"/>
      <point x="512" y="640" type="line"/>
      <point x="522" y="690" type="line"/>
      <point x="251" y="690" type="line"/>
    </contour>
    <contour>
      <point x="348" y="510" type="move" name="_top"/>
    </contour>
  </outline>
</glyph>
<glyph name="degree" format="2">
  <advance width="370"/>
  <unicode hex="00B0"/>
  <outline>
    <contour>
      <point x="107" y="542" type="curve"/>
      <point x="107" y="474"/>
      <point x="158" y="426"/>
      <point x="228" y="426" type="curve"/>
      <point x="315" y="426"/>
      <point x="382" y="493"/>
      <point x="382" y="584" type="curve"/>
      <point x="382" y="650"/>
      <point x="330" y="698"/>
      <point x="262" y="698" type="curve"/>
      <point x="174" y="698"/>
      <point x="107" y="633"/>
    </contour>
    <contour>
      <point x="158" y="546" type="curve"/>
      <point x="158" y="606"/>
      <point x="202" y="652"/>
      <point x="255" y="652" type="curve"/>
      <point x="303" y="652"/>
      <point x="331" y="623"/>
      <point x="331" y="579" type="curve"/>
      <point x="331" y="519"/>
      <point x="287" y="472"/>
      <point x="235" y="472" type="curve"/>
      <point x="186" y="472"/>
      <point x="158" y="502"/>
    </contour>
  </outline>
</glyph>
<glyph name="plusminus" format="2">
  <advance width="600"/>
  <unicode hex="00B1"/>
  <outline>
    <contour>
      <point x="34.0" y="70" type="line"/>
      <point x="476.0" y="70" type="line"/>
      <point x="487.0" y="124" type="line"/>
      <point x="45.0" y="124" type="line"/>
    </contour>
    <contour>
      <point x="79.0" y="283" type="line"/>
      <point x="521.0" y="283" type="line"/>
      <point x="533.0" y="337" type="line"/>
      <point x="91.0" y="337" type="line"/>
    </contour>
    <contour>
      <point x="227.0" y="70" type="line"/>
      <point x="283.0" y="70" type="line"/>
      <point x="376.0" y="510" type="line"/>
      <point x="320.0" y="510" type="line"/>
    </contour>
  </outline>
</glyph>
<glyph name="threesuperior" format="2">
	<advance width="440"/>
	<unicode hex="00B3"/>
	<outline>
		<contour>
			<point x="70" y="340" type="line"/>
			<point x="104" y="300"/>
			<point x="156" y="282"/>
			<point x="214" y="282" type="curve"/>
			<point x="305" y="282"/>
			<point x="386" y="331"/>
			<point x="386" y="421" type="curve"/>
			<point x="386" y="485"/>
			<point x="336" y="519"/>
			<point x="262" y="519" type="curve" smooth="yes"/>
			<point x="227" y="519" type="line"/>
			<point x="194" y="514" type="line"/>
			<point x="186" y="475" type="line"/>
			<point x="235" y="475" type="line" smooth="yes"/>
			<point x="294" y="475"/>
			<point x="331" y="457"/>
			<point x="331" y="416" type="curve"/>
			<point x="331" y="365"/>
			<point x="280" y="332"/>
			<point x="221" y="332" type="curve" smooth="yes"/>
			<point x="172" y="332"/>
			<point x="138" y="348"/>
			<point x="116" y="378" type="curve"/>
		</contour>
		<contour>
			<point x="152" y="640" type="line"/>
			<point x="374" y="640" type="line"/>
			<point x="416" y="650" type="line"/>
			<point x="425" y="690" type="line"/>
			<point x="163" y="690" type="line"/>
		</contour>
		<contour>
			<point x="194" y="514" type="line"/>
			<point x="261" y="514" type="line"/>
			<point x="416" y="650" type="line"/>
			<point x="392" y="690" type="line"/>
		</contour>
	</outline>
</glyph>
<glyph name="paragraph" format="2">
	<advance width="646"/>
	<unicode hex="00B6"/>
	<outline>
		<contour>
			<point x="108" y="406" type="curve" smooth="yes"/>
			<point x="108" y="303"/>
			<point x="189" y="224"/>
			<point x="301" y="224" type="curve"/>
			<point x="334" y="224" type="line"/>
			<point x="247" y="-185" type="line"/>
			<point x="303" y="-185" type="line"/>
			<point x="489" y="690" type="line"/>
			<point x="400" y="690" type="line"/>
			<point x="227" y="690"/>
			<point x="108" y="572"/>
		</contour>
		<contour>
			<point x="387" y="-185" type="line"/>
			<point x="443" y="-185" type="line"/>
			<point x="629" y="690" type="line"/>
			<point x="573" y="690" type="line"/>
		</contour>
	</outline>
</glyph>
<glyph name="cedilla" format="2">
	<advance width="600"/>
	<unicode hex="00B8"/>
	<anchor x="240" y="0" name="_bottom"/>
	<note>
		cedilla
	</note>
	<outline>
		<contour>
			<point x="130" y="-193" type="line"/>
			<point x="154" y="-193" type="line" smooth="yes"/>
			<point x="239" y="-193"/>
			<point x="294" y="-168"/>
			<point x="294" y="-118" type="curve"/>
			<point x="294" y="-86"/>
			<point x="272" y="-68"/>
			<point x="236" y="-57" type="curve"/>
			<point x="263" y="9" type="line"/>
			<point x="226" y="15" type="line"/>
			<point x="183" y="-88" type="line"/>
			<point x="206" y="-91" type="line" smooth="yes"/>
			<point x="232" y="-94"/>
			<point x="243" y="-103"/>
			<point x="243" y="-118" type="curve"/>
			<point x="243" y="-136"/>
			<point x="221" y="-154"/>
			<point x="147" y="-154" type="curve"/>
		</contour>
	</outline>
</glyph>
<glyph name="onesuperior" format="2">
	<advance width="440"/>
	<unicode hex="00B9"/>
	<outline>
		<contour>
			<point x="96" y="290" type="line"/>
			<point x="372" y="290" type="line"/>
			<point x="382" y="338" type="line"/>
			<point x="106" y="338" type="line"/>
		</contour>
		<contour>
			<point x="151" y="624" type="line"/>
			<point x="161" y="578" type="line"/>
			<point x="315" y="642" type="line"/>
			<point x="309" y="690" type="line"/>
		</contour>
		<contour>
			<point x="206" y="290" type="line"/>
			<point x="262" y="290" type="line"/>
			<point x="347" y="690" type="line"/>
			<point x="309" y="690" type="line"/>
			<point x="279" y="637" type="line"/>
		</contour>
	</outline>
</glyph>
<glyph name="ordmasculine" format="2">
	<advance width="464"/>
	<unicode hex="00BA"/>
	<outline>
		<contour>
			<point x="95" y="439" type="curve" smooth="yes"/>
			<point x="95" y="331"/>
			<point x="162" y="279"/>
			<point x="245" y="279" type="curve" smooth="yes"/>
			<point x="371" y="279"/>
			<point x="456" y="406"/>
			<point x="456" y="537" type="curve" smooth="yes"/>
			<point x="456" y="649"/>
			<point x="388" y="697"/>
			<point x="310" y="697" type="curve" smooth="yes"/>
			<point x="180" y="697"/>
			<point x="95" y="570"/>
		</contour>
		<contour>
			<point x="155" y="445" type="curve" smooth="yes"/>
			<point x="155" y="535"/>
			<point x="214" y="646"/>
			<point x="311" y="646" type="curve" smooth="yes"/>
			<point x="355" y="646"/>
			<point x="397" y="611"/>
			<point x="397" y="532" type="curve" smooth="yes"/>
			<point x="397" y="438"/>
			<point x="337" y="330"/>
			<point x="246" y="330" type="curve" smooth="yes"/>
			<point x="199" y="330"/>
			<point x="155" y="369"/>
		</contour>
	</outline>
</glyph>
<glyph name="guillemetright" format="1">
  <advance width="478.3343889790739"/>
  <unicode hex="00BB"/>
  <outline>
    <contour>
      <point x="-3" y="78" type="line"/>
      <point x="66" y="78" type="line"/>
      <point x="240" y="247" type="line"/>
      <point x="247" y="276" type="line"/>
      <point x="196" y="269" type="line"/>
    </contour>
    <contour>
      <point x="80" y="453" type="line"/>
      <point x="196" y="256" type="line"/>
      <point x="240" y="247" type="line"/>
      <point x="247" y="276" type="line"/>
      <point x="145" y="453" type="line"/>
    </contour>
    <contour>
      <point x="177" y="78" type="line"/>
      <point x="246" y="78" type="line"/>
      <point x="420" y="247" type="line"/>
      <point x="427" y="276" type="line"/>
      <point x="376" y="269" type="line"/>
    </contour>
    <contour>
      <point x="260" y="453" type="line"/>
      <point x="376" y="256" type="line"/>
      <point x="420" y="247" type="line"/>
      <point x="427" y="276" type="line"/>
      <point x="325" y="453" type="line"/>
    </contour>
  </outline>
</glyph>
<glyph name="threequarters" format="2">
	<advance width="440"/>
	<unicode hex="00BE"/>
	<outline>
		<component base="threesuperior"/>
		<component base="fraction" xOffset="260"/>
		<contour>
			<point x="515" y="115" type="line"/>
			<point x="788" y="115" type="line"/>
			<point x="796" y="157" type="line"/>
			<point x="566" y="157" type="line"/>
			<point x="522" y="148" type="line"/>
		</contour>
		<contour>
			<point x="522" y="148" type="line"/>
			<point x="552" y="115" type="line"/>
			<point x="756" y="397" type="line"/>
			<point x="702" y="397" type="line"/>
		</contour>
		<contour>
			<point x="643" y="0" type="line"/>
			<point x="691" y="0" type="line"/>
			<point x="777" y="397" type="line"/>
			<point x="731" y="397" type="line"/>
		</contour>
	</outline>
</glyph>
<glyph name="questiondown" format="2">
  <advance width="491"/>
  <unicode hex="00BF"/>
  <outline>
    <contour>
      <point x="7" y="-36" type="curve" smooth="yes"/>
      <point x="7" y="-107"/>
      <point x="65" y="-188"/>
      <point x="174" y="-188" type="curve" smooth="yes"/>
      <point x="260" y="-188"/>
      <point x="330" y="-144"/>
      <point x="385" y="-76" type="curve"/>
      <point x="350" y="-41" type="line"/>
      <point x="304" y="-91"/>
      <point x="247" y="-133"/>
      <point x="180" y="-133" type="curve" smooth="yes"/>
      <point x="117" y="-133"/>
      <point x="72" y="-86"/>
      <point x="72" y="-26" type="curve" smooth="yes"/>
      <point x="72" y="37"/>
      <point x="111" y="76"/>
      <point x="183" y="120" type="curve" smooth="yes"/>
      <point x="238" y="153"/>
      <point x="269" y="187"/>
      <point x="278" y="242" type="curve" smooth="yes"/>
      <point x="293" y="330" type="line"/>
      <point x="246" y="330" type="line"/>
      <point x="227" y="256" type="line" smooth="yes"/>
      <point x="214" y="216"/>
      <point x="195" y="188"/>
      <point x="159" y="167" type="curve" smooth="yes"/>
      <point x="78" y="121"/>
      <point x="7" y="65"/>
    </contour>
    <contour>
      <point x="247" y="466" type="curve" smooth="yes"/>
      <point x="247" y="445"/>
      <point x="260" y="429"/>
      <point x="283" y="429" type="curve" smooth="yes"/>
      <point x="311" y="429"/>
      <point x="334" y="454"/>
      <point x="334" y="481" type="curve" smooth="yes"/>
      <point x="334" y="502"/>
      <point x="321" y="518"/>
      <point x="299" y="518" type="curve" smooth="yes"/>
      <point x="270" y="518"/>
      <point x="247" y="493"/>
    </contour>
  </outline>
</glyph>
<glyph name="multiply" format="2">
  <advance width="600"/>
  <unicode hex="00D7"/>
  <outline>
    <contour>
      <point x="69.0" y="137" type="line"/>
      <point x="102.0" y="93" type="line"/>
      <point x="532.0" y="448" type="line"/>
      <point x="500.0" y="492" type="line"/>
    </contour>
    <contour>
      <point x="140.0" y="450" type="line"/>
      <point x="419.0" y="96" type="line"/>
      <point x="465.0" y="133" type="line"/>
      <point x="187.0" y="487" type="line"/>
    </contour>
  </outline>
</glyph>
<glyph name="Oslash" format="1">
  <advance width="697.1457024726533"/>
  <unicode hex="00D8"/>
  <outline>
    <contour>
      <point x="67" y="229" type="curve"/>
      <point x="67" y="76"/>
      <point x="159" y="-8"/>
      <point x="285" y="-8" type="curve"/>
      <point x="480" y="-8"/>
      <point x="657" y="208"/>
      <point x="657" y="461" type="curve"/>
      <point x="657" y="614"/>
      <point x="565" y="698"/>
      <point x="439" y="698" type="curve"/>
      <point x="244" y="698"/>
      <point x="67" y="482"/>
    </contour>
    <contour>
      <point x="132" y="236" type="curve"/>
      <point x="132" y="452"/>
      <point x="276" y="641"/>
      <point x="432" y="641" type="curve"/>
      <point x="529" y="641"/>
      <point x="592" y="575"/>
      <point x="592" y="454" type="curve"/>
      <point x="592" y="238"/>
      <point x="448" y="49"/>
      <point x="292" y="49" type="curve"/>
      <point x="195" y="49"/>
      <point x="132" y="115"/>
    </contour>
    <contour>
      <point x="-19" y="29" type="line"/>
      <point x="17" y="-10" type="line"/>
      <point x="743" y="659" type="line"/>
      <point x="707" y="698" type="line"/>
    </contour>
    <contour>
      <point x="433.0" y="690.0" type="move" name="top"/>
    </contour>
  </outline>
</glyph>
<glyph name="Thorn" format="1">
  <advance width="606.9979222449487"/>
  <unicode hex="00DE"/>
  <outline>
    <contour>
      <point x="44" y="0" type="line"/>
      <point x="106" y="0" type="line"/>
      <point x="253" y="690" type="line"/>
      <point x="191" y="690" type="line"/>
    </contour>
    <contour>
      <point x="106" y="150" type="line"/>
      <point x="310" y="150" type="line" smooth="yes"/>
      <point x="470" y="150"/>
      <point x="573" y="239"/>
      <point x="573" y="389" type="curve" smooth="yes"/>
      <point x="573" y="488"/>
      <point x="496" y="540"/>
      <point x="391" y="540" type="curve" smooth="yes"/>
      <point x="189" y="540" type="line"/>
      <point x="177" y="486" type="line"/>
      <point x="379" y="486" type="line" smooth="yes"/>
      <point x="462" y="486"/>
      <point x="508" y="452"/>
      <point x="508" y="380" type="curve" smooth="yes"/>
      <point x="508" y="278"/>
      <point x="434" y="204"/>
      <point x="318" y="204" type="curve" smooth="yes"/>
      <point x="117" y="204" type="line"/>
    </contour>
  </outline>
</glyph>
<glyph name="germandbls" format="1">
  <advance width="585.9050915143864"/>
  <unicode hex="00DF"/>
  <outline>
    <contour>
      <point x="32" y="0" type="line"/>
      <point x="92" y="0" type="line"/>
      <point x="206" y="534" type="line" smooth="yes"/>
      <point x="225" y="626"/>
      <point x="286" y="673"/>
      <point x="361" y="673" type="curve" smooth="yes"/>
      <point x="425" y="673"/>
      <point x="460" y="644"/>
      <point x="460" y="585" type="curve"/>
      <point x="460" y="516"/>
      <point x="394" y="459"/>
      <point x="258" y="380" type="curve"/>
      <point x="249" y="334" type="line"/>
      <point x="368" y="254" type="line" smooth="yes"/>
      <point x="412" y="224"/>
      <point x="441" y="191"/>
      <point x="441" y="152" type="curve" smooth="yes"/>
      <point x="441" y="93"/>
      <point x="379" y="47"/>
      <point x="312" y="47" type="curve" smooth="yes"/>
      <point x="262" y="47"/>
      <point x="228" y="62"/>
      <point x="200" y="82" type="curve"/>
      <point x="169" y="35" type="line"/>
      <point x="194" y="19"/>
      <point x="241" y="-8"/>
      <point x="309" y="-8" type="curve"/>
      <point x="410" y="-8"/>
      <point x="504" y="52"/>
      <point x="504" y="160" type="curve" smooth="yes"/>
      <point x="504" y="220"/>
      <point x="463" y="261"/>
      <point x="405" y="299" type="curve" smooth="yes"/>
      <point x="319" y="356" type="line"/>
      <point x="437" y="426"/>
      <point x="523" y="503"/>
      <point x="523" y="593" type="curve"/>
      <point x="523" y="679"/>
      <point x="459" y="728"/>
      <point x="367" y="728" type="curve" smooth="yes"/>
      <point x="252" y="728"/>
      <point x="173" y="665"/>
      <point x="146" y="536" type="curve" smooth="yes"/>
    </contour>
  </outline>
</glyph>
<glyph name="divide" format="2">
  <advance width="600"/>
  <unicode hex="00F7"/>
  <outline>
    <contour>
      <point x="75.0" y="263" type="line"/>
      <point x="517.0" y="263" type="line"/>
      <point x="528.0" y="317" type="line"/>
      <point x="86.0" y="317" type="line"/>
    </contour>
    <contour>
      <point x="219.0" y="96" type="curve"/>
      <point x="219.0" y="76"/>
      <point x="233.0" y="62"/>
      <point x="253.0" y="62" type="curve"/>
      <point x="282.0" y="62"/>
      <point x="307.0" y="86"/>
      <point x="307.0" y="116" type="curve"/>
      <point x="307.0" y="136"/>
      <point x="294.0" y="151"/>
      <point x="272.0" y="151" type="curve"/>
      <point x="244.0" y="151"/>
      <point x="219.0" y="126"/>
    </contour>
    <contour>
      <point x="297.0" y="463" type="curve"/>
      <point x="297.0" y="443"/>
      <point x="311.0" y="429"/>
      <point x="331.0" y="429" type="curve"/>
      <point x="360.0" y="429"/>
      <point x="385.0" y="453"/>
      <point x="385.0" y="483" type="curve"/>
      <point x="385.0" y="503"/>
      <point x="372.0" y="518"/>
      <point x="350.0" y="518" type="curve"/>
      <point x="322.0" y="518"/>
      <point x="297.0" y="493"/>
    </contour>
  </outline>
</glyph>
<glyph name="oslash" format="2">
	<advance width="533"/>
	<unicode hex="00F8"/>
	<anchor x="317" y="510" name="top"/>
	<outline>
		<contour>
			<point x="41" y="166" type="curve"/>
			<point x="41" y="55"/>
			<point x="105" y="-8"/>
			<point x="202" y="-8" type="curve"/>
			<point x="361" y="-8"/>
			<point x="481" y="159"/>
			<point x="481" y="344" type="curve"/>
			<point x="481" y="455"/>
			<point x="417" y="518"/>
			<point x="320" y="518" type="curve"/>
			<point x="161" y="518"/>
			<point x="41" y="351"/>
		</contour>
		<contour>
			<point x="101" y="176" type="curve"/>
			<point x="101" y="319"/>
			<point x="193" y="463"/>
			<point x="315" y="463" type="curve"/>
			<point x="381" y="463"/>
			<point x="421" y="421"/>
			<point x="421" y="334" type="curve"/>
			<point x="421" y="191"/>
			<point x="329" y="47"/>
			<point x="207" y="47" type="curve"/>
			<point x="141" y="47"/>
			<point x="101" y="89"/>
		</contour>
		<contour>
			<point x="-29" y="29" type="line"/>
			<point x="6" y="-10" type="line"/>
			<point x="550" y="479" type="line"/>
			<point x="515" y="518" type="line"/>
		</contour>
	</outline>
</glyph>
<glyph name="Dcroat" format="2">
  <advance width="684"/>
  <unicode hex="0110"/>
  <outline>
    <contour>
      <point x="13" y="317" type="line"/>
      <point x="298" y="317" type="line"/>
      <point x="309" y="367" type="line"/>
      <point x="24" y="367" type="line"/>
    </contour>
    <contour>
      <point x="54" y="0" type="line"/>
      <point x="116" y="0" type="line"/>
      <point x="263" y="690" type="line"/>
      <point x="201" y="690" type="line"/>
    </contour>
    <contour>
      <point x="84" y="0" type="line"/>
      <point x="228" y="0" type="line" smooth="yes"/>
      <point x="473" y="0"/>
      <point x="640" y="193"/>
      <point x="640" y="444" type="curve" smooth="yes"/>
      <point x="640" y="591"/>
      <point x="535" y="690"/>
      <point x="369" y="690" type="curve" smooth="yes"/>
      <point x="231" y="690" type="line"/>
      <point x="219" y="636" type="line"/>
      <point x="362" y="636" type="line" smooth="yes"/>
      <point x="498" y="636"/>
      <point x="575" y="562"/>
      <point x="575" y="434" type="curve" smooth="yes"/>
      <point x="575" y="227"/>
      <point x="431" y="54"/>
      <point x="235" y="54" type="curve" smooth="yes"/>
      <point x="95" y="54" type="line"/>
    </contour>
  </outline>
</glyph>
<glyph name="Dcroat" format="1">
  <advance width="684"/>
  <unicode hex="0110"/>
  <outline>
    <contour>
      <point x="13" y="317" type="line"/>
      <point x="298" y="317" type="line"/>
      <point x="309" y="367" type="line"/>
      <point x="24" y="367" type="line"/>
    </contour>
    <contour>
      <point x="54" y="0" type="line"/>
      <point x="116" y="0" type="line"/>
      <point x="263" y="690" type="line"/>
      <point x="201" y="690" type="line"/>
    </contour>
    <contour>
      <point x="84" y="0" type="line"/>
      <point x="228" y="0" type="line" smooth="yes"/>
      <point x="473" y="0"/>
      <point x="640" y="193"/>
      <point x="640" y="444" type="curve" smooth="yes"/>
      <point x="640" y="591"/>
      <point x="535" y="690"/>
      <point x="369" y="690" type="curve" smooth="yes"/>
      <point x="231" y="690" type="line"/>
      <point x="219" y="636" type="line"/>
      <point x="362" y="636" type="line" smooth="yes"/>
      <point x="498" y="636"/>
      <point x="575" y="562"/>
      <point x="575" y="434" type="curve" smooth="yes"/>
      <point x="575" y="227"/>
      <point x="431" y="54"/>
      <point x="235" y="54" type="curve" smooth="yes"/>
      <point x="95" y="54" type="line"/>
    </contour>
  </outline>
</glyph>
<glyph name="dcroat" format="1">
  <advance width="555.8140267778659"/>
  <unicode hex="0111"/>
  <outline>
    <contour>
      <point x="320" y="586" type="line"/>
      <point x="601" y="586" type="line"/>
      <point x="611" y="636" type="line"/>
      <point x="330" y="636" type="line"/>
    </contour>
    <contour>
      <point x="42" y="170" type="curve" smooth="yes"/>
      <point x="42" y="52"/>
      <point x="110" y="-8"/>
      <point x="189" y="-8" type="curve" smooth="yes"/>
      <point x="261" y="-8"/>
      <point x="333" y="37"/>
      <point x="375" y="108" type="curve"/>
      <point x="366" y="113" type="line"/>
      <point x="362" y="0" type="line"/>
      <point x="418" y="0" type="line"/>
      <point x="418" y="25" type="line" smooth="yes"/>
      <point x="418" y="58"/>
      <point x="422" y="89"/>
      <point x="429" y="122" type="curve" smooth="yes"/>
      <point x="558" y="731" type="line"/>
      <point x="495" y="717" type="line"/>
      <point x="392" y="232" type="line" smooth="yes"/>
      <point x="367" y="112"/>
      <point x="277" y="45"/>
      <point x="205" y="45" type="curve" smooth="yes"/>
      <point x="146" y="45"/>
      <point x="103" y="88"/>
      <point x="103" y="176" type="curve" smooth="yes"/>
      <point x="103" y="337"/>
      <point x="205" y="466"/>
      <point x="304" y="466" type="curve" smooth="yes"/>
      <point x="353" y="466"/>
      <point x="396" y="448"/>
      <point x="437" y="403" type="curve"/>
      <point x="447" y="455" type="line"/>
      <point x="407" y="499"/>
      <point x="357" y="518"/>
      <point x="309" y="518" type="curve" smooth="yes"/>
      <point x="175" y="518"/>
      <point x="42" y="368"/>
    </contour>
  </outline>
</glyph>
<glyph name="eogonek" format="1">
  <advance width="500"/>
  <unicode hex="0119"/>
  <outline>
    <contour>
      <point x="40" y="165" type="curve" smooth="yes"/>
      <point x="40" y="55"/>
      <point x="115" y="-8"/>
      <point x="211" y="-8" type="curve" smooth="yes"/>
      <point x="293" y="-8"/>
      <point x="360" y="33"/>
      <point x="408" y="91" type="curve"/>
      <point x="371" y="126" type="line"/>
      <point x="331" y="78"/>
      <point x="279" y="47"/>
      <point x="216" y="47" type="curve" smooth="yes"/>
      <point x="148" y="47"/>
      <point x="100" y="87"/>
      <point x="100" y="176" type="curve" smooth="yes"/>
      <point x="100" y="318"/>
      <point x="203" y="463"/>
      <point x="327" y="463" type="curve" smooth="yes"/>
      <point x="378" y="463"/>
      <point x="411" y="434"/>
      <point x="411" y="390" type="curve" smooth="yes"/>
      <point x="411" y="345"/>
      <point x="363" y="286"/>
      <point x="211" y="286" type="curve" smooth="yes"/>
      <point x="179" y="286"/>
      <point x="142" y="289"/>
      <point x="100" y="295" type="curve"/>
      <point x="91" y="246" type="line"/>
      <point x="136" y="239"/>
      <point x="177" y="236"/>
      <point x="213" y="236" type="curve" smooth="yes"/>
      <point x="402" y="236"/>
      <point x="471" y="319"/>
      <point x="471" y="394" type="curve" smooth="yes"/>
      <point x="471" y="466"/>
      <point x="414" y="518"/>
      <point x="332" y="518" type="curve" smooth="yes"/>
      <point x="170" y="518"/>
      <point x="40" y="349"/>
    </contour>
    <contour>
      <point x="177" y="-121" type="curve"/>
      <point x="177" y="-160"/>
      <point x="208" y="-193"/>
      <point x="259" y="-193" type="curve"/>
      <point x="287" y="-193"/>
      <point x="313" y="-185"/>
      <point x="337" y="-171" type="curve"/>
      <point x="325" y="-133" type="line"/>
      <point x="308" y="-142"/>
      <point x="288" y="-150"/>
      <point x="265" y="-150" type="curve" smooth="yes"/>
      <point x="240" y="-150"/>
      <point x="224" y="-134"/>
      <point x="224" y="-113" type="curve"/>
      <point x="224" y="-55"/>
      <point x="330" y="-20"/>
      <point x="408" y="91" type="curve"/>
      <point x="270" y="0" type="line"/>
      <point x="216" y="-36"/>
      <point x="177" y="-72"/>
    </contour>
  </outline>
</glyph>
<glyph name="Hbar" format="2">
  <advance width="715"/>
  <unicode hex="0126"/>
  <outline>
    <contour>
      <point x="89" y="528" type="line"/>
      <point x="730" y="528" type="line"/>
      <point x="741" y="578" type="line"/>
      <point x="100" y="578" type="line"/>
    </contour>
    <contour>
      <point x="49" y="0" type="line"/>
      <point x="111" y="0" type="line"/>
      <point x="258" y="690" type="line"/>
      <point x="196" y="690" type="line"/>
    </contour>
    <contour>
      <point x="147" y="321" type="line"/>
      <point x="583" y="321" type="line"/>
      <point x="595" y="375" type="line"/>
      <point x="159" y="375" type="line"/>
    </contour>
    <contour>
      <point x="483" y="0" type="line"/>
      <point x="545" y="0" type="line"/>
      <point x="692" y="690" type="line"/>
      <point x="630" y="690" type="line"/>
    </contour>
  </outline>
</glyph>
<glyph name="idotless" format="2">
	<advance width="248"/>
	<unicode hex="0131"/>
	<anchor x="94" y="0" name="ogonek"/>
	<anchor x="64" y="0" name="bottom"/>
	<anchor x="169" y="510" name="top"/>
	<outline>
		<contour>
			<point x="34" y="0" type="line"/>
			<point x="94" y="0" type="line"/>
			<point x="202" y="510" type="line"/>
			<point x="142" y="510" type="line"/>
		</contour>
	</outline>
</glyph>
<glyph name="IJ" format="1">
  <advance width="700.3359724476848"/>
  <unicode hex="0132"/>
  <outline>
    <contour>
      <point x="31" y="0" type="line"/>
      <point x="93" y="0" type="line"/>
      <point x="240" y="690" type="line"/>
      <point x="178" y="690" type="line"/>
    </contour>
    <contour>
      <point x="231" y="27" type="line"/>
      <point x="259" y="4"/>
      <point x="305" y="-8"/>
      <point x="354" y="-8" type="curve" smooth="yes"/>
      <point x="465" y="-8"/>
      <point x="557" y="52"/>
      <point x="592" y="215" type="curve" smooth="yes"/>
      <point x="693" y="690" type="line"/>
      <point x="631" y="690" type="line"/>
      <point x="531" y="220" type="line" smooth="yes"/>
      <point x="505" y="97"/>
      <point x="440" y="49"/>
      <point x="359" y="49" type="curve" smooth="yes"/>
      <point x="320" y="49"/>
      <point x="291" y="59"/>
      <point x="269" y="77" type="curve"/>
    </contour>
  </outline>
</glyph>
<glyph name="kra" format="2">
  <advance width="490"/>
  <unicode hex="0138"/>
  <outline>
    <contour>
      <point x="31" y="0" type="line"/>
      <point x="91" y="0" type="line"/>
      <point x="199" y="510" type="line"/>
      <point x="139" y="510" type="line"/>
    </contour>
    <contour>
      <point x="124" y="186" type="line"/>
      <point x="510" y="510" type="line"/>
      <point x="431" y="510" type="line"/>
      <point x="140" y="261" type="line"/>
    </contour>
    <contour>
      <point x="215" y="279" type="line"/>
      <point x="347" y="0" type="line"/>
      <point x="412" y="0" type="line"/>
      <point x="257" y="318" type="line"/>
    </contour>
  </outline>
</glyph>
<glyph name="oe" format="1">
  <advance width="837.9776995998275"/>
  <unicode hex="0153"/>
  <outline>
    <contour>
      <point x="41" y="166" type="curve"/>
      <point x="41" y="55"/>
      <point x="98" y="-8"/>
      <point x="195" y="-8" type="curve"/>
      <point x="356" y="-8"/>
      <point x="466" y="170"/>
      <point x="466" y="344" type="curve"/>
      <point x="466" y="451"/>
      <point x="410" y="518"/>
      <point x="313" y="518" type="curve"/>
      <point x="154" y="518"/>
      <point x="41" y="351"/>
    </contour>
    <contour>
      <point x="101" y="176" type="curve"/>
      <point x="101" y="319"/>
      <point x="186" y="463"/>
      <point x="308" y="463" type="curve"/>
      <point x="372" y="463"/>
      <point x="406" y="421"/>
      <point x="406" y="334" type="curve"/>
      <point x="406" y="191"/>
      <point x="322" y="47"/>
      <point x="200" y="47" type="curve"/>
      <point x="134" y="47"/>
      <point x="101" y="89"/>
    </contour>
    <contour>
      <point x="388" y="165" type="curve" smooth="yes"/>
      <point x="388" y="55"/>
      <point x="464" y="-8"/>
      <point x="549" y="-8" type="curve" smooth="yes"/>
      <point x="631" y="-8"/>
      <point x="698" y="33"/>
      <point x="746" y="91" type="curve"/>
      <point x="709" y="126" type="line"/>
      <point x="668" y="78"/>
      <point x="617" y="47"/>
      <point x="554" y="47" type="curve" smooth="yes"/>
      <point x="497" y="47"/>
      <point x="448" y="91"/>
      <point x="448" y="176" type="curve" smooth="yes"/>
      <point x="448" y="318"/>
      <point x="548" y="463"/>
      <point x="665" y="463" type="curve" smooth="yes"/>
      <point x="716" y="463"/>
      <point x="749" y="434"/>
      <point x="749" y="390" type="curve" smooth="yes"/>
      <point x="749" y="345"/>
      <point x="701" y="286"/>
      <point x="549" y="286" type="curve" smooth="yes"/>
      <point x="517" y="286"/>
      <point x="490" y="289"/>
      <point x="448" y="295" type="curve"/>
      <point x="439" y="246" type="line"/>
      <point x="484" y="239"/>
      <point x="515" y="236"/>
      <point x="551" y="236" type="curve" smooth="yes"/>
      <point x="740" y="236"/>
      <point x="809" y="319"/>
      <point x="809" y="394" type="curve" smooth="yes"/>
      <point x="809" y="466"/>
      <point x="752" y="518"/>
      <point x="670" y="518" type="curve" smooth="yes"/>
      <point x="515" y="518"/>
      <point x="388" y="349"/>
    </contour>
  </outline>
</glyph>
<glyph name="tbar" format="1">
  <advance width="387.5990950132796"/>
  <unicode hex="0167"/>
  <outline>
    <contour>
      <point x="28" y="250" type="line"/>
      <point x="320" y="250" type="line"/>
      <point x="330" y="300" type="line"/>
      <point x="38" y="300" type="line"/>
    </contour>
    <contour>
      <point x="72" y="460" type="line"/>
      <point x="364" y="460" type="line"/>
      <point x="374" y="510" type="line"/>
      <point x="82" y="510" type="line"/>
    </contour>
    <contour>
      <point x="93" y="97" type="curve" smooth="yes"/>
      <point x="93" y="32"/>
      <point x="136" y="-8"/>
      <point x="201" y="-8" type="curve"/>
      <point x="232" y="-8"/>
      <point x="267" y="2"/>
      <point x="291" y="16" type="curve"/>
      <point x="277" y="69" type="line"/>
      <point x="253" y="57"/>
      <point x="228" y="50"/>
      <point x="206" y="50" type="curve"/>
      <point x="174" y="50"/>
      <point x="153" y="65"/>
      <point x="153" y="103" type="curve" smooth="yes"/>
      <point x="153" y="118"/>
      <point x="155" y="133"/>
      <point x="158" y="148" type="curve" smooth="yes"/>
      <point x="266" y="654" type="line"/>
      <point x="203" y="640" type="line"/>
      <point x="98" y="145" type="line" smooth="yes"/>
      <point x="95" y="130"/>
      <point x="93" y="113"/>
    </contour>
  </outline>
</glyph>
<glyph name="Uogonek" format="2">
  <advance width="680"/>
  <unicode hex="0172"/>
  <outline>
    <contour>
      <point x="414" y="-171" type="curve"/>
      <point x="402" y="-133" type="line"/>
      <point x="385" y="-142"/>
      <point x="365" y="-150"/>
      <point x="342" y="-150" type="curve" smooth="yes"/>
      <point x="317" y="-150"/>
      <point x="301" y="-134"/>
      <point x="301" y="-113" type="curve"/>
      <point x="301" y="-62"/>
      <point x="379" y="-25"/>
      <point x="470" y="52" type="curve" smooth="yes"/>
      <point x="522" y="96"/>
      <point x="559" y="156"/>
      <point x="577" y="240" type="curve" smooth="yes"/>
      <point x="673" y="690" type="line"/>
      <point x="611" y="690" type="line"/>
      <point x="517" y="250" type="line" smooth="yes"/>
      <point x="489" y="116"/>
      <point x="402" y="49"/>
      <point x="298" y="49" type="curve"/>
      <point x="202" y="49"/>
      <point x="142" y="96"/>
      <point x="142" y="191" type="curve" smooth="yes"/>
      <point x="142" y="209"/>
      <point x="145" y="232"/>
      <point x="150" y="254" type="curve" smooth="yes"/>
      <point x="243" y="690" type="line"/>
      <point x="181" y="690" type="line"/>
      <point x="88" y="254" type="line" smooth="yes"/>
      <point x="83" y="232"/>
      <point x="80" y="206"/>
      <point x="80" y="187" type="curve" smooth="yes"/>
      <point x="80" y="68"/>
      <point x="162" y="-8"/>
      <point x="286" y="-8" type="curve"/>
      <point x="305" y="-8"/>
      <point x="324" y="-7"/>
      <point x="342" y="-4" type="curve"/>
      <point x="293" y="-36"/>
      <point x="254" y="-72"/>
      <point x="254" y="-121" type="curve"/>
      <point x="254" y="-160"/>
      <point x="285" y="-193"/>
      <point x="336" y="-193" type="curve"/>
      <point x="364" y="-193"/>
      <point x="390" y="-185"/>
    </contour>
  </outline>
</glyph>
<glyph name="Uogonek" format="1">
  <advance width="680.3359724476848"/>
  <unicode hex="0172"/>
  <outline>
    <contour>
      <point x="414" y="-171" type="curve"/>
      <point x="402" y="-133" type="line"/>
      <point x="385" y="-142"/>
      <point x="365" y="-150"/>
      <point x="342" y="-150" type="curve" smooth="yes"/>
      <point x="317" y="-150"/>
      <point x="301" y="-134"/>
      <point x="301" y="-113" type="curve"/>
      <point x="301" y="-62"/>
      <point x="379" y="-25"/>
      <point x="470" y="52" type="curve" smooth="yes"/>
      <point x="522" y="96"/>
      <point x="559" y="156"/>
      <point x="577" y="240" type="curve" smooth="yes"/>
      <point x="673" y="690" type="line"/>
      <point x="611" y="690" type="line"/>
      <point x="517" y="250" type="line" smooth="yes"/>
      <point x="489" y="116"/>
      <point x="402" y="49"/>
      <point x="298" y="49" type="curve"/>
      <point x="202" y="49"/>
      <point x="142" y="96"/>
      <point x="142" y="191" type="curve" smooth="yes"/>
      <point x="142" y="209"/>
      <point x="145" y="232"/>
      <point x="150" y="254" type="curve" smooth="yes"/>
      <point x="243" y="690" type="line"/>
      <point x="181" y="690" type="line"/>
      <point x="88" y="254" type="line" smooth="yes"/>
      <point x="83" y="232"/>
      <point x="80" y="206"/>
      <point x="80" y="187" type="curve" smooth="yes"/>
      <point x="80" y="68"/>
      <point x="162" y="-8"/>
      <point x="286" y="-8" type="curve"/>
      <point x="305" y="-8"/>
      <point x="324" y="-7"/>
      <point x="342" y="-4" type="curve"/>
      <point x="293" y="-36"/>
      <point x="254" y="-72"/>
      <point x="254" y="-121" type="curve"/>
      <point x="254" y="-160"/>
      <point x="285" y="-193"/>
      <point x="336" y="-193" type="curve"/>
      <point x="364" y="-193"/>
      <point x="390" y="-185"/>
    </contour>
  </outline>
</glyph>
<glyph name="florin" format="2">
  <advance width="600"/>
  <unicode hex="0192"/>
  <outline>
    <contour>
      <point x="14.0" y="-173" type="line"/>
      <point x="32.0" y="-183"/>
      <point x="56.0" y="-193"/>
      <point x="96.0" y="-193" type="curve"/>
      <point x="137.0" y="-193"/>
      <point x="211.0" y="-179"/>
      <point x="235.0" y="-69" type="curve" smooth="yes"/>
      <point x="375.0" y="572" type="line" smooth="yes"/>
      <point x="391.0" y="645"/>
      <point x="427.0" y="674"/>
      <point x="480.0" y="674" type="curve"/>
      <point x="504.0" y="674"/>
      <point x="526.0" y="668"/>
      <point x="551.0" y="654" type="curve"/>
      <point x="576.0" y="704" type="line"/>
      <point x="555.0" y="718"/>
      <point x="520.0" y="728"/>
      <point x="487.0" y="728" type="curve"/>
      <point x="397.0" y="728"/>
      <point x="337.0" y="680"/>
      <point x="315.0" y="575" type="curve" smooth="yes"/>
      <point x="189.0" y="-20" type="line" smooth="yes"/>
      <point x="167.0" y="-125"/>
      <point x="131.0" y="-138"/>
      <point x="88.0" y="-138" type="curve"/>
      <point x="69.0" y="-138"/>
      <point x="52.0" y="-134"/>
      <point x="35.0" y="-126" type="curve"/>
    </contour>
    <contour>
      <point x="198.0" y="460" type="line"/>
      <point x="498.0" y="460" type="line"/>
      <point x="508.0" y="510" type="line"/>
      <point x="208.0" y="510" type="line"/>
    </contour>
  </outline>
</glyph>
<glyph name="Nhookleft" format="2">
	<advance width="709"/>
	<unicode hex="019D"/>
	<outline>
		<contour>
			<point x="-136" y="-173" type="line"/>
			<point x="-116" y="-184"/>
			<point x="-85" y="-193"/>
			<point x="-56" y="-193" type="curve"/>
			<point x="21" y="-193"/>
			<point x="75" y="-147"/>
			<point x="96" y="-48" type="curve"/>
			<point x="253" y="690" type="line"/>
			<point x="191" y="690" type="line"/>
			<point x="34" y="-47" type="line" smooth="yes"/>
			<point x="19" y="-116"/>
			<point x="-15" y="-140"/>
			<point x="-59" y="-140" type="curve"/>
			<point x="-78" y="-140"/>
			<point x="-99" y="-134"/>
			<point x="-114" y="-127" type="curve"/>
		</contour>
		<contour>
			<point x="209" y="690" type="line"/>
			<point x="465" y="0" type="line"/>
			<point x="527" y="0" type="line"/>
			<point x="271" y="690" type="line"/>
		</contour>
		<contour>
			<point x="483" y="0" type="line"/>
			<point x="545" y="0" type="line"/>
			<point x="692" y="690" type="line"/>
			<point x="630" y="690" type="line"/>
		</contour>
	</outline>
</glyph>
<glyph name="Oogonek" format="2">
  <advance width="697"/>
  <unicode hex="01EA"/>
  <outline>
    <contour>
      <point x="397" y="-171" type="curve"/>
      <point x="385" y="-133" type="line"/>
      <point x="368" y="-142"/>
      <point x="348" y="-150"/>
      <point x="325" y="-150" type="curve" smooth="yes"/>
      <point x="300" y="-150"/>
      <point x="284" y="-134"/>
      <point x="284" y="-113" type="curve" smooth="yes"/>
      <point x="284" y="-59"/>
      <point x="376" y="-24"/>
      <point x="485" y="70" type="curve" smooth="yes"/>
      <point x="586" y="156"/>
      <point x="657" y="300"/>
      <point x="657" y="461" type="curve"/>
      <point x="657" y="614"/>
      <point x="565" y="698"/>
      <point x="439" y="698" type="curve"/>
      <point x="244" y="698"/>
      <point x="67" y="482"/>
      <point x="67" y="229" type="curve"/>
      <point x="67" y="76"/>
      <point x="159" y="-8"/>
      <point x="285" y="-8" type="curve"/>
      <point x="297" y="-8"/>
      <point x="310" y="-7"/>
      <point x="322" y="-5" type="curve"/>
      <point x="272" y="-40"/>
      <point x="237" y="-74"/>
      <point x="237" y="-121" type="curve" smooth="yes"/>
      <point x="237" y="-160"/>
      <point x="268" y="-193"/>
      <point x="319" y="-193" type="curve"/>
      <point x="347" y="-193"/>
      <point x="373" y="-185"/>
    </contour>
    <contour>
      <point x="132" y="236" type="curve"/>
      <point x="132" y="452"/>
      <point x="276" y="641"/>
      <point x="432" y="641" type="curve"/>
      <point x="529" y="641"/>
      <point x="592" y="575"/>
      <point x="592" y="454" type="curve"/>
      <point x="592" y="238"/>
      <point x="448" y="49"/>
      <point x="292" y="49" type="curve"/>
      <point x="195" y="49"/>
      <point x="132" y="115"/>
    </contour>
  </outline>
</glyph>
<glyph name="dotlessj" format="1">
  <advance width="248"/>
  <unicode hex="0237"/>
  <outline>
    <contour>
      <point x="-148" y="-173" type="line"/>
      <point x="-128" y="-184"/>
      <point x="-100" y="-193"/>
      <point x="-71" y="-193" type="curve"/>
      <point x="6" y="-193"/>
      <point x="63" y="-147"/>
      <point x="84" y="-48" type="curve" smooth="yes"/>
      <point x="202" y="510" type="line"/>
      <point x="142" y="510" type="line"/>
      <point x="24" y="-47" type="line" smooth="yes"/>
      <point x="9" y="-116"/>
      <point x="-25" y="-140"/>
      <point x="-71" y="-140" type="curve"/>
      <point x="-90" y="-140"/>
      <point x="-111" y="-134"/>
      <point x="-126" y="-127" type="curve"/>
    </contour>
    <contour>
      <point x="173" y="510" type="move" name="top"/>
    </contour>
  </outline>
</glyph>
<glyph name="ipa:schwa" format="1">
  <advance width="528.7927546575328"/>
  <unicode hex="0259"/>
  <outline>
    <contour>
      <point x="37" y="168" type="curve"/>
      <point x="37" y="75"/>
      <point x="98" y="-8"/>
      <point x="215" y="-8" type="curve"/>
      <point x="381" y="-8"/>
      <point x="470" y="151"/>
      <point x="470" y="317" type="curve"/>
      <point x="470" y="460"/>
      <point x="396" y="518"/>
      <point x="293" y="518" type="curve" smooth="yes"/>
      <point x="235" y="518"/>
      <point x="177" y="495"/>
      <point x="121" y="455" type="curve"/>
      <point x="147" y="411" type="line"/>
      <point x="190" y="441"/>
      <point x="240" y="462"/>
      <point x="288" y="462" type="curve" smooth="yes"/>
      <point x="365" y="462"/>
      <point x="413" y="423"/>
      <point x="413" y="314" type="curve"/>
      <point x="413" y="172"/>
      <point x="345" y="46"/>
      <point x="220" y="46" type="curve"/>
      <point x="136" y="46"/>
      <point x="96" y="104"/>
      <point x="96" y="172" type="curve" smooth="yes"/>
      <point x="96" y="212"/>
      <point x="112" y="240"/>
      <point x="112" y="240" type="curve"/>
      <point x="86" y="216" type="line"/>
      <point x="414" y="216" type="line"/>
      <point x="425" y="266" type="line"/>
      <point x="53" y="266" type="line"/>
      <point x="53" y="266"/>
      <point x="37" y="220"/>
    </contour>
  </outline>
</glyph>
<glyph name="nhookleft" format="2">
	<advance width="565"/>
	<unicode hex="0272"/>
	<outline>
		<contour>
			<point x="-146" y="-173" type="line"/>
			<point x="-126" y="-184"/>
			<point x="-95" y="-193"/>
			<point x="-66" y="-193" type="curve"/>
			<point x="11" y="-193"/>
			<point x="63" y="-147"/>
			<point x="84" y="-48" type="curve" smooth="yes"/>
			<point x="153" y="278" type="line" smooth="yes"/>
			<point x="178" y="398"/>
			<point x="268" y="465"/>
			<point x="340" y="465" type="curve"/>
			<point x="399" y="465"/>
			<point x="436" y="432"/>
			<point x="436" y="364" type="curve" smooth="yes"/>
			<point x="436" y="348"/>
			<point x="434" y="331"/>
			<point x="430" y="312" type="curve" smooth="yes"/>
			<point x="364" y="0" type="line"/>
			<point x="424" y="0" type="line"/>
			<point x="491" y="314" type="line" smooth="yes"/>
			<point x="495" y="333"/>
			<point x="497" y="353"/>
			<point x="497" y="370" type="curve" smooth="yes"/>
			<point x="497" y="463"/>
			<point x="433" y="518"/>
			<point x="358" y="518" type="curve"/>
			<point x="287" y="518"/>
			<point x="212" y="473"/>
			<point x="170" y="402" type="curve"/>
			<point x="179" y="397" type="line"/>
			<point x="183" y="510" type="line"/>
			<point x="127" y="510" type="line"/>
			<point x="127" y="485" type="line" smooth="yes"/>
			<point x="127" y="452"/>
			<point x="123" y="421"/>
			<point x="116" y="388" type="curve"/>
			<point x="24" y="-47" type="line" smooth="yes"/>
			<point x="9" y="-116"/>
			<point x="-25" y="-140"/>
			<point x="-69" y="-140" type="curve"/>
			<point x="-88" y="-140"/>
			<point x="-109" y="-134"/>
			<point x="-124" y="-127" type="curve"/>
		</contour>
	</outline>
</glyph>
<glyph name="circumflex" format="2">
  <advance width="600"/>
  <unicode hex="02C6"/>
  <note>
circumflex
</note>
  <anchor x="351" y="510" name="_top"/>
  <outline>
    <contour>
      <point x="239" y="585" type="line"/>
      <point x="296" y="585" type="line"/>
      <point x="433" y="735" type="line"/>
      <point x="361" y="735" type="line"/>
    </contour>
    <contour>
      <point x="370" y="735" type="line"/>
      <point x="438" y="585" type="line"/>
      <point x="490" y="585" type="line"/>
      <point x="433" y="735" type="line"/>
    </contour>
  </outline>
</glyph>
<glyph name="caron" format="1">
  <advance width="600"/>
  <unicode hex="02C7"/>
  <note>
    caron
  </note>
  <outline>
    <contour>
      <point x="270" y="735" type="line"/>
      <point x="327" y="585" type="line"/>
      <point x="390" y="585" type="line"/>
      <point x="322" y="735" type="line"/>
    </contour>
    <contour>
      <point x="327" y="585" type="line"/>
      <point x="399" y="585" type="line"/>
      <point x="521" y="735" type="line"/>
      <point x="464" y="735" type="line"/>
    </contour>
    <contour>
      <point x="348" y="510" type="move" name="_top"/>
    </contour>
  </outline>
</glyph>
<glyph name="dotaccent" format="2">
  <advance width="600"/>
  <unicode hex="02D9"/>
  <note>
dotaccent
</note>
  <anchor x="348" y="510" name="_top"/>
  <outline>
    <contour>
      <point x="342" y="676" type="curve" smooth="yes"/>
      <point x="342" y="655"/>
      <point x="355" y="639"/>
      <point x="378" y="639" type="curve" smooth="yes"/>
      <point x="406" y="639"/>
      <point x="429" y="664"/>
      <point x="429" y="691" type="curve" smooth="yes"/>
      <point x="429" y="712"/>
      <point x="416" y="728"/>
      <point x="393" y="728" type="curve" smooth="yes"/>
      <point x="365" y="728"/>
      <point x="342" y="703"/>
    </contour>
  </outline>
</glyph>
<glyph name="ring" format="2">
  <advance width="600"/>
  <unicode hex="02DA"/>
  <note>
ring
</note>
  <anchor x="348.0" y="510.0" name="_top"/>
  <outline>
    <contour>
      <point x="280" y="670" type="curve"/>
      <point x="280" y="616"/>
      <point x="320" y="585"/>
      <point x="371" y="585" type="curve"/>
      <point x="440" y="585"/>
      <point x="494" y="638"/>
      <point x="494" y="710" type="curve"/>
      <point x="494" y="764"/>
      <point x="454.0" y="795.0"/>
      <point x="403" y="795" type="curve"/>
      <point x="334" y="795"/>
      <point x="280" y="742"/>
    </contour>
    <contour>
      <point x="326" y="675" type="curve"/>
      <point x="326.0" y="718.8095238095239"/>
      <point x="357.0" y="755.0"/>
      <point x="398" y="755" type="curve"/>
      <point x="428.0" y="755.0"/>
      <point x="448.0" y="734.6296296296297"/>
      <point x="448" y="705" type="curve"/>
      <point x="448" y="661"/>
      <point x="417" y="625"/>
      <point x="376" y="625" type="curve"/>
      <point x="346" y="625"/>
      <point x="326" y="645"/>
    </contour>
  </outline>
</glyph>
<glyph name="tilde" format="2">
	<advance width="600"/>
	<unicode hex="02DC"/>
	<note>
		tilde
	</note>
	<outline>
		<contour>
			<point x="234" y="610" type="curve"/>
			<point x="278" y="610" type="line"/>
			<point x="292" y="654"/>
			<point x="308" y="669"/>
			<point x="328" y="669" type="curve"/>
			<point x="362" y="669"/>
			<point x="379" y="605"/>
			<point x="430" y="605" type="curve"/>
			<point x="477" y="605"/>
			<point x="508" y="645"/>
			<point x="528" y="715" type="curve"/>
			<point x="484" y="715" type="line"/>
			<point x="470" y="671"/>
			<point x="454" y="656"/>
			<point x="435" y="656" type="curve"/>
			<point x="399" y="656"/>
			<point x="383" y="720"/>
			<point x="332" y="720" type="curve"/>
			<point x="284" y="720"/>
			<point x="254" y="680"/>
		</contour>
	</outline>
</glyph>
<glyph name="gravecomb" format="2">
	<advance width="0"/>
	<unicode hex="0300"/>
	<anchor x="54" y="510" name="_top"/>
	<anchor x="99" y="720" name="top"/>
	<outline>
		<contour>
			<point x="-32" y="735" type="line"/>
			<point x="50" y="585" type="line"/>
			<point x="98" y="585" type="line"/>
			<point x="36" y="735" type="line"/>
		</contour>
	</outline>
</glyph>
<glyph name="acutecomb" format="2">
	<advance width="0"/>
	<unicode hex="0301"/>
	<anchor x="54" y="510" name="_top"/>
	<anchor x="98" y="720" name="top"/>
	<outline>
		<contour>
			<point x="33" y="585" type="line"/>
			<point x="88" y="585" type="line"/>
			<point x="224" y="735" type="line"/>
			<point x="140" y="735" type="line"/>
		</contour>
	</outline>
</glyph>
<glyph name="dieresiscomb" format="2">
	<advance width="0"/>
	<unicode hex="0308"/>
	<anchor x="55" y="510" name="_top"/>
	<anchor x="99" y="720" name="top"/>
	<outline>
		<contour>
			<point x="-46" y="678" type="curve" smooth="yes"/>
			<point x="-46" y="658"/>
			<point x="-34" y="643"/>
			<point x="-12" y="643" type="curve" smooth="yes"/>
			<point x="15" y="643"/>
			<point x="37" y="667"/>
			<point x="37" y="693" type="curve" smooth="yes"/>
			<point x="37" y="713"/>
			<point x="25" y="728"/>
			<point x="3" y="728" type="curve" smooth="yes"/>
			<point x="-24" y="728"/>
			<point x="-46" y="704"/>
		</contour>
		<contour>
			<point x="144" y="678" type="curve" smooth="yes"/>
			<point x="144" y="658"/>
			<point x="156" y="643"/>
			<point x="178" y="643" type="curve" smooth="yes"/>
			<point x="205" y="643"/>
			<point x="227" y="667"/>
			<point x="227" y="693" type="curve" smooth="yes"/>
			<point x="227" y="713"/>
			<point x="215" y="728"/>
			<point x="193" y="728" type="curve" smooth="yes"/>
			<point x="166" y="728"/>
			<point x="144" y="704"/>
		</contour>
	</outline>
</glyph>
<glyph name="cedillacomb" format="2">
	<advance width="0"/>
	<unicode hex="0327"/>
	<anchor x="-54" y="0" name="_bottom"/>
	<outline>
		<contour>
			<point x="-170" y="-193" type="line"/>
			<point x="-146" y="-193" type="line" smooth="yes"/>
			<point x="-61" y="-193"/>
			<point x="-6" y="-168"/>
			<point x="-6" y="-118" type="curve"/>
			<point x="-6" y="-86"/>
			<point x="-28" y="-68"/>
			<point x="-64" y="-57" type="curve"/>
			<point x="-37" y="9" type="line"/>
			<point x="-74" y="15" type="line"/>
			<point x="-117" y="-88" type="line"/>
			<point x="-94" y="-91" type="line" smooth="yes"/>
			<point x="-68" y="-94"/>
			<point x="-57" y="-103"/>
			<point x="-57" y="-118" type="curve"/>
			<point x="-57" y="-136"/>
			<point x="-79" y="-154"/>
			<point x="-153" y="-154" type="curve"/>
		</contour>
	</outline>
</glyph>
<glyph name="ogonekcomb" format="2">
	<advance width="0"/>
	<unicode hex="0328"/>
	<anchor x="-24" y="0" name="_ogonek"/>
	<outline>
		<contour>
			<point x="-173" y="-121" type="curve" smooth="yes"/>
			<point x="-173" y="-160"/>
			<point x="-142" y="-193"/>
			<point x="-91" y="-193" type="curve" smooth="yes"/>
			<point x="-63" y="-193"/>
			<point x="-37" y="-185"/>
			<point x="-13" y="-171" type="curve"/>
			<point x="-25" y="-133" type="line"/>
			<point x="-42" y="-142"/>
			<point x="-62" y="-150"/>
			<point x="-85" y="-150" type="curve" smooth="yes"/>
			<point x="-110" y="-150"/>
			<point x="-126" y="-134"/>
			<point x="-126" y="-113" type="curve" smooth="yes"/>
			<point x="-126" y="-74"/>
			<point x="-80" y="-36"/>
			<point x="-24" y="0" type="curve"/>
			<point x="-80" y="0" type="line"/>
			<point x="-132" y="-28"/>
			<point x="-173" y="-77"/>
		</contour>
	</outline>
</glyph>
<glyph name="Omega" format="1">
  <advance width="706.2564114481517"/>
  <unicode hex="03A9"/>
  <outline>
    <contour>
      <point x="13" y="0" type="line"/>
      <point x="236" y="0" type="line"/>
      <point x="251" y="70" type="line"/>
      <point x="198" y="118"/>
      <point x="147" y="188"/>
      <point x="147" y="313" type="curve"/>
      <point x="147" y="486"/>
      <point x="258" y="638"/>
      <point x="420" y="638" type="curve"/>
      <point x="527" y="638"/>
      <point x="603" y="567"/>
      <point x="603" y="440" type="curve"/>
      <point x="603" y="266"/>
      <point x="480" y="141"/>
      <point x="371" y="70" type="curve"/>
      <point x="356" y="0" type="line"/>
      <point x="579" y="0" type="line"/>
      <point x="591" y="56" type="line"/>
      <point x="391" y="56" type="line"/>
      <point x="358" y="13" type="line"/>
      <point x="531" y="98"/>
      <point x="668" y="257"/>
      <point x="668" y="451" type="curve"/>
      <point x="668" y="604"/>
      <point x="566" y="698"/>
      <point x="426" y="698" type="curve"/>
      <point x="222" y="697"/>
      <point x="83" y="531"/>
      <point x="83" y="318" type="curve"/>
      <point x="83" y="191"/>
      <point x="149" y="80"/>
      <point x="238" y="16" type="curve"/>
      <point x="225" y="56" type="line"/>
      <point x="25" y="56" type="line"/>
    </contour>
  </outline>
</glyph>
<glyph name="endash" format="1">
  <advance width="567.2330314989933"/>
  <unicode hex="2013"/>
  <outline>
    <contour>
      <point x="49" y="250" type="line"/>
      <point x="504" y="250" type="line"/>
      <point x="515" y="300" type="line"/>
      <point x="60" y="300" type="line"/>
    </contour>
  </outline>
</glyph>
<glyph name="emdash" format="2">
	<advance width="851"/>
	<unicode hex="2014"/>
	<outline>
		<contour>
			<point x="49" y="250" type="line"/>
			<point x="788" y="250" type="line"/>
			<point x="799" y="300" type="line"/>
			<point x="60" y="300" type="line"/>
		</contour>
	</outline>
</glyph>
<glyph name="quoteleft" format="1">
  <advance width="209.95927559758408"/>
  <unicode hex="2018"/>
  <outline>
    <contour>
      <point x="242" y="720" type="line"/>
      <point x="202" y="720" type="line"/>
      <point x="139" y="604" type="line" smooth="yes"/>
      <point x="127" y="582"/>
      <point x="119" y="562"/>
      <point x="119" y="548" type="curve"/>
      <point x="119" y="522"/>
      <point x="135" y="505"/>
      <point x="157" y="505" type="curve"/>
      <point x="186" y="505"/>
      <point x="206" y="529"/>
      <point x="206" y="558" type="curve" smooth="yes"/>
      <point x="206" y="573"/>
      <point x="198" y="585"/>
      <point x="186" y="591" type="curve"/>
    </contour>
  </outline>
</glyph>
<glyph name="quoteright" format="2">
	<advance width="210"/>
	<unicode hex="2019"/>
	<outline>
		<contour>
			<point x="110" y="513" type="line"/>
			<point x="150" y="513" type="line"/>
			<point x="213" y="629" type="line" smooth="yes"/>
			<point x="225" y="651"/>
			<point x="233" y="671"/>
			<point x="233" y="685" type="curve"/>
			<point x="233" y="711"/>
			<point x="217" y="728"/>
			<point x="195" y="728" type="curve"/>
			<point x="166" y="728"/>
			<point x="146" y="704"/>
			<point x="146" y="675" type="curve" smooth="yes"/>
			<point x="146" y="660"/>
			<point x="154" y="648"/>
			<point x="166" y="642" type="curve"/>
		</contour>
	</outline>
</glyph>
<glyph name="dagger" format="1">
  <advance width="412.2239816317898"/>
  <unicode hex="2020"/>
  <outline>
    <contour>
      <point x="66" y="460" type="line"/>
      <point x="422" y="460" type="line"/>
      <point x="432" y="510" type="line"/>
      <point x="76" y="510" type="line"/>
    </contour>
    <contour>
      <point x="79" y="-185" type="line"/>
      <point x="135" y="-185" type="line"/>
      <point x="327" y="720" type="line"/>
      <point x="271" y="720" type="line"/>
    </contour>
  </outline>
</glyph>
<glyph name="daggerdbl" format="2">
  <advance width="412"/>
  <unicode hex="2021"/>
  <outline>
    <contour>
      <point x="-27" y="25" type="line"/>
      <point x="329" y="25" type="line"/>
      <point x="340" y="75" type="line"/>
      <point x="-16" y="75" type="line"/>
    </contour>
    <contour>
      <point x="66" y="460" type="line"/>
      <point x="422" y="460" type="line"/>
      <point x="432" y="510" type="line"/>
      <point x="76" y="510" type="line"/>
    </contour>
    <contour>
      <point x="79" y="-185" type="line"/>
      <point x="135" y="-185" type="line"/>
      <point x="327" y="720" type="line"/>
      <point x="271" y="720" type="line"/>
    </contour>
  </outline>
</glyph>
<glyph name="guilsinglleft" format="2">
	<advance width="298"/>
	<unicode hex="2039"/>
	<outline>
		<contour>
			<point x="44" y="255" type="line"/>
			<point x="146" y="78" type="line"/>
			<point x="211" y="78" type="line"/>
			<point x="95" y="275" type="line"/>
			<point x="51" y="284" type="line"/>
		</contour>
		<contour>
			<point x="44" y="255" type="line"/>
			<point x="95" y="262" type="line"/>
			<point x="294" y="453" type="line"/>
			<point x="225" y="453" type="line"/>
			<point x="51" y="284" type="line"/>
		</contour>
	</outline>
</glyph>
<glyph name="guilsinglright" format="2">
	<advance width="298"/>
	<unicode hex="203A"/>
	<outline>
		<contour>
			<point x="-3" y="78" type="line"/>
			<point x="66" y="78" type="line"/>
			<point x="240" y="247" type="line"/>
			<point x="247" y="276" type="line"/>
			<point x="196" y="269" type="line"/>
		</contour>
		<contour>
			<point x="80" y="453" type="line"/>
			<point x="196" y="256" type="line"/>
			<point x="240" y="247" type="line"/>
			<point x="247" y="276" type="line"/>
			<point x="145" y="453" type="line"/>
		</contour>
	</outline>
</glyph>
<glyph name="fraction" format="1">
  <advance width="491"/>
  <unicode hex="2044"/>
  <outline>
    <contour>
      <point x="-60" y="0" type="line"/>
      <point x="11" y="0" type="line"/>
      <point x="578" y="690" type="line"/>
      <point x="507" y="690" type="line"/>
    </contour>
  </outline>
</glyph>
<glyph name="lira" format="2">
	<advance width="600"/>
	<unicode hex="20A4"/>
	<outline>
		<contour>
			<point x="10" y="0" type="line"/>
			<point x="470" y="0" type="line"/>
			<point x="482" y="56" type="line"/>
			<point x="22" y="56" type="line"/>
		</contour>
		<contour>
			<point x="12" y="10" type="line"/>
			<point x="166" y="64"/>
			<point x="246" y="186"/>
			<point x="246" y="291" type="curve"/>
			<point x="246" y="356"/>
			<point x="242" y="387"/>
			<point x="242" y="438" type="curve"/>
			<point x="242" y="559"/>
			<point x="313" y="641"/>
			<point x="413" y="641" type="curve"/>
			<point x="470" y="641"/>
			<point x="516" y="617"/>
			<point x="540" y="571" type="curve"/>
			<point x="594" y="603" type="line"/>
			<point x="564" y="665"/>
			<point x="497" y="698"/>
			<point x="418" y="698" type="curve"/>
			<point x="283" y="698"/>
			<point x="181" y="603"/>
			<point x="181" y="441" type="curve"/>
			<point x="181" y="387"/>
			<point x="186" y="354"/>
			<point x="186" y="319" type="curve" smooth="yes"/>
			<point x="186" y="249"/>
			<point x="160" y="129"/>
			<point x="23" y="60" type="curve"/>
		</contour>
		<contour>
			<point x="65" y="236" type="line"/>
			<point x="425" y="236" type="line"/>
			<point x="437" y="290" type="line"/>
			<point x="77" y="290" type="line"/>
		</contour>
		<contour>
			<point x="75" y="386" type="line"/>
			<point x="435" y="386" type="line"/>
			<point x="447" y="440" type="line"/>
			<point x="87" y="440" type="line"/>
		</contour>
	</outline>
</glyph>
<glyph name="peseta" format="2">
	<advance width="645"/>
	<unicode hex="20A7"/>
	<outline>
		<component base="P"/>
		<contour>
			<point x="53" y="449" type="line"/>
			<point x="674" y="449" type="line"/>
			<point x="684" y="499" type="line"/>
			<point x="63" y="499" type="line"/>
		</contour>
	</outline>
</glyph>
<glyph name="dong" format="2">
	<advance width="551"/>
	<unicode hex="20AB"/>
	<outline>
		<component base="d"/>
		<contour>
			<point x="-11" y="-137" type="line"/>
			<point x="400" y="-137" type="line"/>
			<point x="410" y="-87" type="line"/>
			<point x="-1" y="-87" type="line"/>
		</contour>
		<contour>
			<point x="337" y="577" type="line"/>
			<point x="578" y="577" type="line"/>
			<point x="588" y="627" type="line"/>
			<point x="347" y="627" type="line"/>
		</contour>
	</outline>
</glyph>
<glyph name="guarani" format="2">
	<advance width="663"/>
	<unicode hex="20B2"/>
	<anchor x="435" y="690" name="top"/>
	<anchor x="305" y="0" name="bottom"/>
	<outline>
		<contour>
			<point x="67" y="229" type="curve" smooth="yes"/>
			<point x="67" y="79"/>
			<point x="164" y="-8"/>
			<point x="297" y="-8" type="curve"/>
			<point x="376" y="-8"/>
			<point x="467" y="22"/>
			<point x="541" y="87" type="curve"/>
			<point x="503" y="128" type="line"/>
			<point x="445" y="75"/>
			<point x="370" y="48"/>
			<point x="304" y="48" type="curve"/>
			<point x="200" y="48"/>
			<point x="132" y="118"/>
			<point x="132" y="236" type="curve" smooth="yes"/>
			<point x="132" y="452"/>
			<point x="273" y="641"/>
			<point x="432" y="641" type="curve" smooth="yes"/>
			<point x="498" y="641"/>
			<point x="546" y="616"/>
			<point x="576" y="568" type="curve"/>
			<point x="630" y="602" type="line"/>
			<point x="583" y="667"/>
			<point x="523" y="698"/>
			<point x="439" y="698" type="curve" smooth="yes"/>
			<point x="241" y="698"/>
			<point x="67" y="482"/>
		</contour>
		<contour>
			<point x="369" y="276" type="line"/>
			<point x="552" y="276" type="line"/>
			<point x="563" y="330" type="line"/>
			<point x="380" y="330" type="line"/>
		</contour>
		<contour>
			<point x="479" y="87" type="line"/>
			<point x="541" y="87" type="line"/>
			<point x="593" y="330" type="line"/>
			<point x="531" y="330" type="line"/>
		</contour>
		<component base="bar" xOffset="243" yOffset="99"/>
	</outline>
</glyph>
<glyph name="cedi" format="2">
	<advance width="622"/>
	<unicode hex="20B5"/>
	<outline>
		<component base="C"/>
		<contour>
			<point x="223" y="-129" type="line"/>
			<point x="279" y="-129" type="line"/>
			<point x="478" y="806" type="line"/>
			<point x="422" y="806" type="line"/>
		</contour>
	</outline>
</glyph>
<glyph name="rupeeIndian" format="2">
	<advance width="617"/>
	<unicode hex="20B9"/>
	<outline>
		<contour>
			<point x="132" y="275" type="line"/>
			<point x="291" y="275" type="line" smooth="yes"/>
			<point x="464" y="275"/>
			<point x="581" y="376"/>
			<point x="581" y="514" type="curve" smooth="yes"/>
			<point x="581" y="618"/>
			<point x="493" y="690"/>
			<point x="380" y="690" type="curve" smooth="yes"/>
			<point x="221" y="690" type="line"/>
			<point x="209" y="636" type="line"/>
			<point x="368" y="636" type="line" smooth="yes"/>
			<point x="460" y="636"/>
			<point x="516" y="589"/>
			<point x="516" y="508" type="curve" smooth="yes"/>
			<point x="516" y="404"/>
			<point x="434" y="329"/>
			<point x="298" y="329" type="curve" smooth="yes"/>
			<point x="144" y="329" type="line"/>
		</contour>
		<contour>
			<point x="132" y="275" type="line"/>
			<point x="339" y="0" type="line"/>
			<point x="405" y="0" type="line"/>
			<point x="194" y="275" type="line"/>
		</contour>
		<contour>
			<point x="61" y="460" type="line"/>
			<point x="647" y="460" type="line"/>
			<point x="657" y="510" type="line"/>
			<point x="71" y="510" type="line"/>
		</contour>
		<contour>
			<point x="261" y="640" type="line"/>
			<point x="682" y="640" type="line"/>
			<point x="692" y="690" type="line"/>
			<point x="271" y="690" type="line"/>
		</contour>
	</outline>
</glyph>
<glyph name="manat" format="2">
	<advance width="680"/>
	<unicode hex="20BC"/>
	<outline>
		<component base="U" xScale="-1" yScale="-1" xOffset="712" yOffset="690"/>
		<contour>
			<point x="258" y="0" type="line"/>
			<point x="314" y="0" type="line"/>
			<point x="494" y="849" type="line"/>
			<point x="438" y="849" type="line"/>
		</contour>
	</outline>
</glyph>
<glyph name="ruble" format="2">
	<advance width="599"/>
	<unicode hex="20BD"/>
	<outline>
		<component base="P"/>
		<contour>
			<point x="-19" y="129" type="line"/>
			<point x="284" y="129" type="line"/>
			<point x="294" y="179" type="line"/>
			<point x="-9" y="179" type="line"/>
		</contour>
		<contour>
			<point x="7" y="251" type="line"/>
			<point x="190" y="251" type="line"/>
			<point x="200" y="301" type="line"/>
			<point x="17" y="301" type="line"/>
		</contour>
	</outline>
</glyph>
<glyph name="litre" format="1">
  <advance width="474.01330950452854"/>
  <unicode hex="2113"/>
  <outline>
    <contour>
      <point x="27" y="210" type="curve"/>
      <point x="39" y="162" type="line"/>
      <point x="271" y="228"/>
      <point x="464" y="412"/>
      <point x="464" y="592" type="curve" smooth="yes"/>
      <point x="464" y="671"/>
      <point x="427" y="728"/>
      <point x="348" y="728" type="curve" smooth="yes"/>
      <point x="267" y="728"/>
      <point x="213" y="668"/>
      <point x="189" y="556" type="curve" smooth="yes"/>
      <point x="100" y="135" type="line" smooth="yes"/>
      <point x="77" y="25"/>
      <point x="135" y="-8"/>
      <point x="201" y="-8" type="curve" smooth="yes"/>
      <point x="230" y="-8"/>
      <point x="274" y="2"/>
      <point x="302" y="17" type="curve"/>
      <point x="289" y="69" type="line"/>
      <point x="261" y="54"/>
      <point x="239" y="47"/>
      <point x="213" y="47" type="curve"/>
      <point x="167" y="47"/>
      <point x="144" y="71"/>
      <point x="158" y="138" type="curve" smooth="yes"/>
      <point x="247" y="554" type="line" smooth="yes"/>
      <point x="261" y="621"/>
      <point x="296" y="673"/>
      <point x="345" y="673" type="curve" smooth="yes"/>
      <point x="385" y="673"/>
      <point x="406" y="636"/>
      <point x="406" y="589" type="curve" smooth="yes"/>
      <point x="406" y="441"/>
      <point x="248" y="275"/>
    </contour>
  </outline>
</glyph>
<glyph name="numero" format="2">
	<advance width="1108"/>
	<unicode hex="2116"/>
	<outline>
		<contour>
			<point x="703" y="135" type="line"/>
			<point x="1003" y="135" type="line"/>
			<point x="1013" y="185" type="line"/>
			<point x="713" y="185" type="line"/>
		</contour>
		<contour>
			<point x="767" y="490" type="curve" smooth="yes"/>
			<point x="737" y="348"/>
			<point x="795" y="282"/>
			<point x="883" y="282" type="curve" smooth="yes"/>
			<point x="981" y="282"/>
			<point x="1057" y="348"/>
			<point x="1087" y="490" type="curve" smooth="yes"/>
			<point x="1117" y="632"/>
			<point x="1059" y="698"/>
			<point x="971" y="698" type="curve" smooth="yes"/>
			<point x="873" y="698"/>
			<point x="797" y="632"/>
		</contour>
		<contour>
			<point x="823" y="490" type="curve" smooth="yes"/>
			<point x="847" y="600"/>
			<point x="901" y="648"/>
			<point x="961" y="648" type="curve" smooth="yes"/>
			<point x="1021" y="648"/>
			<point x="1055" y="600"/>
			<point x="1031" y="490" type="curve" smooth="yes"/>
			<point x="1008" y="380"/>
			<point x="954" y="332"/>
			<point x="894" y="332" type="curve" smooth="yes"/>
			<point x="834" y="332"/>
			<point x="800" y="380"/>
		</contour>
		<contour>
			<point x="44" y="0" type="line"/>
			<point x="106" y="0" type="line"/>
			<point x="253" y="690" type="line"/>
			<point x="191" y="690" type="line"/>
		</contour>
		<contour>
			<point x="209" y="690" type="line"/>
			<point x="465" y="0" type="line"/>
			<point x="527" y="0" type="line"/>
			<point x="271" y="690" type="line"/>
		</contour>
		<contour>
			<point x="483" y="0" type="line"/>
			<point x="545" y="0" type="line"/>
			<point x="692" y="690" type="line"/>
			<point x="630" y="690" type="line"/>
		</contour>
	</outline>
</glyph>
<glyph name="estimated" format="1">
  <advance width="698.6228484940204"/>
  <unicode hex="212E"/>
  <outline>
    <contour>
      <point x="57" y="238" type="curve" smooth="yes"/>
      <point x="57" y="75"/>
      <point x="155" y="-10"/>
      <point x="306" y="-10" type="curve" smooth="yes"/>
      <point x="399" y="-10"/>
      <point x="482" y="20"/>
      <point x="554" y="64" type="curve"/>
      <point x="534" y="116" type="line"/>
      <point x="475" y="80"/>
      <point x="401" y="50"/>
      <point x="323" y="50" type="curve" smooth="yes"/>
      <point x="193" y="50"/>
      <point x="119" y="117"/>
      <point x="119" y="249" type="curve" smooth="yes"/>
      <point x="119" y="441"/>
      <point x="267" y="640"/>
      <point x="434" y="640" type="curve" smooth="yes"/>
      <point x="555" y="640"/>
      <point x="607" y="573"/>
      <point x="607" y="445" type="curve" smooth="yes"/>
      <point x="607" y="418"/>
      <point x="604" y="388"/>
      <point x="597" y="356" type="curve"/>
      <point x="619" y="390" type="line"/>
      <point x="109" y="390" type="line"/>
      <point x="96" y="330" type="line"/>
      <point x="650" y="330" type="line"/>
      <point x="663" y="372"/>
      <point x="670" y="420"/>
      <point x="670" y="458" type="curve" smooth="yes"/>
      <point x="670" y="613"/>
      <point x="573" y="700"/>
      <point x="447" y="700" type="curve" smooth="yes"/>
      <point x="218" y="700"/>
      <point x="57" y="458"/>
    </contour>
    <contour>
      <point x="73" y="220" type="line"/>
      <point x="113" y="80" type="line"/>
      <point x="224" y="600" type="line"/>
      <point x="128" y="480" type="line"/>
    </contour>
    <contour>
      <point x="555" y="350" type="line"/>
      <point x="625" y="350" type="line"/>
      <point x="653" y="480" type="line"/>
      <point x="609" y="600" type="line"/>
    </contour>
  </outline>
</glyph>
<glyph name="partialdiff" format="1">
  <advance width="627.5572833343111"/>
  <unicode hex="2202"/>
  <outline>
    <contour>
      <point x="60" y="156" type="curve" smooth="yes"/>
      <point x="60" y="54"/>
      <point x="113" y="-8"/>
      <point x="213" y="-8" type="curve" smooth="yes"/>
      <point x="394" y="-8"/>
      <point x="570" y="238"/>
      <point x="570" y="497" type="curve" smooth="yes"/>
      <point x="570" y="630"/>
      <point x="518" y="728"/>
      <point x="384" y="728" type="curve"/>
      <point x="353" y="728"/>
      <point x="317" y="723"/>
      <point x="286" y="712" type="curve"/>
      <point x="294" y="658" type="line"/>
      <point x="319" y="667"/>
      <point x="353" y="673"/>
      <point x="380" y="673" type="curve" smooth="yes"/>
      <point x="477" y="673"/>
      <point x="510" y="600"/>
      <point x="510" y="488" type="curve" smooth="yes"/>
      <point x="510" y="261"/>
      <point x="362" y="47"/>
      <point x="222" y="47" type="curve" smooth="yes"/>
      <point x="160" y="47"/>
      <point x="119" y="78"/>
      <point x="119" y="159" type="curve" smooth="yes"/>
      <point x="119" y="291"/>
      <point x="236" y="425"/>
      <point x="352" y="425" type="curve" smooth="yes"/>
      <point x="422" y="425"/>
      <point x="473" y="384"/>
      <point x="490" y="320" type="curve"/>
      <point x="509" y="379" type="line"/>
      <point x="484" y="438"/>
      <point x="434" y="480"/>
      <point x="360" y="480" type="curve"/>
      <point x="205" y="480"/>
      <point x="60" y="319"/>
    </contour>
  </outline>
</glyph>
<glyph name="product" format="2">
	<advance width="701"/>
	<unicode hex="220F"/>
	<outline>
		<contour>
			<point x="52" y="-185" type="line"/>
			<point x="114" y="-185" type="line"/>
			<point x="300" y="690" type="line"/>
			<point x="238" y="690" type="line"/>
		</contour>
		<contour>
			<point x="146" y="634" type="line"/>
			<point x="706" y="634" type="line"/>
			<point x="718" y="690" type="line"/>
			<point x="158" y="690" type="line"/>
		</contour>
		<contour>
			<point x="390" y="-185" type="line"/>
			<point x="452" y="-185" type="line"/>
			<point x="638" y="690" type="line"/>
			<point x="576" y="690" type="line"/>
		</contour>
	</outline>
</glyph>
<glyph name="minus" format="2">
	<advance width="600"/>
	<unicode hex="2212"/>
	<outline>
		<contour>
			<point x="75" y="263" type="line"/>
			<point x="517" y="263" type="line"/>
			<point x="528" y="317" type="line"/>
			<point x="86" y="317" type="line"/>
		</contour>
	</outline>
</glyph>
<glyph name="radical" format="2">
	<advance width="678"/>
	<unicode hex="221A"/>
	<outline>
		<contour>
			<point x="26" y="274" type="line"/>
			<point x="166" y="274" type="line"/>
			<point x="178" y="330" type="line"/>
			<point x="38" y="330" type="line"/>
		</contour>
		<contour>
			<point x="125" y="330" type="line"/>
			<point x="204" y="-185" type="line"/>
			<point x="233" y="-185" type="line"/>
			<point x="246" y="-100" type="line"/>
			<point x="182" y="330" type="line"/>
		</contour>
		<contour>
			<point x="227" y="-185" type="line"/>
			<point x="253" y="-185" type="line"/>
			<point x="765" y="690" type="line"/>
			<point x="698" y="690" type="line"/>
			<point x="239" y="-100" type="line"/>
		</contour>
	</outline>
</glyph>
<glyph name="infinity" format="2">
  <advance width="657"/>
  <unicode hex="221E"/>
  <outline>
    <contour>
      <point x="49" y="248" type="curve" smooth="yes"/>
      <point x="49" y="161"/>
      <point x="96" y="112"/>
      <point x="160" y="112" type="curve" smooth="yes"/>
      <point x="228" y="112"/>
      <point x="289" y="157"/>
      <point x="353" y="284" type="curve" smooth="yes"/>
      <point x="399" y="375"/>
      <point x="447" y="412"/>
      <point x="490" y="412" type="curve" smooth="yes"/>
      <point x="527" y="412"/>
      <point x="555" y="382"/>
      <point x="555" y="324" type="curve" smooth="yes"/>
      <point x="555" y="235"/>
      <point x="496" y="166"/>
      <point x="443" y="166" type="curve" smooth="yes"/>
      <point x="392" y="166"/>
      <point x="354" y="214"/>
      <point x="354" y="289" type="curve" smooth="yes"/>
      <point x="354" y="293"/>
      <point x="354" y="297"/>
      <point x="354" y="301" type="curve"/>
      <point x="319" y="242" type="line"/>
      <point x="324" y="171"/>
      <point x="365" y="110"/>
      <point x="436" y="110" type="curve" smooth="yes"/>
      <point x="525" y="110"/>
      <point x="611" y="206"/>
      <point x="611" y="326" type="curve" smooth="yes"/>
      <point x="611" y="415"/>
      <point x="565" y="468"/>
      <point x="499" y="468" type="curve" smooth="yes"/>
      <point x="427" y="468"/>
      <point x="367" y="420"/>
      <point x="304" y="296" type="curve" smooth="yes"/>
      <point x="257" y="203"/>
      <point x="211" y="168"/>
      <point x="168" y="168" type="curve" smooth="yes"/>
      <point x="132" y="168"/>
      <point x="105" y="198"/>
      <point x="105" y="251" type="curve" smooth="yes"/>
      <point x="105" y="340"/>
      <point x="162" y="412"/>
      <point x="223" y="412" type="curve" smooth="yes"/>
      <point x="268" y="412"/>
      <point x="298" y="367"/>
      <point x="298" y="295" type="curve" smooth="yes"/>
      <point x="298" y="290"/>
      <point x="298" y="284"/>
      <point x="298" y="279" type="curve"/>
      <point x="337" y="340" type="line"/>
      <point x="337" y="420"/>
      <point x="290" y="468"/>
      <point x="228" y="468" type="curve" smooth="yes"/>
      <point x="138" y="468"/>
      <point x="49" y="375"/>
    </contour>
  </outline>
</glyph>
<glyph name="integral" format="2">
  <advance width="416"/>
  <unicode hex="222B"/>
  <outline>
    <contour>
      <point x="-73" y="-177" type="line"/>
      <point x="-55" y="-187"/>
      <point x="-28" y="-193"/>
      <point x="2" y="-193" type="curve" smooth="yes"/>
      <point x="63" y="-193"/>
      <point x="130" y="-164"/>
      <point x="154" y="-55" type="curve" smooth="yes"/>
      <point x="291" y="572" type="line" smooth="yes"/>
      <point x="307" y="645"/>
      <point x="343" y="674"/>
      <point x="396" y="674" type="curve" smooth="yes"/>
      <point x="415" y="674"/>
      <point x="433" y="670"/>
      <point x="442" y="665" type="curve"/>
      <point x="464" y="712" type="line"/>
      <point x="451" y="719"/>
      <point x="432" y="728"/>
      <point x="392" y="728" type="curve" smooth="yes"/>
      <point x="312" y="728"/>
      <point x="255" y="686"/>
      <point x="231" y="575" type="curve" smooth="yes"/>
      <point x="102" y="-32" type="line" smooth="yes"/>
      <point x="84" y="-117"/>
      <point x="47" y="-138"/>
      <point x="4" y="-138" type="curve" smooth="yes"/>
      <point x="-15" y="-138"/>
      <point x="-32" y="-134"/>
      <point x="-49" y="-126" type="curve"/>
    </contour>
  </outline>
</glyph>
<glyph name="approxequal" format="2">
  <advance width="600"/>
  <unicode hex="2248"/>
  <outline>
    <contour>
      <point x="40.0" y="178" type="curve"/>
      <point x="62.0" y="133" type="line"/>
      <point x="93.0" y="153"/>
      <point x="138.0" y="183"/>
      <point x="178.0" y="183" type="curve" smooth="yes"/>
      <point x="248.0" y="183"/>
      <point x="283.0" y="123"/>
      <point x="363.0" y="123" type="curve" smooth="yes"/>
      <point x="423.0" y="123"/>
      <point x="472.0" y="152"/>
      <point x="517.0" y="182" type="curve"/>
      <point x="494.0" y="227" type="line"/>
      <point x="464.0" y="207"/>
      <point x="419.0" y="177"/>
      <point x="379.0" y="177" type="curve" smooth="yes"/>
      <point x="309.0" y="177"/>
      <point x="273.0" y="237"/>
      <point x="193.0" y="237" type="curve" smooth="yes"/>
      <point x="133.0" y="237"/>
      <point x="84.0" y="208"/>
    </contour>
    <contour>
      <point x="87.0" y="398" type="curve"/>
      <point x="109.0" y="353" type="line"/>
      <point x="139.0" y="373"/>
      <point x="185.0" y="403"/>
      <point x="225.0" y="403" type="curve" smooth="yes"/>
      <point x="295.0" y="403"/>
      <point x="330.0" y="343"/>
      <point x="410.0" y="343" type="curve" smooth="yes"/>
      <point x="470.0" y="343"/>
      <point x="519.0" y="372"/>
      <point x="563.0" y="402" type="curve"/>
      <point x="541.0" y="447" type="line"/>
      <point x="511.0" y="427"/>
      <point x="465.0" y="397"/>
      <point x="425.0" y="397" type="curve" smooth="yes"/>
      <point x="355.0" y="397"/>
      <point x="320.0" y="457"/>
      <point x="240.0" y="457" type="curve" smooth="yes"/>
      <point x="180.0" y="457"/>
      <point x="131.0" y="428"/>
    </contour>
  </outline>
</glyph>
<glyph name="lessequal" format="2">
	<advance width="600"/>
	<unicode hex="2264"/>
	<outline>
		<contour>
			<point x="37" y="76" type="line"/>
			<point x="437" y="76" type="line"/>
			<point x="449" y="130" type="line"/>
			<point x="449" y="130" type="line"/>
			<point x="49" y="130" type="line"/>
		</contour>
		<contour>
			<point x="91" y="330" type="line"/>
			<point x="455" y="162" type="line"/>
			<point x="469" y="218" type="line"/>
			<point x="137" y="365" type="line"/>
			<point x="100" y="371" type="line"/>
		</contour>
		<contour>
			<point x="94" y="344" type="line"/>
			<point x="132" y="335" type="line"/>
			<point x="524" y="486" type="line"/>
			<point x="539" y="550" type="line"/>
			<point x="102" y="382" type="line"/>
		</contour>
	</outline>
</glyph>
<glyph name="lozenge" format="2">
	<advance width="653"/>
	<unicode hex="25CA"/>
	<outline>
		<contour>
			<point x="59" y="290" type="line"/>
			<point x="212" y="-110" type="line"/>
			<point x="249" y="-110" type="line"/>
			<point x="254" y="-60" type="line"/>
			<point x="115" y="302" type="line"/>
		</contour>
		<contour>
			<point x="59" y="290" type="line"/>
			<point x="113" y="266" type="line"/>
			<point x="414" y="640" type="line"/>
			<point x="415" y="690" type="line"/>
			<point x="382" y="690" type="line"/>
		</contour>
		<contour>
			<point x="241" y="-110" type="line"/>
			<point x="276" y="-110" type="line"/>
			<point x="599" y="290" type="line"/>
			<point x="538" y="301" type="line"/>
			<point x="250" y="-59" type="line"/>
		</contour>
		<contour>
			<point x="404" y="640" type="line"/>
			<point x="544" y="280" type="line"/>
			<point x="599" y="290" type="line"/>
			<point x="446" y="690" type="line"/>
			<point x="407" y="690" type="line"/>
		</contour>
	</outline>
</glyph>
<glyph name="f_f" format="2">
	<advance width="670"/>
	<unicode hex="FB00"/>
	<outline>
		<contour>
			<point x="57" y="0" type="line"/>
			<point x="117" y="0" type="line"/>
			<point x="239" y="572" type="line" smooth="yes"/>
			<point x="253" y="640"/>
			<point x="294" y="675"/>
			<point x="343" y="675" type="curve" smooth="yes"/>
			<point x="368" y="675"/>
			<point x="391" y="670"/>
			<point x="414" y="658" type="curve"/>
			<point x="436" y="705" type="line"/>
			<point x="412" y="719"/>
			<point x="378" y="728"/>
			<point x="350" y="728" type="curve" smooth="yes"/>
			<point x="261" y="728"/>
			<point x="200" y="675"/>
			<point x="179" y="575" type="curve" smooth="yes"/>
		</contour>
		<contour>
			<point x="62" y="460" type="line"/>
			<point x="382" y="460" type="line"/>
			<point x="392" y="510" type="line"/>
			<point x="72" y="510" type="line"/>
		</contour>
		<contour>
			<point x="377" y="0" type="line"/>
			<point x="437" y="0" type="line"/>
			<point x="559" y="572" type="line" smooth="yes"/>
			<point x="573" y="640"/>
			<point x="614" y="675"/>
			<point x="663" y="675" type="curve" smooth="yes"/>
			<point x="688" y="675"/>
			<point x="711" y="670"/>
			<point x="734" y="658" type="curve"/>
			<point x="756" y="705" type="line"/>
			<point x="732" y="719"/>
			<point x="698" y="728"/>
			<point x="670" y="728" type="curve" smooth="yes"/>
			<point x="581" y="728"/>
			<point x="520" y="675"/>
			<point x="499" y="575" type="curve" smooth="yes"/>
		</contour>
		<contour>
			<point x="382" y="460" type="line"/>
			<point x="682" y="460" type="line"/>
			<point x="692" y="510" type="line"/>
			<point x="392" y="510" type="line"/>
		</contour>
	</outline>
</glyph>
<glyph name="J.alt" format="1">
  <advance width="522.3359724476848"/>
  <outline>
    <contour>
      <point x="8" y="76" type="line"/>
      <point x="47" y="24"/>
      <point x="105" y="-8"/>
      <point x="176" y="-8" type="curve"/>
      <point x="287" y="-8"/>
      <point x="379" y="52"/>
      <point x="414" y="215" type="curve" smooth="yes"/>
      <point x="515" y="690" type="line"/>
      <point x="453" y="690" type="line"/>
      <point x="353" y="220" type="line" smooth="yes"/>
      <point x="327" y="97"/>
      <point x="261" y="49"/>
      <point x="181" y="49" type="curve"/>
      <point x="120" y="49"/>
      <point x="79" y="77"/>
      <point x="50" y="117" type="curve"/>
    </contour>
    <contour>
      <point x="483" y="690" type="move" name="top"/>
    </contour>
  </outline>
</glyph>
<glyph name="a.alt" format="2">
	<advance width="551"/>
	<anchor x="339" y="510" name="top"/>
	<anchor x="232" y="0" name="bottom"/>
	<anchor x="409" y="0" name="ogonek"/>
	<outline>
		<contour>
			<point x="42" y="170" type="curve" smooth="yes"/>
			<point x="42" y="52"/>
			<point x="110" y="-8"/>
			<point x="189" y="-8" type="curve" smooth="yes"/>
			<point x="261" y="-8"/>
			<point x="335" y="35"/>
			<point x="375" y="105" type="curve"/>
			<point x="365" y="100" type="line"/>
			<point x="355" y="40"/>
			<point x="380" y="-8"/>
			<point x="428" y="-8" type="curve"/>
			<point x="444" y="-8"/>
			<point x="453" y="-5"/>
			<point x="465" y="0" type="curve"/>
			<point x="475" y="48" type="line"/>
			<point x="468" y="46"/>
			<point x="461" y="44"/>
			<point x="451" y="44" type="curve"/>
			<point x="426" y="44"/>
			<point x="415" y="62"/>
			<point x="429" y="126" type="curve" smooth="yes"/>
			<point x="511" y="510" type="line"/>
			<point x="459" y="510" type="line"/>
			<point x="436" y="439" type="line"/>
			<point x="392" y="232" type="line" smooth="yes"/>
			<point x="367" y="112"/>
			<point x="277" y="45"/>
			<point x="205" y="45" type="curve" smooth="yes"/>
			<point x="146" y="45"/>
			<point x="103" y="88"/>
			<point x="103" y="176" type="curve" smooth="yes"/>
			<point x="103" y="337"/>
			<point x="205" y="466"/>
			<point x="304" y="466" type="curve" smooth="yes"/>
			<point x="353" y="466"/>
			<point x="396" y="448"/>
			<point x="437" y="403" type="curve"/>
			<point x="447" y="455" type="line"/>
			<point x="407" y="499"/>
			<point x="357" y="518"/>
			<point x="309" y="518" type="curve" smooth="yes"/>
			<point x="175" y="518"/>
			<point x="42" y="368"/>
		</contour>
	</outline>
</glyph>
<glyph name="acutecomb.case" format="2">
	<advance width="0"/>
	<anchor x="94" y="690" name="_top"/>
	<anchor x="138" y="900" name="top"/>
	<outline>
		<contour>
			<point x="77" y="750" type="line"/>
			<point x="137" y="750" type="line"/>
			<point x="292" y="885" type="line"/>
			<point x="205" y="885" type="line"/>
		</contour>
	</outline>
</glyph>
<glyph name="aogonek.alt" format="1">
  <advance width="551.0"/>
  <outline>
    <contour>
      <point x="42" y="170" type="curve" smooth="yes"/>
      <point x="42" y="52"/>
      <point x="110" y="-8"/>
      <point x="189" y="-8" type="curve" smooth="yes"/>
      <point x="261" y="-8"/>
      <point x="335" y="35"/>
      <point x="375" y="105" type="curve"/>
      <point x="365" y="100" type="line"/>
      <point x="355" y="40"/>
      <point x="380" y="-8"/>
      <point x="428" y="-8" type="curve"/>
      <point x="444" y="-8"/>
      <point x="453" y="-5"/>
      <point x="465" y="0" type="curve"/>
      <point x="475" y="48" type="line"/>
      <point x="468" y="46"/>
      <point x="461" y="44"/>
      <point x="451" y="44" type="curve"/>
      <point x="426" y="44"/>
      <point x="415" y="62"/>
      <point x="429" y="126" type="curve" smooth="yes"/>
      <point x="511" y="510" type="line"/>
      <point x="459" y="510" type="line"/>
      <point x="436" y="439" type="line"/>
      <point x="392" y="232" type="line" smooth="yes"/>
      <point x="367" y="112"/>
      <point x="277" y="45"/>
      <point x="205" y="45" type="curve" smooth="yes"/>
      <point x="146" y="45"/>
      <point x="103" y="88"/>
      <point x="103" y="176" type="curve" smooth="yes"/>
      <point x="103" y="337"/>
      <point x="205" y="466"/>
      <point x="304" y="466" type="curve" smooth="yes"/>
      <point x="353" y="466"/>
      <point x="396" y="448"/>
      <point x="437" y="403" type="curve"/>
      <point x="447" y="455" type="line"/>
      <point x="407" y="499"/>
      <point x="357" y="518"/>
      <point x="309" y="518" type="curve" smooth="yes"/>
      <point x="175" y="518"/>
      <point x="42" y="368"/>
    </contour>
    <contour>
      <point x="316" y="-121" type="curve"/>
      <point x="316" y="-160"/>
      <point x="347" y="-193"/>
      <point x="398" y="-193" type="curve"/>
      <point x="426" y="-193"/>
      <point x="452" y="-185"/>
      <point x="476" y="-171" type="curve"/>
      <point x="464" y="-133" type="line"/>
      <point x="447" y="-142"/>
      <point x="427" y="-150"/>
      <point x="404" y="-150" type="curve" smooth="yes"/>
      <point x="379" y="-150"/>
      <point x="363" y="-134"/>
      <point x="363" y="-113" type="curve" smooth="yes"/>
      <point x="363" y="-74"/>
      <point x="409" y="-36"/>
      <point x="465" y="0" type="curve"/>
      <point x="409" y="0" type="line"/>
      <point x="357" y="-28"/>
      <point x="316" y="-77"/>
    </contour>
  </outline>
</glyph>
<glyph name="breve.cap" format="2">
  <advance width="600"/>
  <note>
breve.cap
</note>
  <anchor x="387" y="690" name="_top"/>
  <outline>
    <contour>
      <point x="299" y="856" type="curve"/>
      <point x="299" y="815"/>
      <point x="327" y="755"/>
      <point x="406" y="755" type="curve" smooth="yes"/>
      <point x="476" y="755"/>
      <point x="531" y="794"/>
      <point x="553" y="880" type="curve"/>
      <point x="503" y="880" type="line"/>
      <point x="484" y="829"/>
      <point x="457" y="805"/>
      <point x="412" y="805" type="curve" smooth="yes"/>
      <point x="371" y="805"/>
      <point x="350" y="830"/>
      <point x="350" y="868" type="curve" smooth="yes"/>
      <point x="350" y="870"/>
      <point x="350" y="872"/>
      <point x="351" y="880" type="curve"/>
      <point x="301" y="880" type="line"/>
      <point x="300" y="875"/>
      <point x="299" y="866"/>
    </contour>
  </outline>
</glyph>
<glyph name="caron.cap" format="2">
	<advance width="600"/>
	<anchor x="387" y="690" name="_top"/>
	<note>
		caron.cap
	</note>
	<outline>
		<contour>
			<point x="290" y="885" type="line"/>
			<point x="359" y="750" type="line"/>
			<point x="431" y="750" type="line"/>
			<point x="344" y="885" type="line"/>
		</contour>
		<contour>
			<point x="359" y="750" type="line"/>
			<point x="441" y="750" type="line"/>
			<point x="567" y="885" type="line"/>
			<point x="507" y="885" type="line"/>
		</contour>
	</outline>
</glyph>
<glyph name="commaaccent.alt" format="1">
  <advance width="600"/>
  <outline>
    <contour>
      <point x="446" y="815" type="line"/>
      <point x="406" y="815" type="line"/>
      <point x="359" y="723" type="line" smooth="yes"/>
      <point x="348" y="702"/>
      <point x="339" y="681"/>
      <point x="339" y="664" type="curve"/>
      <point x="339" y="638"/>
      <point x="355" y="621"/>
      <point x="377" y="621" type="curve"/>
      <point x="406" y="621"/>
      <point x="426" y="644"/>
      <point x="426" y="673" type="curve" smooth="yes"/>
      <point x="426" y="688"/>
      <point x="417" y="701"/>
      <point x="403" y="708" type="curve"/>
    </contour>
    <contour>
      <point x="348" y="510" type="move" name="_top"/>
    </contour>
  </outline>
</glyph>
<glyph name="commaaccent" format="2">
  <advance width="600"/>
  <anchor x="240.0" y="0.0" name="_bottom"/>
  <outline>
    <contour>
      <point x="144" y="-300" type="line"/>
      <point x="184" y="-300" type="line"/>
      <point x="231" y="-208" type="line" smooth="yes"/>
      <point x="242" y="-187"/>
      <point x="251" y="-166"/>
      <point x="251" y="-149" type="curve"/>
      <point x="251" y="-123"/>
      <point x="235" y="-106"/>
      <point x="213" y="-106" type="curve"/>
      <point x="184" y="-106"/>
      <point x="164" y="-129"/>
      <point x="164" y="-158" type="curve" smooth="yes"/>
      <point x="164" y="-173"/>
      <point x="173" y="-186"/>
      <point x="187" y="-193" type="curve"/>
    </contour>
  </outline>
</glyph>
<glyph name="dieresis.cap" format="2">
  <advance width="600"/>
  <note>
dieresis.cap
</note>
  <anchor x="387" y="690" name="_top"/>
  <outline>
    <contour>
      <point x="267" y="797" type="curve" smooth="yes"/>
      <point x="267" y="777"/>
      <point x="279" y="762"/>
      <point x="301" y="762" type="curve" smooth="yes"/>
      <point x="328" y="762"/>
      <point x="350" y="786"/>
      <point x="350" y="812" type="curve" smooth="yes"/>
      <point x="350" y="832"/>
      <point x="338" y="847"/>
      <point x="316" y="847" type="curve" smooth="yes"/>
      <point x="289" y="847"/>
      <point x="267" y="823"/>
    </contour>
    <contour>
      <point x="472" y="797" type="curve" smooth="yes"/>
      <point x="472" y="777"/>
      <point x="484" y="762"/>
      <point x="506" y="762" type="curve" smooth="yes"/>
      <point x="533" y="762"/>
      <point x="555" y="786"/>
      <point x="555" y="812" type="curve" smooth="yes"/>
      <point x="555" y="832"/>
      <point x="543" y="847"/>
      <point x="521" y="847" type="curve" smooth="yes"/>
      <point x="494" y="847"/>
      <point x="472" y="823"/>
    </contour>
  </outline>
</glyph>
<glyph name="grave.cap" format="2">
  <advance width="600"/>
  <note>
grave.cap
</note>
  <anchor x="387" y="690" name="_top"/>
  <outline>
    <contour>
      <point x="278" y="885" type="line"/>
      <point x="380" y="750" type="line"/>
      <point x="431" y="750" type="line"/>
      <point x="354" y="885" type="line"/>
    </contour>
  </outline>
</glyph>
<glyph name="one.pl" format="1">
  <advance width="450.33597244768475"/>
  <outline>
    <contour>
      <point x="120" y="601" type="line"/>
      <point x="136" y="553" type="line"/>
      <point x="343" y="640" type="line"/>
      <point x="330" y="690" type="line"/>
    </contour>
    <contour>
      <point x="162" y="0" type="line"/>
      <point x="224" y="0" type="line"/>
      <point x="371" y="690" type="line"/>
      <point x="330" y="690" type="line"/>
      <point x="297" y="637" type="line"/>
    </contour>
  </outline>
</glyph>
<glyph name="ring.cap" format="1">
  <advance width="600"/>
  <note>
    ring.cap
  </note>
  <outline>
    <contour>
      <point x="311" y="827" type="curve"/>
      <point x="311" y="775"/>
      <point x="350" y="740"/>
      <point x="401" y="740" type="curve" smooth="yes"/>
      <point x="471" y="740"/>
      <point x="526" y="785"/>
      <point x="526" y="852" type="curve"/>
      <point x="526" y="904"/>
      <point x="488" y="938"/>
      <point x="437" y="938" type="curve" smooth="yes"/>
      <point x="367" y="938"/>
      <point x="311" y="894"/>
    </contour>
    <contour>
      <point x="358" y="828" type="curve"/>
      <point x="358" y="863"/>
      <point x="385" y="898"/>
      <point x="431" y="898" type="curve" smooth="yes"/>
      <point x="459" y="898"/>
      <point x="480" y="881"/>
      <point x="480" y="850" type="curve"/>
      <point x="480" y="815"/>
      <point x="453" y="780"/>
      <point x="407" y="780" type="curve" smooth="yes"/>
      <point x="379" y="780"/>
      <point x="358" y="797"/>
    </contour>
    <contour>
      <point x="387" y="690" type="move" name="_top"/>
    </contour>
  </outline>
</glyph>
<glyph name="u.alt" format="2">
	<advance width="566"/>
	<anchor x="318" y="510" name="top"/>
	<anchor x="226" y="0" name="bottom"/>
	<anchor x="419" y="0" name="ogonek"/>
	<outline>
		<contour>
			<point x="57" y="140" type="curve" smooth="yes"/>
			<point x="57" y="47"/>
			<point x="121" y="-8"/>
			<point x="196" y="-8" type="curve"/>
			<point x="267" y="-8"/>
			<point x="345" y="35"/>
			<point x="385" y="105" type="curve"/>
			<point x="375" y="100" type="line"/>
			<point x="365" y="40"/>
			<point x="390" y="-8"/>
			<point x="438" y="-8" type="curve"/>
			<point x="454" y="-8"/>
			<point x="463" y="-5"/>
			<point x="475" y="0" type="curve"/>
			<point x="485" y="48" type="line"/>
			<point x="478" y="46"/>
			<point x="471" y="44"/>
			<point x="461" y="44" type="curve"/>
			<point x="436" y="44"/>
			<point x="425" y="62"/>
			<point x="439" y="126" type="curve" smooth="yes"/>
			<point x="520" y="510" type="line"/>
			<point x="460" y="510" type="line"/>
			<point x="401" y="232" type="line" smooth="yes"/>
			<point x="376" y="112"/>
			<point x="286" y="45"/>
			<point x="214" y="45" type="curve"/>
			<point x="155" y="45"/>
			<point x="118" y="78"/>
			<point x="118" y="146" type="curve" smooth="yes"/>
			<point x="118" y="162"/>
			<point x="120" y="179"/>
			<point x="124" y="198" type="curve" smooth="yes"/>
			<point x="190" y="510" type="line"/>
			<point x="130" y="510" type="line"/>
			<point x="63" y="196" type="line" smooth="yes"/>
			<point x="59" y="177"/>
			<point x="57" y="157"/>
		</contour>
	</outline>
</glyph>
